<svg width="45" height="45" viewBox="0 0 45 45" fill="none" xmlns="http://www.w3.org/2000/svg">
<path d="M42.1077 15.3316C44.1683 13.2702 44.0611 11.4988 41.7381 9.17497L35.8285 3.26313C33.5056 0.939256 31.7333 0.833631 29.6743 2.89347L23.0539 9.51637C20.9784 11.5926 21.1004 13.3491 23.4234 15.673L29.333 21.5848C31.6443 23.9267 33.4134 24.0292 35.474 21.9678L42.1077 15.3316Z" fill="#FF7020"/>
<path d="M41.3725 32.0361C41.3725 28.7525 40.048 27.4254 36.7595 27.4254H28.4021C25.1169 27.4254 23.7891 28.7525 23.7891 32.0361V40.3892C23.7891 43.6772 25.1169 44.9999 28.4021 44.9999H36.7595C40.0491 44.9999 41.3725 43.6728 41.3725 40.3892V32.0361Z" fill="#FF7020"/>
<path d="M17.5835 7.7409C17.5835 4.82565 16.2557 3.64893 12.9704 3.64893H4.61302C1.32781 3.64893 0 4.82786 0 7.7409V17.1071C0 20.0434 1.32781 21.1991 4.61302 21.1991H12.9704C16.2601 21.2201 17.5835 20.0412 17.5835 17.1259V7.7409Z" fill="#FF7020"/>
<path d="M17.5835 32.0361C17.5835 28.7525 16.259 27.4254 12.9704 27.4254H4.61302C1.32781 27.4254 0 28.7525 0 32.0361V40.3892C0 43.6772 1.32781 44.9999 4.61302 44.9999H12.9704C16.2601 44.9999 17.5835 43.6728 17.5835 40.3892V32.0361Z" fill="#FF7020"/>
</svg>
