<svg width="173" height="29" viewBox="0 0 173 29" fill="none" xmlns="http://www.w3.org/2000/svg">
<g clip-path="url(#clip0_72_204)">
<path d="M14.7256 14.5C13.6257 15.8258 11.9963 16.6676 10.1837 16.6676C6.90452 16.6676 4.2364 13.9107 4.2364 10.5225C4.2364 7.13425 6.90452 4.37736 10.1837 4.37736C12.1593 4.37736 13.9312 5.38752 15.0107 6.9238L18.3102 4.16691C16.4568 1.64151 13.5035 0 10.1837 0C4.56228 0 0 4.71408 0 10.5225C0 16.3309 4.56228 21.045 10.1837 21.045C13.1777 21.045 15.8661 19.7192 17.7399 17.5936L14.7256 14.5Z" fill="#336AEA"/>
<path d="M6.82302 12.311C7.77915 12.311 8.55424 11.5102 8.55424 10.5222C8.55424 9.53428 7.77915 8.7334 6.82302 8.7334C5.86689 8.7334 5.0918 9.53428 5.0918 10.5222C5.0918 11.5102 5.86689 12.311 6.82302 12.311Z" fill="#336AEA"/>
<path d="M14.7053 14.4995C15.8051 13.1737 17.4141 12.3319 19.2268 12.3319C22.5059 12.3319 25.1741 15.0888 25.1741 18.477C25.1741 21.8653 22.5059 24.6222 19.2268 24.6222C17.2512 24.6222 15.4792 23.612 14.3997 22.0757L11.1206 24.8326C12.974 27.3791 15.9273 29.0206 19.2472 29.0206C24.8685 29.0206 29.4308 24.3065 29.4308 18.4981C29.4308 12.6897 24.8685 7.97559 19.2472 7.97559C16.2532 7.97559 13.5647 9.30142 11.6909 11.427L14.7053 14.4995Z" fill="#141414"/>
<path d="M22.6077 20.2661C23.5638 20.2661 24.3389 19.4652 24.3389 18.4773C24.3389 17.4894 23.5638 16.6885 22.6077 16.6885C21.6516 16.6885 20.8765 17.4894 20.8765 18.4773C20.8765 19.4652 21.6516 20.2661 22.6077 20.2661Z" fill="#141414"/>
<path d="M73.078 17.7618C72.691 18.6878 72.1411 19.5085 71.4282 20.2241C70.7357 20.9186 69.9007 21.4868 68.9434 21.8866C67.9861 22.2865 66.9474 22.4969 65.8272 22.4969C64.707 22.4969 63.6886 22.3075 62.7314 21.9077C61.7741 21.5078 60.9594 20.9606 60.2669 20.2662C59.5744 19.5717 59.0245 18.7509 58.6375 17.8249C58.2505 16.899 58.0469 15.8888 58.0469 14.8155V14.7524C58.0469 13.6791 58.2505 12.6689 58.6375 11.7429C59.0245 10.817 59.5744 9.9962 60.2873 9.28067C60.9798 8.58619 61.8148 8.01797 62.7721 7.61812C63.7294 7.21826 64.7681 7.00781 65.8883 7.00781C67.0085 7.00781 68.0269 7.19722 68.9841 7.59707C69.9414 7.99693 70.7561 8.5441 71.4486 9.23858C72.1411 9.93307 72.691 10.7538 73.078 11.6798C73.4649 12.6058 73.6686 13.6159 73.6686 14.6892V14.7524C73.6686 15.8257 73.4649 16.8358 73.078 17.7618ZM69.6155 14.7524C69.6155 14.2052 69.534 13.6791 69.3507 13.174C69.1674 12.69 68.9027 12.248 68.5768 11.8692C68.2305 11.4904 67.8232 11.1958 67.3751 10.9643C66.9067 10.7328 66.3975 10.6276 65.8476 10.6276C65.2569 10.6276 64.7274 10.7328 64.2793 10.9432C63.8312 11.1537 63.4238 11.4483 63.1183 11.8271C62.7925 12.2059 62.548 12.6268 62.3851 13.1109C62.2222 13.5949 62.1203 14.121 62.1203 14.6892V14.7524C62.1203 15.2995 62.2018 15.8257 62.3851 16.3307C62.5684 16.8148 62.8332 17.2567 63.1591 17.6355C63.5053 18.0143 63.8923 18.309 64.3607 18.5405C64.8088 18.772 65.3384 18.8772 65.9087 18.8772C66.4993 18.8772 67.0289 18.772 67.4769 18.5615C67.925 18.3511 68.3324 18.0564 68.6379 17.6776C68.9638 17.2988 69.2082 16.8779 69.3711 16.3939C69.534 15.9098 69.6359 15.3837 69.6359 14.8155V14.7524H69.6155Z" fill="#141414"/>
<path d="M85.0946 11.4276C83.73 11.4276 82.6505 11.8485 81.8766 12.7113C81.1026 13.5741 80.7157 14.8789 80.7157 16.6888V22.2026H76.6218V7.28169H80.7157V10.2911C81.123 9.28097 81.6933 8.46021 82.4061 7.84991C83.119 7.2396 84.0966 6.96602 85.3187 7.00811V11.4276H85.0946Z" fill="#141414"/>
<path d="M102.448 18.0564C102.081 19.0035 101.592 19.8242 101.002 20.4766C100.391 21.129 99.698 21.6341 98.9241 21.9708C98.1297 22.3075 97.315 22.4759 96.4392 22.4759C95.3394 22.4759 94.4433 22.2654 93.7304 21.8235C93.0175 21.3815 92.4269 20.8765 91.9381 20.2872V26.6638H87.8442V7.2814H91.9381V9.40694C92.4473 8.71246 93.0379 8.14424 93.7508 7.68125C94.4636 7.23931 95.3598 7.00781 96.4189 7.00781C97.2539 7.00781 98.0686 7.17617 98.863 7.51289C99.6573 7.84961 100.35 8.33365 100.961 9.00709C101.572 9.65948 102.061 10.4802 102.427 11.4273C102.794 12.3743 102.977 13.4897 102.977 14.7313V14.7945C103.018 15.994 102.835 17.0884 102.448 18.0564ZM98.9241 14.6892C98.9241 14.0789 98.8222 13.5107 98.6389 13.0056C98.4556 12.5006 98.1908 12.0586 97.865 11.7008C97.5391 11.3431 97.1725 11.0485 96.7448 10.859C96.317 10.6696 95.869 10.5644 95.3801 10.5644C94.8913 10.5644 94.4433 10.6696 94.0155 10.859C93.5878 11.0485 93.2212 11.3431 92.9157 11.7008C92.6102 12.0586 92.3454 12.5006 92.1621 13.0056C91.9788 13.5107 91.877 14.0789 91.877 14.6892V14.7524C91.877 15.3627 91.9788 15.9309 92.1621 16.436C92.3454 16.941 92.6102 17.383 92.9157 17.7408C93.2212 18.0985 93.5878 18.3932 94.0155 18.5826C94.4433 18.772 94.8913 18.8772 95.3801 18.8772C95.869 18.8772 96.317 18.772 96.7448 18.5826C97.1725 18.3932 97.5391 18.0985 97.865 17.7408C98.1908 17.383 98.4352 16.941 98.6389 16.436C98.8222 15.9309 98.9241 15.3627 98.9241 14.7313V14.6892Z" fill="#141414"/>
<path d="M120.33 17.7618C119.943 18.6878 119.393 19.5085 118.68 20.2241C117.988 20.9186 117.153 21.4868 116.196 21.8866C115.238 22.2865 114.2 22.4969 113.079 22.4969C111.959 22.4969 110.941 22.3075 109.984 21.9077C109.026 21.5078 108.212 20.9606 107.519 20.2662C106.827 19.5717 106.277 18.7509 105.89 17.8249C105.503 16.899 105.299 15.8888 105.299 14.8155V14.7524C105.299 13.6791 105.503 12.6689 105.89 11.7429C106.277 10.817 106.827 9.9962 107.539 9.28067C108.232 8.58619 109.067 8.01797 110.024 7.61812C110.982 7.21826 112.02 7.00781 113.14 7.00781C114.261 7.00781 115.279 7.19722 116.236 7.59707C117.194 7.99693 118.008 8.5441 118.701 9.23858C119.393 9.93307 119.943 10.7538 120.33 11.6798C120.717 12.6058 120.921 13.6159 120.921 14.6892V14.7524C120.921 15.8257 120.717 16.8358 120.33 17.7618ZM116.888 14.7524C116.888 14.2052 116.807 13.6791 116.623 13.174C116.44 12.69 116.175 12.248 115.849 11.8692C115.503 11.4904 115.096 11.1958 114.648 10.9643C114.179 10.7328 113.67 10.6276 113.12 10.6276C112.529 10.6276 112 10.7328 111.552 10.9432C111.104 11.1537 110.696 11.4483 110.391 11.8271C110.065 12.2059 109.821 12.6268 109.658 13.1109C109.495 13.5949 109.393 14.121 109.393 14.6892V14.7524C109.393 15.2995 109.474 15.8257 109.658 16.3307C109.841 16.8148 110.106 17.2567 110.432 17.6355C110.778 18.0143 111.165 18.309 111.633 18.5405C112.081 18.772 112.611 18.8772 113.181 18.8772C113.772 18.8772 114.301 18.772 114.75 18.5615C115.198 18.3511 115.605 18.0564 115.91 17.6776C116.236 17.2988 116.481 16.8779 116.644 16.3939C116.807 15.9098 116.908 15.3837 116.908 14.8155V14.7524H116.888Z" fill="#141414"/>
<path d="M137.418 18.9823C137.072 19.74 136.604 20.3713 135.993 20.8764C135.382 21.3815 134.669 21.7813 133.834 22.0339C132.999 22.3074 132.062 22.4337 131.043 22.4337C129.618 22.4337 128.192 22.1812 126.827 21.6761C125.442 21.171 124.2 20.3923 123.059 19.3191L125.503 16.2886C126.359 17.0041 127.255 17.5934 128.151 18.0143C129.047 18.4352 130.045 18.6456 131.125 18.6456C131.98 18.6456 132.652 18.4773 133.121 18.1616C133.589 17.8459 133.834 17.3829 133.834 16.8147V16.7516C133.834 16.478 133.793 16.2254 133.691 16.015C133.589 15.8045 133.406 15.5941 133.121 15.4257C132.836 15.2363 132.449 15.0469 131.96 14.8786C131.471 14.6892 130.819 14.4997 130.025 14.2893C129.068 14.0578 128.212 13.7842 127.438 13.4896C126.664 13.195 126.013 12.8372 125.463 12.3952C124.913 11.9533 124.505 11.4272 124.2 10.7748C123.894 10.1224 123.752 9.32268 123.752 8.35461V8.29147C123.752 7.40759 123.915 6.60788 124.241 5.89235C124.567 5.17682 125.015 4.56651 125.585 4.04039C126.155 3.51426 126.848 3.11441 127.662 2.84082C128.457 2.56724 129.353 2.41992 130.33 2.41992C131.715 2.41992 132.978 2.63037 134.139 3.05127C135.3 3.47217 136.359 4.08248 137.337 4.88219L135.178 8.10207C134.343 7.51281 133.508 7.04982 132.693 6.69206C131.878 6.35534 131.084 6.18698 130.269 6.18698C129.455 6.18698 128.864 6.35534 128.457 6.67101C128.049 6.98669 127.846 7.40759 127.846 7.87057V7.93371C127.846 8.24938 127.907 8.52297 128.029 8.75446C128.151 8.98596 128.355 9.19641 128.66 9.38581C128.966 9.57522 129.394 9.74358 129.923 9.91194C130.453 10.0803 131.125 10.2697 131.939 10.5012C132.897 10.7537 133.732 11.0484 134.485 11.3851C135.239 11.7008 135.87 12.1006 136.38 12.5426C136.889 13.0056 137.276 13.5317 137.54 14.142C137.805 14.7523 137.927 15.4889 137.927 16.3307V16.4148C137.927 17.3829 137.765 18.2458 137.418 18.9823Z" fill="#336AEA"/>
<path d="M150.107 22.1811V20.0345C149.883 20.3502 149.618 20.6448 149.333 20.9395C149.048 21.2341 148.742 21.4866 148.396 21.7181C148.05 21.9496 147.683 22.118 147.276 22.2442C146.869 22.3705 146.4 22.4336 145.871 22.4336C144.302 22.4336 143.101 21.9496 142.245 20.9605C141.39 19.9714 140.962 18.6245 140.962 16.8988V7.28125H145.056V15.573C145.056 16.5621 145.28 17.3197 145.708 17.8248C146.135 18.3299 146.746 18.5824 147.541 18.5824C148.335 18.5824 148.946 18.3299 149.415 17.8248C149.863 17.3197 150.107 16.5621 150.107 15.573V7.28125H154.201V22.1811H150.107Z" fill="#336AEA"/>
<path d="M172.45 18.0564C172.083 19.0035 171.595 19.8242 171.004 20.4766C170.393 21.129 169.7 21.6341 168.927 21.9708C168.132 22.3075 167.317 22.4759 166.442 22.4759C165.342 22.4759 164.446 22.2654 163.733 21.8235C163.02 21.3815 162.429 20.8765 161.941 20.2872V26.6638H157.847V7.2814H161.941V9.40694C162.45 8.71246 163.04 8.14424 163.753 7.68125C164.466 7.23931 165.362 7.00781 166.421 7.00781C167.256 7.00781 168.071 7.17617 168.865 7.51289C169.66 7.84961 170.352 8.33365 170.963 9.00709C171.574 9.65948 172.063 10.4802 172.43 11.4273C172.796 12.3743 172.98 13.4897 172.98 14.7313V14.7945C173 15.994 172.817 17.0884 172.45 18.0564ZM168.906 14.6892C168.906 14.0789 168.804 13.5107 168.621 13.0056C168.438 12.5006 168.173 12.0586 167.847 11.7008C167.521 11.3431 167.155 11.0485 166.727 10.859C166.299 10.6696 165.851 10.5644 165.362 10.5644C164.873 10.5644 164.425 10.6696 163.998 10.859C163.57 11.0485 163.203 11.3431 162.898 11.7008C162.592 12.0586 162.327 12.5006 162.144 13.0056C161.961 13.5107 161.859 14.0789 161.859 14.6892V14.7524C161.859 15.3627 161.961 15.9309 162.144 16.436C162.327 16.941 162.592 17.383 162.898 17.7408C163.203 18.0985 163.57 18.3932 163.998 18.5826C164.425 18.772 164.873 18.8772 165.362 18.8772C165.851 18.8772 166.299 18.772 166.727 18.5826C167.155 18.3932 167.521 18.0985 167.847 17.7408C168.173 17.383 168.417 16.941 168.621 16.436C168.804 15.9309 168.906 15.3627 168.906 14.7313V14.6892Z" fill="#336AEA"/>
<path d="M52.8125 16.1834C51.7738 17.4461 50.2259 18.2459 48.4946 18.2459C45.3784 18.2459 42.8325 15.6363 42.8325 12.3953C42.8325 9.17546 45.3581 6.54484 48.4946 6.54484C50.3888 6.54484 52.0589 7.49186 53.0773 8.96501L56.2342 6.35543C54.4623 3.93526 51.6516 2.37793 48.4946 2.37793C43.138 2.37793 38.7998 6.86051 38.7998 12.3953C38.7998 17.9302 43.138 22.4128 48.4946 22.4128C51.3461 22.4128 53.9124 21.1501 55.6843 19.1297L52.8125 16.1834Z" fill="#141414"/>
<path d="M45.3172 14.0997C46.2284 14.0997 46.967 13.3365 46.967 12.3951C46.967 11.4536 46.2284 10.6904 45.3172 10.6904C44.4061 10.6904 43.6675 11.4536 43.6675 12.3951C43.6675 13.3365 44.4061 14.0997 45.3172 14.0997Z" fill="#141414"/>
</g>
<defs>
<clipPath id="clip0_72_204">
<rect width="173" height="29" fill="white"/>
</clipPath>
</defs>
</svg>
