<svg width="217" height="39" viewBox="0 0 217 39" fill="none" xmlns="http://www.w3.org/2000/svg">
<path d="M93.4067 23.8255C92.9279 24.979 92.2476 26.0014 91.3657 26.8927C90.509 27.7578 89.476 28.4656 88.2917 28.9637C87.1074 29.4618 85.8224 29.7239 84.4366 29.7239C83.0507 29.7239 81.7909 29.488 80.6066 28.9899C79.4223 28.4918 78.4145 27.8102 77.5578 26.9451C76.7011 26.08 76.0207 25.0577 75.542 23.9042C75.0632 22.7507 74.8113 21.4924 74.8113 20.1554V20.0768C74.8113 18.7398 75.0632 17.4815 75.542 16.3281C76.0207 15.1746 76.7011 14.1522 77.583 13.2609C78.4397 12.3958 79.4727 11.688 80.657 11.1899C81.8413 10.6918 83.1263 10.4297 84.5121 10.4297C85.898 10.4297 87.1578 10.6656 88.3421 11.1637C89.5264 11.6618 90.5342 12.3434 91.3909 13.2085C92.2476 14.0736 92.9279 15.096 93.4067 16.2494C93.8854 17.4029 94.1374 18.6612 94.1374 19.9982V20.0768C94.1374 21.4138 93.8854 22.6721 93.4067 23.8255ZM89.1232 20.0768C89.1232 19.3952 89.0224 18.7398 88.7956 18.1107C88.5689 17.5077 88.2413 16.9572 87.8382 16.4854C87.4098 16.0135 86.9059 15.6465 86.3515 15.3581C85.772 15.0697 85.1421 14.9387 84.4617 14.9387C83.731 14.9387 83.0759 15.0697 82.5216 15.3319C81.9672 15.594 81.4633 15.9611 81.0853 16.4329C80.6822 16.9048 80.3798 17.4291 80.1782 18.032C79.9767 18.635 79.8507 19.2904 79.8507 19.9982V20.0768C79.8507 20.7584 79.9515 21.4138 80.1782 22.0429C80.405 22.6459 80.7326 23.1964 81.1357 23.6683C81.5641 24.1401 82.0428 24.5071 82.6224 24.7955C83.1767 25.0839 83.8318 25.2149 84.5373 25.2149C85.2681 25.2149 85.9232 25.0839 86.4775 24.8217C87.0318 24.5596 87.5358 24.1926 87.9137 23.7207C88.3169 23.2488 88.6193 22.7245 88.8208 22.1216C89.0224 21.5186 89.1484 20.8633 89.1484 20.1554V20.0768H89.1232Z" fill="white"/>
<path d="M108.273 15.9342C106.585 15.9342 105.249 16.4585 104.292 17.5333C103.334 18.6081 102.855 20.2335 102.855 22.488V29.3563H97.7908V10.7699H102.855V14.5186C103.359 13.2603 104.065 12.2379 104.947 11.4777C105.829 10.7174 107.038 10.3766 108.55 10.4291V15.9342H108.273Z" fill="white"/>
<path d="M129.741 24.1926C129.287 25.3723 128.683 26.3946 127.952 27.2073C127.196 28.02 126.339 28.6491 125.382 29.0686C124.399 29.488 123.391 29.6977 122.308 29.6977C120.947 29.6977 119.838 29.4356 118.957 28.8851C118.075 28.3345 117.344 27.7054 116.739 26.9714V34.9145H111.675V10.7705H116.739V13.4182C117.369 12.5531 118.1 11.8453 118.982 11.2686C119.864 10.7181 120.972 10.4297 122.283 10.4297C123.316 10.4297 124.323 10.6394 125.306 11.0588C126.289 11.4783 127.146 12.0812 127.901 12.9201C128.657 13.7328 129.262 14.7552 129.716 15.9348C130.169 17.1145 130.396 18.5039 130.396 20.0506V20.1292C130.446 21.6235 130.22 22.9867 129.741 24.1926ZM125.382 19.9982C125.382 19.2379 125.256 18.5301 125.029 17.901C124.802 17.2718 124.475 16.7213 124.072 16.2756C123.668 15.83 123.215 15.463 122.686 15.227C122.157 14.9911 121.602 14.86 120.997 14.86C120.393 14.86 119.838 14.9911 119.309 15.227C118.78 15.463 118.327 15.83 117.949 16.2756C117.571 16.7213 117.243 17.2718 117.016 17.901C116.79 18.5301 116.664 19.2379 116.664 19.9982V20.0768C116.664 20.8371 116.79 21.5449 117.016 22.174C117.243 22.8032 117.571 23.3537 117.949 23.7993C118.327 24.245 118.78 24.612 119.309 24.8479C119.838 25.0839 120.393 25.215 120.997 25.215C121.602 25.215 122.157 25.0839 122.686 24.8479C123.215 24.612 123.668 24.245 124.072 23.7993C124.475 23.3537 124.777 22.8032 125.029 22.174C125.256 21.5449 125.382 20.8371 125.382 20.0506V19.9982Z" fill="white"/>
<path d="M151.864 23.8255C151.385 24.979 150.705 26.0014 149.823 26.8927C148.966 27.7578 147.933 28.4656 146.749 28.9637C145.564 29.4618 144.279 29.7239 142.894 29.7239C141.508 29.7239 140.248 29.488 139.064 28.9899C137.879 28.4918 136.871 27.8102 136.015 26.9451C135.158 26.08 134.478 25.0577 133.999 23.9042C133.52 22.7507 133.268 21.4924 133.268 20.1554V20.0768C133.268 18.7398 133.52 17.4815 133.999 16.3281C134.478 15.1746 135.158 14.1522 136.04 13.2609C136.897 12.3958 137.93 11.688 139.114 11.1899C140.298 10.6918 141.583 10.4297 142.969 10.4297C144.355 10.4297 145.615 10.6656 146.799 11.1637C147.983 11.6618 148.991 12.3434 149.848 13.2085C150.705 14.0736 151.385 15.096 151.864 16.2494C152.342 17.4029 152.594 18.6612 152.594 19.9982V20.0768C152.594 21.4138 152.342 22.6721 151.864 23.8255ZM147.605 20.0768C147.605 19.3952 147.505 18.7398 147.278 18.1107C147.051 17.5077 146.724 16.9572 146.32 16.4854C145.892 16.0135 145.388 15.6465 144.834 15.3581C144.254 15.0697 143.624 14.9387 142.944 14.9387C142.213 14.9387 141.558 15.0697 141.004 15.3319C140.449 15.594 139.946 15.9611 139.568 16.4329C139.164 16.9048 138.862 17.4291 138.66 18.032C138.459 18.635 138.333 19.2904 138.333 19.9982V20.0768C138.333 20.7584 138.434 21.4138 138.66 22.0429C138.887 22.6459 139.215 23.1964 139.618 23.6683C140.046 24.1401 140.525 24.5071 141.105 24.7955C141.659 25.0839 142.314 25.2149 143.02 25.2149C143.75 25.2149 144.405 25.0839 144.96 24.8217C145.514 24.5596 146.018 24.1926 146.396 23.7207C146.799 23.2488 147.101 22.7245 147.303 22.1216C147.505 21.5186 147.631 20.8633 147.631 20.1554V20.0768H147.605Z" fill="white"/>
<path d="M173.004 25.3441C172.576 26.2878 171.996 27.0743 171.24 27.7034C170.484 28.3326 169.603 28.8307 168.569 29.1453C167.536 29.4861 166.377 29.6434 165.117 29.6434C163.354 29.6434 161.59 29.3288 159.902 28.6996C158.188 28.0705 156.651 27.1005 155.24 25.7635L158.264 21.9886C159.322 22.8799 160.431 23.6139 161.539 24.1382C162.648 24.6625 163.883 24.9247 165.218 24.9247C166.277 24.9247 167.108 24.7149 167.688 24.3217C168.267 23.9285 168.569 23.3518 168.569 22.6439V22.5653C168.569 22.2245 168.519 21.9099 168.393 21.6478C168.267 21.3856 168.04 21.1235 167.688 20.9138C167.335 20.6778 166.856 20.4419 166.251 20.2322C165.647 19.9962 164.84 19.7603 163.858 19.4981C162.673 19.2098 161.615 18.869 160.658 18.502C159.7 18.135 158.894 17.6893 158.213 17.1388C157.533 16.5883 157.029 15.9329 156.651 15.1202C156.273 14.3076 156.097 13.3114 156.097 12.1055V12.0269C156.097 10.9258 156.299 9.92967 156.702 9.03836C157.105 8.14706 157.659 7.38682 158.365 6.73145C159.07 6.07607 159.927 5.57799 160.935 5.23719C161.917 4.8964 163.026 4.71289 164.236 4.71289C165.949 4.71289 167.511 4.97504 168.947 5.49934C170.384 6.02364 171.694 6.78388 172.903 7.78005L170.232 11.7909C169.199 11.0569 168.166 10.4802 167.158 10.0345C166.151 9.61509 165.168 9.40538 164.16 9.40538C163.152 9.40538 162.421 9.6151 161.917 10.0083C161.414 10.4015 161.162 10.9258 161.162 11.5026V11.5812C161.162 11.9744 161.237 12.3152 161.388 12.6036C161.539 12.892 161.791 13.1541 162.169 13.3901C162.547 13.626 163.077 13.8357 163.732 14.0454C164.387 14.2551 165.218 14.4911 166.226 14.7794C167.41 15.094 168.443 15.461 169.376 15.8805C170.308 16.2737 171.089 16.7718 171.719 17.3223C172.349 17.899 172.828 18.5544 173.155 19.3146C173.483 20.0749 173.634 20.9924 173.634 22.041V22.1459C173.634 23.3518 173.432 24.4266 173.004 25.3441Z" fill="white"/>
<path d="M188.702 29.3307V26.6568C188.425 27.05 188.097 27.417 187.744 27.784C187.392 28.151 187.014 28.4656 186.585 28.754C186.157 29.0424 185.703 29.2521 185.2 29.4094C184.696 29.5667 184.116 29.6453 183.461 29.6453C181.521 29.6453 180.034 29.0424 178.976 27.8102C177.918 26.5781 177.388 24.9004 177.388 22.7508V10.7705H182.453V21.0992C182.453 22.3313 182.73 23.2751 183.259 23.9042C183.788 24.5334 184.544 24.848 185.527 24.848C186.51 24.848 187.266 24.5334 187.845 23.9042C188.4 23.2751 188.702 22.3313 188.702 21.0992V10.7705H193.767V29.3307H188.702Z" fill="white"/>
<path d="M216.343 24.1926C215.889 25.3722 215.285 26.3946 214.554 27.2073C213.798 28.02 212.941 28.6491 211.984 29.0686C211.001 29.488 209.993 29.6977 208.91 29.6977C207.549 29.6977 206.44 29.4356 205.559 28.8851C204.677 28.3345 203.946 27.7054 203.341 26.9714V34.9145H198.277V10.7705H203.341V13.4182C203.971 12.5531 204.702 11.8453 205.584 11.2686C206.466 10.7181 207.574 10.4297 208.885 10.4297C209.918 10.4297 210.926 10.6394 211.908 11.0588C212.891 11.4783 213.748 12.0812 214.504 12.9201C215.259 13.7328 215.864 14.7552 216.318 15.9348C216.771 17.1145 216.998 18.5039 216.998 20.0506V20.1292C217.023 21.6235 216.796 22.9867 216.343 24.1926ZM211.959 19.9982C211.959 19.2379 211.833 18.5301 211.606 17.901C211.379 17.2718 211.052 16.7213 210.648 16.2756C210.245 15.83 209.792 15.463 209.263 15.227C208.733 14.9911 208.179 14.86 207.574 14.86C206.97 14.86 206.415 14.9911 205.886 15.227C205.357 15.463 204.903 15.83 204.525 16.2756C204.148 16.7213 203.82 17.2718 203.593 17.901C203.366 18.5301 203.24 19.2379 203.24 19.9982V20.0768C203.24 20.837 203.366 21.5449 203.593 22.174C203.82 22.8032 204.148 23.3537 204.525 23.7993C204.903 24.245 205.357 24.612 205.886 24.8479C206.415 25.0839 206.97 25.215 207.574 25.215C208.179 25.215 208.733 25.0839 209.263 24.8479C209.792 24.612 210.245 24.245 210.648 23.7993C211.052 23.3537 211.354 22.8032 211.606 22.174C211.833 21.5449 211.959 20.837 211.959 20.0506V19.9982Z" fill="white"/>
<path d="M68.3356 21.8592C67.0505 23.4321 65.1355 24.4282 62.9938 24.4282C59.1386 24.4282 55.989 21.1776 55.989 17.1405C55.989 13.1296 59.1135 9.85268 62.9938 9.85268C65.3371 9.85268 67.4033 11.0324 68.6631 12.8674L72.5687 9.61675C70.3765 6.60202 66.8993 4.66211 62.9938 4.66211C56.367 4.66211 51 10.2459 51 17.1405C51 24.035 56.367 29.6188 62.9938 29.6188C66.5214 29.6188 69.6962 28.0459 71.8883 25.5293L68.3356 21.8592Z" fill="white"/>
<path d="M59.0632 19.2634C60.1904 19.2634 61.1041 18.3127 61.1041 17.14C61.1041 15.9673 60.1904 15.0166 59.0632 15.0166C57.936 15.0166 57.0222 15.9673 57.0222 17.14C57.0222 18.3127 57.936 19.2634 59.0632 19.2634Z" fill="white"/>
<path d="M19.5135 19.3686C18.0561 21.1377 15.8969 22.2609 13.4948 22.2609C9.14948 22.2609 5.61384 18.5824 5.61384 14.0615C5.61384 9.54061 9.14948 5.86213 13.4948 5.86213C16.1128 5.86213 18.4609 7.20997 19.8913 9.25981L24.2637 5.58133C21.8076 2.21173 17.8941 0.0214844 13.4948 0.0214844C6.04567 0.0214844 0 6.31141 0 14.0615C0 21.8116 6.04567 28.1015 13.4948 28.1015C17.4623 28.1015 21.0249 26.3325 23.508 23.4964L19.5135 19.3686Z" fill="white"/>
<path d="M9.04143 16.4484C10.3084 16.4484 11.3355 15.3798 11.3355 14.0616C11.3355 12.7434 10.3084 11.6748 9.04143 11.6748C7.77443 11.6748 6.74731 12.7434 6.74731 14.0616C6.74731 15.3798 7.77443 16.4484 9.04143 16.4484Z" fill="white"/>
<path d="M19.4865 19.3679C20.9439 17.5988 23.0761 16.4756 25.4782 16.4756C29.8235 16.4756 33.3592 20.1541 33.3592 24.675C33.3592 29.1959 29.8235 32.8744 25.4782 32.8744C22.8602 32.8744 20.5121 31.5265 19.0817 29.4767L14.7363 33.1552C17.1924 36.5529 21.1059 38.7431 25.5052 38.7431C32.9543 38.7431 39 32.4532 39 24.7031C39 16.953 32.9543 10.6631 25.5052 10.6631C21.5377 10.6631 17.9751 12.4321 15.492 15.2682L19.4865 19.3679Z" fill="white"/>
<path d="M29.9584 27.0627C31.2254 27.0627 32.2525 25.9941 32.2525 24.6759C32.2525 23.3577 31.2254 22.2891 29.9584 22.2891C28.6914 22.2891 27.6643 23.3577 27.6643 24.6759C27.6643 25.9941 28.6914 27.0627 29.9584 27.0627Z" fill="white"/>
</svg>
