<svg width="125" height="183" viewBox="0 0 125 183" fill="none" xmlns="http://www.w3.org/2000/svg">
<g clip-path="url(#clip0_124_2168)">
<path d="M57.8146 98.2715C63.6761 102.304 75.3102 99.2701 84.287 88.4496C83.2825 88.1842 82.278 87.9187 81.2862 87.6406C73.8226 95.8571 64.5662 98.2968 59.6074 95.0102C58.6665 94.3908 56.7338 92.798 55.7166 88.9047C54.852 88.9679 53.9747 89.0438 53.1101 89.107C53.962 95.3641 56.9118 97.6395 57.8146 98.2715Z" fill="#FFAF20"/>
<path d="M11.0111 31.2491C10.2482 31.3375 9.6633 31.9949 9.6633 32.7912V40.2998C9.6633 40.7296 9.99389 41.0709 10.4135 41.0709H15.5503C15.9572 41.0709 16.3005 40.7296 16.3005 40.2998V37.4177C16.3005 36.4823 16.8091 35.6354 17.6228 35.2183C19.2249 34.384 20.6617 33.3095 21.895 32.0201C27.07 26.6225 26.803 19.3036 26.7902 19.0002C26.6504 15.8147 25.6332 12.7051 23.8404 9.99998C22.9376 8.63478 20.7252 5.70212 16.9616 3.9577C14.3169 2.71891 11.7994 2.5293 11.0238 2.47873C10.8076 2.46609 10.6169 2.45345 10.4262 2.45345C10.0066 2.44081 9.6633 2.79475 9.6633 3.22454V7.53503C9.6633 8.0533 10.0447 8.49573 10.5533 8.55893C10.8712 8.59685 11.1764 8.63478 11.4942 8.69798C15.9063 9.59547 20.6362 13.8048 20.6998 19.8092C20.7634 25.6113 16.3895 29.8207 12.4351 30.9457C11.9393 31.11 11.4561 31.1985 11.0111 31.2491Z" fill="#FFAF20"/>
<path d="M12.8039 55.6347C14.8193 55.6347 16.4531 54.0104 16.4531 52.0068C16.4531 50.0032 14.8193 48.3789 12.8039 48.3789C10.7885 48.3789 9.15471 50.0032 9.15471 52.0068C9.15471 54.0104 10.7885 55.6347 12.8039 55.6347Z" fill="#FFAF20"/>
<path d="M46.1042 64.9592C47.4011 65.9957 48.9269 66.4761 50.4908 66.83C50.618 66.8553 50.8722 66.9058 51.152 66.7794C51.6351 66.5645 51.9657 65.8946 51.8259 65.3763C51.7369 65.035 51.4571 64.8454 51.1647 64.6558C49.3719 63.5181 48.8124 63.6066 48.6853 63.2147C48.4183 62.3805 50.7578 61.5588 51.3808 59.2076C51.5207 58.6767 51.4699 58.4618 51.4571 57.223C51.419 52.0783 52.1183 50.7383 50.885 49.8535C50.5544 49.626 50.1984 49.5754 50.1984 49.5754C50.1094 49.5627 49.7661 49.5248 49.499 49.6892C49.0922 49.9293 49.0159 50.5487 48.9904 50.8774C48.8887 51.9518 48.876 54.5179 48.7997 59.334C48.4437 59.688 47.6808 60.4717 46.9052 61.2554C46.5238 61.6473 46.155 62.0644 45.799 62.7091C45.3413 63.556 45.3286 64.3398 46.1042 64.9592Z" fill="#336AEA"/>
<path d="M46.778 56.0346C46.8416 56.0725 47.2358 56.2748 47.5155 56.1105C47.5155 56.1105 47.7952 55.9461 47.9478 55.5796C48.2784 54.8085 47.6299 53.5191 47.6299 53.5191C47.4138 53.0893 46.0406 50.3589 43.8155 50.4474C43.1289 50.4727 42.6203 50.7634 42.3787 50.9151C40.1409 52.2298 39.4161 55.8577 40.5859 57.3998C40.6876 57.5262 40.9673 57.8928 41.4759 58.0951C42.3533 58.4364 43.2306 58.0066 43.5103 57.8675C45.3667 56.97 45.5447 54.2776 45.5447 54.0753C45.6846 54.2396 45.8753 54.5051 46.066 54.859C46.422 55.5164 46.4347 55.845 46.778 56.0346ZM42.3406 56.3127C42.2134 56.3506 42.0354 56.4012 41.8828 56.3127C41.2598 55.9082 41.8955 53.0388 43.1289 52.748C43.2306 52.7227 43.4213 52.6848 43.5866 52.786C44.2224 53.2284 43.6248 55.9335 42.3406 56.3127Z" fill="#336AEA"/>
<path d="M87.0207 55.5553C87.3131 55.2014 87.1097 54.3797 86.6646 53.8994C85.7619 52.9513 83.8038 53.3306 82.6722 53.8362C82.6722 53.8362 79.6079 55.214 79.4171 59.0695C79.4044 59.2464 79.3917 59.6509 79.646 59.8658C79.8749 60.0681 80.2182 60.0302 80.2945 60.0175C81.2354 59.9038 81.6931 58.2984 81.7185 58.2225C82.1509 58.3489 82.6467 58.5638 82.7993 58.981C83.1045 59.8279 81.744 60.738 82.0618 61.3448C82.278 61.7746 83.257 61.8883 83.8801 61.5344C85.0117 60.9024 85.2151 58.6523 84.1979 57.4641C83.8038 56.9964 83.2952 56.7941 82.99 56.693C83.5241 56.2759 84.287 55.8208 85.2406 55.7197C86.1433 55.6312 86.7409 55.9093 87.0207 55.5553Z" fill="#336AEA"/>
<path d="M29.3968 64.5684C30.7191 64.126 31.8635 63.9869 32.6518 63.949C35.4109 63.81 37.4072 64.6822 37.8268 64.8718C38.3608 65.112 38.7804 65.3521 39.0601 65.5291C39.0855 65.5291 39.3526 65.567 39.556 65.3648C39.7086 65.2131 39.7467 64.9729 39.6704 64.7707C39.467 63.2664 39.3144 61.6484 39.2381 59.9419C39.0601 55.4924 39.4924 51.5485 40.1154 48.2871C40.7639 48.2998 41.5395 48.2871 42.4168 48.2619C45.4303 48.1481 46.5746 47.8194 47.4901 47.2885C48.2911 46.8208 48.5708 46.391 48.6471 45.9865C48.7234 45.582 48.5708 45.2281 48.5073 45.1143C47.8334 43.7491 44.6038 43.9261 42.0481 44.0651C41.4124 44.1031 40.891 44.141 40.535 44.1789C40.7385 42.9401 40.9419 41.6887 41.1326 40.4499C42.7347 39.9948 45.8626 38.8572 48.5708 35.9751C49.944 34.5087 50.8087 33.0298 51.3427 31.8668C52.6142 29.6547 54.4451 26.9749 57.0644 24.295C61.4892 19.7823 66.1682 17.3047 69.3088 15.9774C68.9909 15.6488 68.4951 15.181 67.8212 14.7386C65.7232 13.3608 63.5744 13.2344 62.5063 13.2344C58.6156 13.2597 55.1826 15.0294 52.7032 16.3566C50.9612 17.2794 46.9561 19.58 43.1289 23.7262C41.2089 25.7993 40.1536 27.569 39.8866 28.0114C39.4416 28.7572 38.1319 30.982 37.0003 34.6604C35.6271 39.1353 35.1948 43.5216 35.0931 46.8335C35.0549 48.1987 34.3937 49.4627 33.313 50.3097C31.6219 51.6243 29.2951 54.0513 28.6085 57.7424C28.049 60.8647 28.9136 63.4181 29.3968 64.5684Z" fill="#336AEA"/>
<path d="M62.3156 55.1372C62.7352 55.9589 62.6971 56.6036 63.3583 57.1345C63.5235 57.2609 63.8923 57.5643 64.3246 57.4758C64.7696 57.3873 65.0112 56.9449 65.0748 56.8058C65.6342 55.7819 64.8078 54.0249 63.9686 52.9757C63.5871 52.4953 61.5782 49.9672 58.6156 50.536C56.0218 51.029 54.6231 53.5319 54.496 55.428C54.4706 55.8072 54.3434 57.6654 55.5259 58.4997C55.9836 58.8157 56.4541 58.8663 56.6448 58.8915C58.4757 59.0559 59.849 57.1218 60.0397 56.8437C60.9424 55.5417 60.9551 54.1639 60.9297 53.5572C61.6926 54.1133 62.0995 54.6948 62.3156 55.1372ZM57.1661 56.8817C57.0771 56.8943 56.8101 56.9575 56.6194 56.8185C56.5812 56.7932 56.4159 56.6668 56.3524 56.3128C56.1871 55.2763 56.9372 53.5445 57.8909 52.963C57.9671 52.9125 58.1706 52.8113 58.4122 52.8493C58.4122 52.8493 58.7046 52.8872 58.9208 53.1021C59.5692 53.7468 58.196 56.6794 57.1661 56.8817Z" fill="#336AEA"/>
<path d="M11.6214 28.5428C10.9094 28.7324 10.2228 28.7956 9.58701 28.7956C9.54886 28.7956 9.498 28.7956 9.45986 28.7956C8.04851 28.7703 6.89145 29.908 6.89145 31.3238V40.5515C6.89145 42.1822 8.22652 43.5094 9.86674 43.5094H15.7664C17.4067 43.5094 18.7417 42.1822 18.7417 40.5515V38.8576C18.7417 37.9854 19.1995 37.1764 19.9624 36.7214C21.1194 36.0261 22.4799 35.0654 23.815 33.7255C29.88 27.62 29.6384 19.5552 29.6002 18.86C29.2442 11.3893 24.527 4.70236 17.9661 1.71914C14.9527 0.353941 12.0791 0 9.85402 0C9.63787 0 9.43443 0 9.24371 0.0126407C7.92136 0.050563 6.87874 1.12503 6.87874 2.42702V8.76003C6.87874 10.0115 7.90864 11.0227 9.18013 11.0101C9.19285 11.0101 9.19285 11.0101 9.20556 11.0101C9.70144 11.0101 10.2228 11.048 10.7822 11.1618C14.3297 11.857 18.2458 15.131 18.2967 19.8586C18.3476 24.1565 15.1688 27.62 11.6214 28.5428ZM20.7125 19.8207C20.649 13.8037 15.919 9.60696 11.507 8.70947C11.2018 8.64627 10.8839 8.59571 10.5661 8.57042C10.0575 8.51986 9.67601 8.07743 9.67601 7.54652V3.22339C9.67601 2.7936 10.0193 2.43966 10.4389 2.4523C10.6169 2.4523 10.8204 2.46494 11.0365 2.47759C11.8121 2.52815 14.3169 2.71776 16.9871 3.94391C20.7507 5.67569 22.9631 8.62099 23.8658 9.98619C25.6586 12.6913 26.6758 15.8009 26.8157 18.9864C26.8284 19.2898 27.0954 26.6088 21.9204 32.0064C20.6871 33.2957 19.2503 34.3702 17.6482 35.2045C16.8345 35.6216 16.3259 36.4812 16.3259 37.404V40.286C16.3259 40.7158 15.9953 41.0571 15.5757 41.0571H10.4135C10.0066 41.0571 9.6633 40.7158 9.6633 40.286V32.7774C9.6633 31.9811 10.2355 31.3238 11.0111 31.2353C11.4561 31.1847 11.9393 31.0962 12.4479 30.9572C16.4022 29.8321 20.7761 25.6228 20.7125 19.8207Z" fill="#336AEA"/>
<path d="M12.8039 58.2236C16.2623 58.2236 19.0596 55.4427 19.0596 52.0044C19.0596 48.5661 16.2623 45.7852 12.8039 45.7852C9.34543 45.7852 6.54816 48.5661 6.54816 52.0044C6.54816 55.4427 9.34543 58.2236 12.8039 58.2236ZM12.8039 48.3765C14.8128 48.3765 16.453 50.0072 16.453 52.0044C16.453 54.0016 14.8128 55.6323 12.8039 55.6323C10.7949 55.6323 9.15471 54.0016 9.15471 52.0044C9.15471 50.0072 10.7949 48.3765 12.8039 48.3765Z" fill="#336AEA"/>
<path d="M124.911 87.6245C125.559 80.8744 122.47 74.2127 116.913 70.0539C115.705 69.1438 115.171 67.6016 115.54 66.1479C116.354 62.9751 117.015 57.3247 113.557 52.1546C111.204 48.6405 107.987 46.8708 105.89 46.0238C104.821 45.5941 103.982 44.7345 103.588 43.66C102.279 40.1206 100.969 36.5939 99.6592 33.0544C98.2225 29.1864 95.7685 25.7734 92.5516 23.182L92.5135 23.1567C92.5135 23.1567 82.5832 15.408 76.3783 15.1931C75.8443 15.1804 75.323 15.2436 75.323 15.2436C73.6573 15.4206 72.3223 15.9515 71.3559 16.4445C68.9401 17.8224 66.9947 19.0611 65.6215 19.9839C55.5259 26.7467 53.873 30.8044 53.3644 32.9028C53.2881 33.2188 53.2499 33.3957 53.2245 33.6486C52.8303 38.0855 59.5565 41.8145 62.4682 43.2808C61.7307 43.2934 61.1459 43.2934 60.739 43.2808C60.3957 43.2682 60.1287 43.2682 59.6709 43.2682C59.3022 43.2682 58.9589 43.2682 58.5775 43.2808C56.6448 43.3187 55.6785 43.4199 55.1572 44.0772C54.7248 44.6207 54.6358 45.455 54.9029 46.0744C55.0809 46.4916 55.386 46.757 55.6403 46.934C57.039 47.8947 59.0479 47.8441 63.8923 47.4396C64.1339 47.4143 64.6679 47.3764 65.2273 47.0477C65.7614 46.7317 66.0792 46.3019 66.2572 46.0238C67.4016 46.9466 68.6349 47.8694 69.97 48.7922C73.1106 50.9537 76.1494 52.6223 78.9213 53.9243C81.5405 51.1686 84.9227 50.2079 87.3131 51.3582C87.4911 51.4467 89.1059 52.2557 89.7416 54.076C91.2038 58.2601 86.3468 64.5552 81.6041 64.7827C80.6632 64.8333 79.8876 64.631 79.4299 64.4793C79.1629 64.9344 78.756 65.617 78.2347 66.4386C75.8697 70.1297 73.2631 74.2001 68.8257 77.2086C65.9139 79.1805 63.3455 79.9263 60.1414 80.8617C55.7802 82.1258 53.3771 82.8211 50.7069 81.8351C47.3121 80.5836 45.5574 77.3855 44.8072 75.6664C44.8072 75.6664 44.7055 75.54 44.5529 75.5526C44.4131 75.5653 44.3495 75.6917 44.3368 75.7043C43.2306 78.3209 42.1244 80.9629 41.0182 83.6427C40.357 85.2481 39.7086 86.8408 39.0728 88.4335C38.8948 88.8633 38.6532 89.2552 38.3227 89.5965C36.3773 91.6696 34.3429 94.0207 32.3085 96.6753C30.503 99.0265 28.9391 101.314 27.5659 103.476L28.2525 96.5363C28.2906 96.1191 28.4686 95.7399 28.7483 95.4365C28.9645 95.209 29.2061 94.9435 29.4731 94.6528C29.88 94.1977 31.1515 92.7819 32.3085 91.2777C33.6309 89.5459 34.9914 87.7636 36.1103 85.2101C36.7587 83.7185 37.4326 81.7213 38.3989 80.0022C38.9075 79.092 39.1873 78.6243 39.1873 78.6243C39.6577 77.8027 39.8993 77.4108 40.3443 76.6271C40.8529 75.7043 40.9928 75.3883 41.1199 75.0091C41.2725 74.5287 41.3361 74.1116 41.3742 73.8208C42.7983 73.3911 45.3921 72.9739 46.8289 72.5315C47.1086 72.5947 47.5282 72.6958 48.0241 72.7969C49.2193 73.0245 50.0076 73.0877 50.7832 73.0118C51.4444 72.936 52.1437 72.8222 52.2582 71.9121C52.3217 71.4191 52.2073 71.0019 51.9657 70.6986C51.7241 70.3826 51.4063 70.2688 51.2028 70.1929C49.8805 69.7505 46.7018 69.4724 46.4347 69.4471C43.6502 70.0792 39.6959 70.6859 36.9113 71.318C36.9113 71.1536 36.8986 70.9135 36.8732 70.6101C36.7841 69.4851 36.7206 68.7519 36.3773 68.2336C35.589 67.058 33.5164 67.3741 33.2621 67.412C32.2449 67.5763 31.5202 68.0946 31.1769 68.3727C30.7319 68.221 29.7401 67.9682 28.5449 68.2589C27.0445 68.6255 26.1545 69.6115 25.8621 69.9654C25.4552 69.8011 24.5016 69.4977 23.3064 69.7252C21.8569 70.0033 20.9668 70.9135 20.6744 71.2295C19.9751 71.2042 18.9197 71.2421 17.75 71.6213C13.7194 72.9486 12.1427 77.0948 11.8375 77.9291C10.9221 80.3435 11.0365 82.4418 11.1001 83.3899C11.2654 85.9939 12.4606 92.5039 12.486 93.1865C12.4987 93.5151 12.4351 93.8311 12.4351 93.8311C12.4224 93.8943 12.397 94.046 12.3334 94.223C11.1255 97.636 9.47258 102.338 7.57806 107.976C2.16152 124.156 0.292436 131.399 0.0254239 140.058C-0.241589 148.667 1.2842 152.547 3.82717 155.139C4.42477 155.745 7.03132 158.387 10.9221 158.767C16.4531 159.298 20.9287 154.911 28.3542 147.428C31.3295 144.432 33.5927 141.752 35.1439 139.818C35.7161 143.37 36.3264 146.96 36.9876 150.601C37.3436 152.56 37.6996 154.507 38.0556 156.441C38.2718 157.566 39.0601 158.489 40.1536 158.855C40.3316 158.918 40.5223 158.982 40.7131 159.032C42.7601 159.689 44.6547 160.056 46.3203 160.258C42.3533 160.713 38.3989 161.168 34.4319 161.623C33.7834 161.762 23.7895 163.962 20.1912 166.793C19.5046 167.337 18.2204 168.348 17.9916 169.966C17.8644 170.864 18.106 171.635 18.2967 172.077C17.3812 172.924 17.1142 174.214 17.5974 175.25C18.1823 176.476 19.5428 176.704 19.6572 176.716C19.6445 177.02 19.6318 178.271 20.56 179.32C21.9205 180.85 24.0311 180.483 24.1328 180.458C24.2981 180.926 24.6542 181.697 25.4043 182.266C25.7603 182.531 26.6885 183.125 28.6848 182.974C32.8044 182.658 40.8911 179.245 41.5522 178.954C43.9681 178.575 46.511 178.107 49.143 177.525C53.2372 176.615 57.0135 175.566 60.4465 174.454C66.0029 174.391 70.6184 174.264 73.9116 174.138C99.0744 173.253 106.08 170.409 113.023 167.35C116.125 165.984 118.045 163.722 118.045 163.722C118.21 163.52 118.35 163.355 118.426 163.254C118.426 163.254 119.126 162.091 119.482 160.688C122.66 148.351 119.24 124.144 119.24 124.144C117.727 115.472 115.515 106.687 114.892 104.247C114.752 103.691 114.637 103.236 114.561 102.945C115.311 102.541 123.957 97.636 124.911 87.6245ZM55.7166 88.9012C56.7338 92.7946 58.6665 94.3873 59.6074 95.0067C64.5662 98.2933 73.8226 95.8536 81.2862 87.6372C82.2907 87.9026 83.2952 88.1681 84.287 88.4462C75.3102 99.2667 63.6761 102.3 57.8146 98.268C56.9118 97.6486 53.962 95.3607 53.0973 89.1035C53.9747 89.0277 54.852 88.9644 55.7166 88.9012ZM58.7428 83.9208C63.5235 82.9222 67.0074 81.2283 69.1562 79.9895C72.1315 78.2704 73.7845 76.6903 74.2549 76.2226C75.8443 74.6551 76.9377 73.1256 77.6625 71.9626C78.1202 76.7788 78.5907 81.6075 79.0484 86.4237C78.0567 87.4981 76.5182 88.9518 74.3566 90.2791C72.6401 91.3283 65.7486 95.5376 61.4002 92.6682C60.7008 92.2131 59.3658 91.1007 58.5902 88.4588C58.641 86.9419 58.6919 85.4377 58.7428 83.9208ZM30.503 76.9684C30.9989 74.7689 31.4948 72.582 31.9906 70.3826C32.0542 70.0792 32.2322 69.8011 32.4865 69.6241C32.8044 69.3966 33.2748 69.1564 33.8597 69.1817C34.0504 69.1943 34.2157 69.2196 34.3683 69.2575C34.7116 69.3587 34.9278 69.7 34.9023 70.0665C34.7243 72.1775 34.2539 73.7829 33.8724 74.8195C33.5546 75.6917 33.0841 76.7282 32.1051 77.3855C31.9016 77.5246 31.0752 78.0681 30.6937 77.7521C30.4521 77.5625 30.4776 77.1706 30.503 76.9684ZM25.2772 78.8139C25.3408 76.4375 26.1418 73.4669 26.7521 71.4823C26.7775 71.3938 26.8157 71.3053 26.8665 71.2295C27.0573 70.9514 27.5277 70.3952 28.316 70.1803C28.7483 70.0665 29.1425 70.0918 29.4477 70.1424C29.7274 70.1929 29.9181 70.4837 29.8418 70.7871C28.8882 74.6172 28.2779 77.2465 28.1253 78.4221C28.1126 78.5358 28.049 78.9909 27.7439 79.4333C27.2353 80.1665 26.2054 80.6468 25.6841 80.3055C25.2772 80.0401 25.2645 79.3575 25.2772 78.8139ZM20.7507 77.0695C20.9541 76.1341 21.2466 74.7689 21.5771 73.075C21.628 72.8222 21.7424 72.5947 21.9077 72.4177C22.1747 72.127 22.6198 71.7604 23.2682 71.634C23.6878 71.5455 24.0566 71.5961 24.3363 71.6593C24.5779 71.7225 24.7304 71.9626 24.6796 72.2155C24.349 74.3138 23.9803 76.0583 23.6878 77.3602C22.9249 80.7606 22.429 81.9362 21.5263 82.2016C21.4627 82.2269 20.827 82.4039 20.3947 82.05C19.7462 81.5064 20.1022 80.1412 20.7507 77.0695ZM15.9953 75.6537C16.186 75.3251 16.8599 74.3138 18.1187 73.9472C18.6019 73.8082 19.0342 73.8082 19.352 73.8335C19.3012 74.2506 19.2249 74.8574 19.1105 75.5905C18.1314 82.3913 17.4575 82.9854 17.0252 83.0612C16.7582 83.1118 16.5166 82.9727 16.4149 82.9222C15.8936 82.6314 15.6266 81.9488 15.5121 80.6848C15.4231 79.6988 15.3977 77.9923 15.9953 75.6537ZM33.7199 130.236C33.8597 131.753 34.0886 133.864 34.47 136.393C34.4065 136.468 34.2793 136.645 34.1013 136.86C34.1013 136.86 21.6153 152.522 13.376 155.442C12.7022 155.682 11.7231 155.948 10.5406 155.834C8.18838 155.594 6.59902 153.951 6.00142 153.344C2.33953 149.577 2.68283 141.702 2.73369 140.589C3.29315 129.996 5.91241 121.514 8.68426 112.767C11.0492 105.309 13.0582 99.1023 14.5077 94.6528C14.6094 94.3494 14.6984 93.9196 14.673 93.414C14.6475 92.9336 14.5204 92.5923 14.495 92.4912C14.0372 89.9757 13.8084 88.7243 13.5795 87.2832C13.1726 84.6413 12.9819 83.3014 13.109 81.8224C13.2108 80.7353 13.4142 79.8631 13.5795 79.269C13.7194 80.9502 14.0499 82.2269 14.3297 83.0612C14.5331 83.6553 14.7493 84.1989 15.2833 84.5655C15.8682 84.97 16.5039 84.97 16.7201 84.9573C18.1823 84.8688 18.9579 83.3646 18.996 83.2761C19.3393 83.5795 19.8352 83.9081 20.4582 83.9966C21.7933 84.1862 23.2174 83.2382 24.0311 81.6075C24.2473 81.8224 24.4634 82.0247 24.6796 82.2396C24.1456 83.0486 23.5607 84.1483 23.1411 85.5388V85.5514C23.0521 85.8422 23.4462 86.0191 23.6115 85.779C24.8576 83.9587 26.1418 82.8716 27.1463 82.189C29.4222 80.6342 30.4267 81.0261 32.2958 79.1805C32.7027 78.7887 33.2367 78.1945 35.589 75.7549C36.0594 75.2745 37.0003 74.3265 38.0429 74.3897C38.1701 74.4023 38.7041 74.4276 38.844 74.7436C39.0347 75.1608 38.4117 75.8434 38.2591 76.0077C36.6697 77.8279 36.3518 81.4179 32.1559 87.8394C30.3504 90.5951 28.5958 92.7061 27.8202 93.6036C27.5404 93.9323 27.2734 94.2356 27.0318 94.5011C26.536 95.0446 26.2308 95.7399 26.1545 96.473C24.6923 110.883 23.4462 121.426 22.9885 125.18C22.7596 127.038 22.3146 130.464 21.094 134.812C20.8143 135.811 20.56 136.62 20.382 137.164C20.2548 137.593 20.471 138.061 20.8905 138.238C21.3101 138.415 21.7933 138.238 22.0095 137.846C22.2129 137.467 22.5181 136.898 22.8359 136.178C24.7177 132.082 25.1373 128.568 25.4298 126.014C25.9892 121.148 26.5741 115.434 27.0445 108.962C27.7312 109.518 28.5068 110.074 29.3714 110.631C31.2532 111.832 33.046 112.641 34.5972 113.209C34.3429 114.069 33.9869 115.422 33.6944 117.103C32.957 121.628 33.2748 125.307 33.7199 130.236ZM117.651 141.082C118.121 149.122 117.892 153.508 116.901 158.198C116.723 159.019 116.646 159.424 116.583 159.614C115.629 162.521 112.005 167.438 82.189 170.308C77.014 170.813 69.6267 171.382 60.65 171.597C60.027 171.61 59.4166 171.723 58.8318 171.938C57.5476 172.393 56.2125 172.848 54.8393 173.266C49.9949 174.77 45.4048 175.768 41.1835 176.438C40.9038 176.489 40.624 176.565 40.357 176.679C36.835 178.158 28.9518 181.305 27.5786 179.965C27.5023 179.889 27.2861 179.674 27.2607 179.384C27.1971 178.448 29.1298 177.601 31.5202 176.653C33.2876 175.945 35.7034 175.023 38.6405 174.037C38.666 174.011 38.8567 173.784 38.8185 173.48C38.7804 173.24 38.6151 173.038 38.3862 172.95C36.0975 173.556 33.6054 174.327 30.9607 175.351C28.8246 176.173 26.8665 177.045 25.0865 177.917C24.1328 178.461 23.0775 178.322 22.5943 177.74C22.34 177.437 22.2002 176.957 22.3146 176.476C22.4799 175.781 23.0775 175.478 23.1538 175.44C24.972 174.605 26.9428 173.784 29.0789 173C31.9143 171.964 34.5972 171.155 37.0766 170.523C37.3945 170.308 37.4708 169.916 37.3182 169.663C37.2037 169.486 36.9749 169.385 36.7333 169.397C34.3175 169.941 31.6346 170.674 28.7738 171.711C26.1799 172.634 23.8658 173.645 21.8187 174.643C21.2593 174.959 20.6235 174.921 20.2548 174.58C19.9242 174.277 19.9242 173.847 19.9242 173.796C19.9369 173.177 20.5345 172.57 21.4246 172.355C24.0184 171.18 26.892 170.03 30.0325 168.968C31.9525 168.323 33.8089 167.767 35.5762 167.299C35.589 167.286 35.9577 167.046 35.9323 166.756C35.9068 166.452 35.4745 166.149 34.9023 166.25C32.9697 166.806 30.9734 167.426 28.9136 168.108C26.0782 169.056 23.3954 170.067 20.8778 171.079C20.738 170.902 20.5727 170.624 20.5472 170.27C20.471 168.386 25.0737 166.768 27.7693 165.833C29.7274 165.15 32.5501 164.316 36.1103 163.772C38.8948 163.444 41.6921 163.115 44.4767 162.786C46.9433 162.496 49.4227 162.192 51.8894 161.876L95.8956 149.88C97.0908 149.552 97.841 148.363 97.6121 147.15C97.3578 145.772 97.1036 144.369 96.8747 142.953C96.2644 139.3 95.7812 135.773 95.387 132.36C98.019 132.272 101.21 131.956 104.732 131.134C109.526 130.022 113.404 128.34 116.278 126.823C117.028 132.385 117.422 137.214 117.651 141.082ZM116.061 123.17C112.158 125.256 106.652 127.519 99.8245 128.302C97.8664 128.53 96.0228 128.606 94.3063 128.581C93.607 124.763 92.9076 120.946 92.2083 117.141C92.1066 116.584 91.5853 116.205 91.0131 116.294H90.9877C90.9877 116.294 90.4664 116.382 90.0976 117.482C89.6908 118.721 93.7722 143.092 94.23 145.81C94.2427 145.873 94.4334 146.53 94.0011 147.087C93.6451 147.529 93.1365 147.592 93.0348 147.605C90.9114 148.237 78.2728 152.016 69.4995 154.456C66.1555 155.379 63.7524 156.011 62.9514 156.226C59.2641 157.199 56.2506 157.92 54.407 158.362C51.1138 158.16 47.4774 157.692 43.612 156.757C42.8873 156.58 42.188 156.403 41.5014 156.213C41.0945 156.099 40.7893 155.758 40.7131 155.341C40.3316 153.129 39.6959 149.4 38.9838 145.102C36.7969 131.842 36.7079 131.121 36.6061 129.971C36.2374 125.875 36.0467 123.524 36.4027 120.212C36.8604 116.041 37.9412 112.628 38.6787 110.378C39.4924 107.862 40.357 105.789 41.0436 104.26C41.2344 103.653 40.8911 103.046 40.3825 102.895C39.9883 102.768 39.5178 102.945 39.2381 103.324C38.9202 103.817 38.6024 104.348 38.2972 104.892C37.1529 106.927 36.301 108.899 35.678 110.719C34.5082 110.378 33.0205 109.822 31.4312 108.899C30.058 108.103 28.9772 107.23 28.1762 106.485C31.482 101.062 34.559 97.0166 36.8477 94.223C38.1192 92.6808 39.1618 90.987 41.3106 90.2917C43.2179 89.6723 47.1595 89.4069 50.3255 89.2425C51.597 97.0419 55.6149 99.8734 56.6067 100.505C63.8033 105.157 77.2175 101.656 86.7028 89.3057C89.055 89.9378 91.9667 90.7342 95.2853 91.7075C101.744 93.591 104.656 94.6654 107.339 97.3326C107.339 97.3326 107.962 97.9647 108.585 98.761C113.251 104.715 115.426 118.67 116.061 123.17Z" fill="#336AEA"/>
</g>
<defs>
<clipPath id="clip0_124_2168">
<rect width="125" height="183" fill="white"/>
</clipPath>
</defs>
</svg>
