<svg width="367" height="313" viewBox="0 0 367 313" fill="none" xmlns="http://www.w3.org/2000/svg">
<path d="M366.797 144.433C366.344 143.176 365.304 142.623 365.058 142.509C353.033 132.396 340.989 122.283 328.964 112.17C327.849 111.446 326.222 110.589 324.162 109.961C321.741 109.256 319.643 109.161 318.206 109.199C306.313 108.704 293.286 108.666 279.333 109.389C265.908 110.075 253.43 111.37 242.029 113.008C243.428 110.208 244.808 107.237 246.15 104.133C249.346 96.6861 251.785 89.5822 253.638 83.0116C255.226 82.9545 260.369 82.5355 264.226 78.5169C268.442 74.1175 268.253 68.3277 268.158 65.2995C267.761 53.1486 258.119 45.4734 256.341 44.1212C251.652 40.5407 246.963 39.1313 244.26 38.5219C242.293 29.304 238.266 23.1523 235.789 19.9527C232.083 15.1533 225.787 6.96387 215.804 6.29729C210.208 5.91638 205.708 8.04945 203.307 9.43976C192 -0.882777 178.689 -2.27308 172.507 3.34527C171.524 4.2404 168.517 7.30669 168.234 14.2963C145.677 3.13577 124.879 6.90674 119.51 16.7341C117.109 21.1526 116.674 28.885 119.151 35.7222C121.287 41.6072 124.993 45.2449 126.921 46.9018C116.56 48.5778 108.922 55.2627 108.373 62.1761C107.617 71.6987 120.436 79.0692 130.079 80.3453C136.526 81.2023 141.839 79.374 144.751 78.0979C145.053 80.1548 151.369 120.036 167.761 136.681C170.711 139.671 175.91 144.966 184.475 147.27C190.166 148.813 195.158 148.432 198.277 147.956C198.315 148.908 198.353 149.86 198.391 150.813C195.082 150.66 189.977 150.851 184.229 152.851C180.561 154.127 177.631 155.803 175.475 157.25C170.2 158.831 164.925 160.412 159.65 161.992C158.761 154.203 157.854 146.394 156.965 138.605C156.908 137.767 156.625 134.948 154.356 132.51C151.595 129.558 147.984 129.444 147.322 129.444C123.934 128.035 98.6741 127.444 71.8069 128.168C52.0111 128.682 33.1795 129.863 15.3878 131.482C15.1987 131.52 14.8962 131.596 14.537 131.748C13.9697 131.996 13.5916 132.32 13.4025 132.491C12.8164 133.024 12.5139 133.615 12.3626 133.977C9.45092 140.109 6.5014 147.48 4.06237 155.974C2.20946 162.411 0.961581 168.43 0.129663 173.819C0.0918489 173.896 -0.267388 175.019 0.451086 175.933C0.923767 176.543 1.60443 176.676 1.7935 176.714C6.38795 176.905 10.9824 177.095 15.5769 177.305C15.558 179.8 15.539 183.685 15.4256 188.427C14.9718 208.52 13.6294 222.671 12.4194 237.393C11.6253 246.991 10.5475 261.085 9.50764 278.568C9.43202 278.854 8.90261 281.178 10.453 283.12C11.5307 284.453 12.9866 284.815 13.4214 284.91C38.1332 286.11 62.8449 287.329 87.5566 288.529C89.0314 289.938 91.2057 291.976 93.9284 294.357C98.2014 298.109 101.813 301.251 106.596 304.375C110.264 306.755 113.668 308.527 115.01 309.117C127.772 314.735 148.495 299.747 151.803 297.309C152.427 298.052 153.032 298.775 153.656 299.518C155.282 299.518 157.797 299.499 160.86 299.461C171.958 299.328 180.391 299.023 184.191 298.89C212.93 297.88 227.527 297.309 238.474 293.557C242.747 292.091 245.375 290.833 246.377 290.357C269.425 295.271 292.473 300.204 315.54 305.117C315.691 305.175 317.223 305.841 318.735 304.946C320.153 304.108 320.399 302.603 320.418 302.394C321.344 299.994 322.725 296.357 324.37 291.957C331.743 272.264 342.369 243.83 351.596 211.205C356.058 195.398 361.56 173.819 366.419 147.499C366.57 147.308 367.346 145.975 366.797 144.433ZM320.399 122.492C315.691 160.811 308.714 201.797 298.599 244.839C294.912 260.571 290.979 275.826 286.858 290.586C276.61 288.51 266.362 286.434 256.115 284.358C259.329 281.768 264.49 277.216 269.747 270.626C288.862 246.668 290.412 218.938 291.263 204.711C292.095 190.694 290.299 180.771 289.41 176.562C288.105 170.391 286.442 165.325 285.043 161.649C289.788 159.383 291.887 154.755 290.677 151.479C290.242 150.299 289.334 149.175 286.404 147.613C281.639 145.08 277.347 144.356 272.469 143.709C264.887 142.699 259.348 142.338 254.054 142.299C251.066 142.28 247.417 142.376 243.276 144.166C242.142 144.661 241.253 145.156 240.667 145.499C240.157 143.214 239.703 140.795 239.325 138.243C238.323 131.444 238.115 125.216 238.323 119.769C248.741 118.569 259.593 117.56 270.9 116.817C286.914 115.75 302.172 115.331 316.58 115.369C317.185 115.465 318.206 115.731 319.113 116.55C320.588 117.941 321.061 120.245 320.399 122.492ZM197.937 160.659C198.845 163.097 200.811 167.058 204.857 169.42C211.872 173.496 222.46 171.21 230.249 163.04C229.436 164.868 228.604 166.963 227.886 169.306C227.3 171.248 226.865 173.058 226.544 174.734C218.981 180.58 209.225 180.828 203.155 175.914C197.824 171.61 197.2 164.887 197.105 163.364C197.389 162.468 197.653 161.554 197.937 160.659ZM226.052 158.755C221.363 162.202 214.745 167.02 209.036 164.716C206.313 163.611 204.687 161.269 203.817 159.631C203.76 155.346 203.704 151.041 203.647 146.756C206.351 145.175 209.187 143.309 212.08 141.119C220.777 134.529 226.96 127.273 231.252 121.159C231.062 126.663 231.384 133.367 232.934 140.833C233.596 144.033 234.409 146.985 235.298 149.651C231.913 154.069 228.472 156.964 226.052 158.755ZM189.939 143.48C170.465 141.766 159.744 112.817 157.041 105.561C154.829 99.6191 153.732 94.4388 153.146 90.9725C155.585 89.8869 157.608 89.087 159.026 88.5347C162.259 87.2777 163.753 86.8206 164.282 85.3923C164.604 84.5162 164.528 83.4116 163.942 82.6878C163.62 82.2879 162.845 81.6213 160.198 81.8118C158.459 81.9451 155.377 82.4783 151.69 84.9352C151.085 82.0784 150.499 79.2025 149.894 76.3458C152.219 75.4887 154.564 74.6126 156.889 73.7556C158.572 74.5365 161.181 75.4316 164.358 75.2792C164.433 75.2792 165.625 75.203 166.929 74.9174C172.507 73.6604 181.923 67.8706 183.454 66.9184C185.042 68.1944 189.032 71.0702 194.893 71.6606C199.544 72.1368 203.231 70.975 205.103 70.2322C206.218 73.908 208.393 78.8978 212.628 82.1736C215.256 84.2114 216.561 83.9258 217.033 83.7734C218.395 83.3163 218.546 81.8308 220.021 79.6406C220.909 78.3455 222.516 76.3648 225.126 74.8793C228.812 72.7653 234.674 71.5083 239.079 74.1936C246.283 78.5931 244.392 90.344 244.014 92.6104C243.692 94.553 242.331 102.99 236.054 105.942C234.938 106.475 233.917 106.704 233.199 106.818C231.724 110.17 229.38 114.76 225.75 119.655C221.268 125.73 207.031 144.985 189.939 143.48ZM177.82 188.903C180.448 183.342 185.118 175.191 193.399 166.773C193.664 171.763 195.441 174.848 196.595 176.448C201.964 183.837 213.838 186.275 226.052 182.047C225.768 186.351 225.636 190.865 225.712 195.607C225.995 212.824 229.002 227.832 232.632 240.04C226.581 245.315 220.909 248.458 216.882 250.305C203.004 256.704 189.92 256.723 181.128 256.628C176.534 256.59 172.734 256.247 170.106 255.943C169.311 246.515 169.33 238.63 169.519 232.898C169.879 221.49 170.635 204.044 177.82 188.903ZM171.013 163.535C169.368 165.249 167.459 167.554 165.719 170.467C163.167 174.734 161.881 178.733 161.181 181.666C160.822 177.286 160.463 172.924 160.104 168.544C163.734 166.887 167.383 165.211 171.013 163.535ZM149.553 261.675C148.268 261.409 146.982 261.142 145.696 260.875C145.791 254.209 145.81 247.467 145.791 240.687C145.715 215.091 144.864 190.294 143.371 166.354C146.056 157.669 148.759 148.984 151.444 140.3C151.766 148.413 152.371 160.926 153.675 176.238C154.961 191.417 156.001 198.75 157.627 215.624C158.534 225.07 159.744 238.802 160.822 255.657C157.91 255.352 154.98 255.028 152.068 254.724C151.35 256.076 150.631 257.695 150.064 259.599C149.875 260.323 149.705 261.028 149.553 261.675ZM8.3543 170.391C9.50764 164.087 11.1337 157.155 13.4782 149.803C14.8206 145.575 16.2575 141.614 17.7323 137.938C31.9883 136.453 47.0385 135.348 62.826 134.777C92.1511 133.71 119.283 134.662 143.862 136.757C142.463 140.662 141.064 144.661 139.703 148.737C137.51 155.326 135.486 161.802 133.615 168.106C109.621 169.268 84.9285 170.048 59.574 170.372C42.1793 170.582 25.1061 170.582 8.3543 170.391ZM90.6574 283.101C90.3738 283.044 81.4118 282.492 63.4688 281.406C53.2022 280.778 38.6059 280.035 20.6629 279.673C19.5474 279.863 18.4697 279.502 17.9214 278.702C17.5999 278.245 17.5432 277.768 17.5243 277.464C18.6966 260.399 19.7175 242.992 20.5495 225.242C21.06 214.272 21.4948 203.416 21.8541 192.674C22.0242 187.551 22.1755 182.447 22.3267 177.362C39.192 177.781 56.5299 177.952 74.2838 177.838C95.1573 177.705 115.445 177.19 135.089 176.352C136.904 190.579 137.85 202.044 138.36 210.767C138.568 214.367 138.701 217.509 138.776 220.176C138.946 225.375 139.098 233.774 139.154 241.506C139.211 248.972 139.192 255.276 139.154 259.923C136.659 259.371 133.01 258.514 128.623 257.238C119.415 254.59 114.84 252.438 112.552 254.609C111.058 256.038 110.737 259.104 110.718 259.256C110.699 259.504 110.567 260.99 111.058 262.685C111.928 265.751 114.329 267.789 117.241 270.036C124.369 275.559 127.772 276.721 127.753 279.349C127.753 280.397 127.205 281.635 126.43 282.492C126.43 282.492 125.314 283.749 123.216 284.206C120.285 284.891 107.693 284.491 90.6574 283.101ZM136.337 300.509C130.589 303.003 124.974 305.441 117.997 304.241C113.062 303.384 108.922 300.223 100.659 293.9C97.9934 291.862 96.4619 290.472 96.7834 289.653C97.2371 288.51 101.019 289.405 106.88 289.996C116.258 290.948 125.693 291.786 130.608 286.834C132.197 285.234 132.802 283.539 132.953 283.044C134.484 278.283 131.516 273.864 131.251 273.483C129.701 271.255 127.602 270.074 124.123 268.093C120.682 266.151 119.037 265.884 117.468 263.713C116.239 261.999 115.407 259.599 116.125 258.971C116.636 258.514 117.77 259.142 119.037 259.714C121.684 260.894 124.634 261.256 127.394 262.132C131.327 263.351 138.417 265.503 147.946 268.379C147.701 271.883 147.644 276.073 148.116 280.759C148.532 284.872 149.251 288.529 150.045 291.614C147.285 294.128 142.747 297.728 136.337 300.509ZM240.346 285.767C233.861 288.586 227.678 290.015 214.897 291.291C209.716 291.805 195.403 293.119 166.948 292.871C162.391 292.833 158.648 292.757 156.209 292.719C155.377 289.824 154.658 286.548 154.186 282.892C153.07 274.055 153.959 266.475 155.112 260.932C158.988 261.351 164.868 261.885 172.034 262.113C187.841 262.628 200.489 262.913 214.764 257.923C222.668 255.162 228.151 252.686 232.783 248.286C233.785 247.334 236.394 244.744 238.928 240.649C241.159 237.069 247.701 225.261 247.19 197.283C246.888 180.809 244.43 174.296 249.365 165.725C253.033 159.364 257.514 157.555 258.629 157.136C266.703 154.146 274.19 159.345 274.625 159.631C278.274 162.24 281.11 166.03 283.019 175.572C290.337 212.158 280.24 239.126 280.24 239.126C278.104 244.82 269.482 267.16 251.633 279.464C246.339 283.139 240.611 285.653 240.346 285.767Z" fill="#DDDDDD"/>
<path d="M72.9971 185.722C69.8396 185.875 66.7955 186.427 63.9027 187.322C48.0017 192.255 36.7141 207.567 35.5797 223.851C34.0293 245.867 51.1971 267.483 73.7345 268.131C97.2172 268.817 116.143 246.477 114.253 223.394C113.099 209.262 104.232 196.216 91.7341 189.817C86.0998 186.941 79.7281 185.398 72.9971 185.722ZM106.746 228.022C106.123 246.362 89.8245 261.046 71.995 259.427C55.8861 257.98 43.3317 243.639 43.0859 227.412C42.8401 210.291 56.3776 195.016 73.5265 194.293C91.8098 193.531 107.37 209.51 106.746 228.022Z" fill="#DDDDDD"/>
<path d="M185.572 115.521C186.328 114.416 186.007 113.197 185.969 113.026C183.057 106.17 180.164 99.3134 177.253 92.4571C176.837 91.143 175.494 90.3431 174.208 90.6097C172.828 90.8954 171.902 92.3048 172.166 93.7522C171.864 101.408 171.58 109.046 171.278 116.702C171.297 116.968 171.41 117.635 171.94 118.206C172.828 119.178 174.114 119.044 174.246 119.025C177.46 118.263 180.675 117.483 183.908 116.721C184.154 116.626 185.004 116.359 185.572 115.521ZM176.44 101.256C177.82 104.817 179.2 108.379 180.58 111.94C179.143 112.34 177.706 112.759 176.288 113.159C176.345 109.198 176.383 105.217 176.44 101.256Z" fill="#DDDDDD"/>
<path d="M202.872 112.854C200.565 112.016 197.691 113.635 197.748 114.606C197.767 115.025 198.334 115.349 198.844 115.559C198.409 116.606 196.178 121.634 190.676 123.691C187.992 124.7 185.571 124.605 184.153 124.415C181.809 124.072 180.145 125.253 180.069 126.243C180.013 127.1 181.109 128.186 182.773 128.624C184.324 129.214 187.897 130.357 192.019 129.195C197.445 127.69 201.624 122.834 202.985 116.701C204.119 117.025 205.235 117.196 205.556 116.701C206.105 115.939 204.819 113.559 202.872 112.854Z" fill="#DDDDDD"/>
<path d="M225.692 89.2972C225.956 89.3163 228.452 89.602 229.814 91.9064C231.043 93.9824 230.381 96.0964 230.286 96.4011C230.286 96.5154 230.305 98.0009 231.364 98.6675C232.442 99.3531 234.2 98.9532 235.164 97.4677C235.467 96.9534 236.62 94.8775 236.091 92.1921C235.429 88.8211 232.631 87.2594 232.234 87.069C232.593 86.7642 233.103 86.3833 233.784 86.0596C234.805 85.6025 235.713 85.5072 236.299 85.4882C237.887 85.4882 239.059 84.2312 238.984 82.9552C238.927 81.9839 238.171 81.0887 237.093 80.784C236.072 80.5174 233.897 80.1174 231.364 80.8983C227.299 82.1362 225.389 85.5072 224.992 86.25C224.917 86.3452 224.444 86.9737 224.576 87.8498C224.784 88.8211 225.597 89.2592 225.692 89.2972Z" fill="#DDDDDD"/>
<path d="M178.386 80.2316C179.029 80.8791 179.993 80.9553 180.579 80.9363C183.945 80.9172 186.762 79.2603 190.524 78.8222C193.738 78.4413 196.102 79.146 196.688 77.9081C196.915 77.4319 196.783 76.8606 196.707 76.5939C196.329 75.1846 194.722 74.3847 193.928 74.0038C190.411 72.3469 186.724 73.1658 179.955 74.6894C179.237 74.8608 177.932 75.1656 177.516 76.0797C177.27 76.613 177.44 77.2605 177.743 78.5937C177.932 79.4698 178.045 79.9078 178.386 80.2316Z" fill="#DDDDDD"/>
<path d="M187.236 86.8769C184.93 87.9815 183.776 90.8954 184.684 93.4284C185.572 95.9043 188.219 97.447 190.772 96.7995C193.589 96.0948 195.234 92.9714 194.44 90.2479C193.589 87.2197 189.997 85.5628 187.236 86.8769Z" fill="#DDDDDD"/>
<path d="M161.541 95.6771C158.762 96.5532 157.419 99.9432 158.667 102.495C159.688 104.571 162.222 105.714 164.547 104.895C166.873 104.076 168.178 101.6 167.686 99.2957C167.138 96.5722 164.207 94.8391 161.541 95.6771Z" fill="#DDDDDD"/>
<path d="M60.641 243.648L72.209 228.48L72.065 232.608L60.977 217.824H69.377L76.385 227.472L73.217 227.568L80.465 217.824H88.433L77.297 232.464V228.432L88.817 243.648H80.321L72.977 233.376L76.097 233.808L68.801 243.648H60.641Z" fill="#C4C4C4"/>
</svg>
