<svg width="322" height="303" viewBox="0 0 322 303" fill="none" xmlns="http://www.w3.org/2000/svg">
<g clip-path="url(#clip0_155_1695)">
<g opacity="0.25">
<path d="M0 154.743C0 146.549 3.9928 139.13 10.4328 133.775C16.8728 128.42 25.7922 125.098 35.6132 125.098H65.044C63.6272 135.42 61.5342 152.807 59.5378 177.098C59.2802 180.194 58.9904 183.42 58.6362 186.711C54.3858 185.227 49.749 184.388 44.8546 184.388H35.6132C15.939 184.388 0 171.098 0 154.743Z" fill="#DFDFDF"/>
<path d="M180.223 6.48438H35.6132C25.7922 6.48438 16.8728 9.80696 10.4328 15.1618C3.9928 20.5166 0 27.936 0 36.1295C0 52.5166 15.939 65.7747 35.6132 65.7747H111.573C131.247 65.7747 147.186 79.065 147.186 95.4199C147.186 96.065 147.154 96.7102 147.122 97.3553L154.335 91.4199C154.914 90.9682 155.719 91.065 156.17 91.6457L163.415 101.259C163.866 101.839 164.671 101.936 165.25 101.484L176.231 92.5166V73.6779C173.719 73.9037 170.145 73.7102 166.893 71.807C161 68.3553 163.479 64.7424 163.479 64.7424C163.479 64.7424 159.197 62.2908 157.136 56.3231C155.075 50.3231 158.81 48.3231 158.81 48.3231C158.81 48.3231 155.107 45.2263 154.592 39.1941C154.077 33.1618 161.386 25.8392 161.386 25.8392C161.386 25.8392 161.386 25.7102 161.419 25.4521L161.032 25.5812C161.161 25.4199 161.29 25.2586 161.419 25.0973C161.58 23.1618 162.191 17.8715 164.445 15.1618C167.279 11.807 178.935 12.3231 178.935 12.3231C178.935 12.3231 178.388 9.41986 180.223 6.48438ZM148.056 55.1618C144.771 55.1618 142.099 52.4844 142.099 49.194C142.099 45.9037 144.771 43.2263 148.056 43.2263C151.34 43.2263 154.013 45.9037 154.013 49.194C154.013 52.4844 151.34 55.1618 148.056 55.1618Z" fill="#DFDFDF"/>
<path d="M199.157 7.25958C199.157 7.25958 198.706 6.937 197.966 6.45312H199.543C199.221 6.96925 199.157 7.25958 199.157 7.25958Z" fill="#DFDFDF"/>
<path d="M322 273.356C322 281.549 318.007 288.969 311.567 294.323C305.127 299.678 296.208 303.001 286.387 303.001H35.6132C15.939 303.001 0 289.71 0 273.323C0 265.13 3.9928 257.71 10.4328 252.356C16.8728 247.001 25.7922 243.678 35.6132 243.678H44.8546C46.9798 243.678 49.0728 243.517 51.1014 243.227C48.3 261.323 45.6918 276.323 44.6936 282.033C44.4682 283.259 45.4986 284.388 46.7544 284.259C101.913 278.517 213.969 292.904 229.586 294.969C230.616 295.098 231.55 294.388 231.711 293.388C234.931 290.71 238.441 288.13 242.047 285.678L241.79 289.162L244.881 283.807C257.278 275.743 270.255 269.452 276.244 266.678C278.208 265.775 279.303 263.678 278.916 261.517C278.272 257.969 277.21 251.904 275.954 243.678H286.451C306.061 243.678 322 256.969 322 273.356Z" fill="#DFDFDF"/>
<path d="M322 154.742C322 162.935 318.007 170.354 311.567 175.709C305.127 181.064 296.208 184.387 286.387 184.387H268.451C268.29 182.838 268.162 181.258 268.001 179.677C265.038 148.387 261.915 128.387 260.047 117.387C266.358 122.161 274.763 125.096 283.972 125.096H286.355C306.061 125.064 322 138.354 322 154.742Z" fill="#DFDFDF"/>
<path d="M286.387 6.48438H223.822C224.531 7.22631 224.917 7.74244 224.917 7.74244C224.917 7.74244 229.135 5.41986 233.901 10.9682C238.344 16.1295 235.479 31.0973 235.092 33.0005C235.221 33.0973 235.35 33.1941 235.479 33.2908L235.318 33.3553C236.123 33.9037 238.666 36.0973 239.954 42.8392C241.5 50.936 232.742 56.1295 232.742 56.1295C232.742 56.1295 233.128 60.936 228.717 66.2263C224.305 71.5166 213.905 69.065 213.905 69.065C213.905 69.065 212.552 74.3876 207.883 77.8715C203.214 81.3231 189.497 78.9682 189.497 78.9682L182.51 96.1941L186.985 102.646C187.436 103.291 188.37 103.388 188.917 102.839L200.284 91.6134C200.831 91.065 201.733 91.1295 202.184 91.7424L209.558 101.323C209.976 101.904 210.781 102.001 211.361 101.549L224.402 91.4521C225.014 90.9682 225.883 91.1618 226.269 91.807L232.87 102.839C233.257 103.484 234.126 103.646 234.738 103.194L248.423 96.3553C248.423 96.0328 248.391 95.7424 248.391 95.4199C248.391 87.2263 252.384 79.807 258.824 74.4521C265.264 69.0973 274.183 65.7747 284.004 65.7747H286.387C296.208 65.7747 305.127 62.4521 311.567 57.0973C318.007 51.7424 322 44.3231 322 36.1295C322 19.7424 306.061 6.48438 286.387 6.48438ZM218.799 79.6134C217.511 79.6134 216.481 78.5812 216.481 77.2908C216.481 76.0005 217.511 74.9682 218.799 74.9682C220.087 74.9682 221.117 76.0005 221.117 77.2908C221.117 78.5812 220.087 79.6134 218.799 79.6134ZM245.718 38.7747C242.627 38.7747 240.148 35.807 240.148 32.1295C240.148 28.4521 242.659 25.4844 245.718 25.4844C248.777 25.4844 251.289 28.4521 251.289 32.1295C251.289 35.807 248.777 38.7747 245.718 38.7747Z" fill="#DFDFDF"/>
<path d="M57.3483 198.259C55.9315 210.194 54.1927 222.711 52.4217 234.452C51.1337 234.711 49.8135 234.872 48.4289 234.872C37.7385 234.872 29.0767 226.194 29.0767 215.485C29.0767 204.775 37.7385 196.098 48.4289 196.098C51.6489 196.098 54.6757 196.904 57.3483 198.259Z" fill="#DFDFDF"/>
<path d="M277.886 115.712C288.574 115.712 297.238 107.032 297.238 96.3246C297.238 85.6174 288.574 76.9375 277.886 76.9375C267.198 76.9375 258.534 85.6174 258.534 96.3246C258.534 107.032 267.198 115.712 277.886 115.712Z" fill="#DFDFDF"/>
<path d="M129.057 92.9037L118.399 102.162C117.82 102.678 116.918 102.549 116.499 101.904L109.834 91.8069C109.415 91.1617 108.514 91.0327 107.934 91.5488L95.9237 101.775C95.4085 102.226 94.6357 102.162 94.1527 101.678L85.4587 92.5488C84.7181 91.7746 83.3979 92.194 83.2691 93.2585L81.2083 108.613C81.0473 109.775 79.5339 110.129 78.8899 109.129L77.7951 107.484C77.1511 106.517 75.6377 106.839 75.4767 108L74.3175 115.904H53.3231C42.6005 115.904 33.9065 107.194 33.9065 96.4521C33.9065 85.7101 42.6005 77.0005 53.3231 77.0005H109.963C119.462 76.9359 127.415 83.8069 129.057 92.9037Z" fill="#DFDFDF"/>
</g>
<g opacity="0.75">
<path d="M258.502 109.224C258.212 109.031 257.761 109.128 257.697 109.547L255.539 125.386C255.443 125.902 254.734 125.966 254.541 125.515L251.933 119.45C251.74 118.966 251.031 119.063 250.935 119.547L248.423 132.773C248.326 133.257 247.715 133.353 247.457 132.934C246.201 130.773 243.625 126.353 242.788 124.644C241.725 122.482 239.407 122.708 239.085 122.741C239.053 122.741 239.053 122.741 239.053 122.741C238.634 122.773 238.216 122.966 237.861 123.321L224.82 136.999C223.854 137.999 222.18 137.676 221.665 136.386L216.32 122.611C215.837 121.321 214.13 120.999 213.164 121.999L198.899 136.999C198.094 137.837 196.71 137.773 196.001 136.837L184.184 120.999C183.508 120.095 182.188 119.966 181.35 120.741L165.733 135.482C164.928 136.257 163.608 136.128 162.932 135.257L151.082 119.805C150.406 118.902 149.086 118.805 148.249 119.611L136.367 131.063C135.53 131.87 134.177 131.741 133.501 130.805L124.389 117.87C123.68 116.837 122.167 116.805 121.394 117.741L110.51 130.934C109.77 131.805 108.45 131.87 107.677 131.031L95.7949 118.418C95.0543 117.644 93.7985 117.611 93.0579 118.386L83.6555 128.031C82.9149 128.773 81.6913 128.805 80.9507 128.031L73.5769 120.644C73.5769 120.579 73.6091 120.515 73.6091 120.45L75.4445 107.966C75.6055 106.805 77.1189 106.482 77.7629 107.45L78.8577 109.095C79.5017 110.095 81.0473 109.741 81.1761 108.579L83.2369 93.2244C83.3979 92.1599 84.6859 91.7405 85.4265 92.5147L94.0883 101.644C94.5713 102.128 95.3119 102.192 95.8593 101.741L107.87 91.5147C108.45 91.0308 109.351 91.1276 109.77 91.7728L116.435 101.87C116.854 102.515 117.755 102.644 118.335 102.128L130.668 91.4179C131.215 90.9341 132.02 91.0308 132.471 91.5792L140.424 101.16C140.875 101.708 141.68 101.773 142.227 101.321L154.238 91.4179C154.818 90.9663 155.623 91.0631 156.073 91.6437L163.318 101.257C163.769 101.837 164.574 101.934 165.154 101.482L176.134 92.547V105.708C176.134 106.999 177.905 107.321 178.388 106.16L182.413 96.1921L186.889 102.644C187.34 103.289 188.273 103.386 188.821 102.837L200.284 91.6115C200.831 91.0631 201.733 91.1276 202.184 91.7405L209.558 101.321C209.976 101.87 210.781 101.999 211.361 101.547L224.402 91.4502C225.014 90.9663 225.883 91.1599 226.269 91.805L232.87 102.837C233.257 103.482 234.126 103.644 234.738 103.192L254.348 93.3857C254.992 92.9018 255.926 93.1276 256.28 93.8696L258.405 108.999C258.469 109.063 258.469 109.16 258.502 109.224Z" fill="#DFDFDF"/>
</g>
<path d="M223.436 138.612C223.243 138.612 223.049 138.58 222.888 138.548C221.922 138.354 221.117 137.709 220.763 136.774L215.418 122.999C215.257 122.58 214.871 122.451 214.742 122.419C214.581 122.387 214.194 122.354 213.872 122.677L199.608 137.677C199.028 138.29 198.223 138.612 197.354 138.548C196.484 138.483 195.744 138.064 195.229 137.419L183.411 121.58C183.25 121.354 183.025 121.225 182.735 121.225C182.445 121.225 182.22 121.29 182.027 121.483L166.345 136.225C165.766 136.774 164.961 137.064 164.156 136.999C163.351 136.935 162.61 136.516 162.127 135.903L150.277 120.451C150.116 120.258 149.891 120.128 149.601 120.096C149.344 120.064 149.086 120.161 148.893 120.354L137.011 131.806C136.399 132.387 135.594 132.677 134.757 132.58C133.92 132.516 133.179 132.064 132.696 131.387L123.584 118.451C123.423 118.225 123.165 118.064 122.875 118.064C122.585 118.064 122.296 118.193 122.135 118.387L111.251 131.58C110.736 132.225 109.963 132.58 109.126 132.612C108.321 132.645 107.516 132.322 106.936 131.709L95.0544 119.096C94.8934 118.903 94.6358 118.806 94.3782 118.806C94.1206 118.806 93.8952 118.903 93.702 119.096L84.3318 128.709C83.7844 129.258 83.076 129.58 82.3032 129.58C81.5304 129.58 80.822 129.29 80.2746 128.741L72.5144 120.967L72.6432 120.451C72.6432 120.419 72.6754 120.387 72.6754 120.322L74.5108 107.838C74.6396 106.903 75.3158 106.161 76.2496 105.967C77.1834 105.774 78.085 106.128 78.6002 106.935L79.695 108.58C79.7916 108.741 79.9204 108.741 80.017 108.709C80.1136 108.677 80.2424 108.612 80.2746 108.451L82.3354 93.0962C82.4642 92.2252 83.0438 91.5156 83.881 91.2575C84.7182 90.9994 85.5876 91.2252 86.1994 91.8382L94.8612 100.967C94.99 101.096 95.151 101.096 95.2798 100.999L107.29 90.7736C107.773 90.3543 108.417 90.1607 109.061 90.2575C109.705 90.3543 110.253 90.7091 110.607 91.2252L117.272 101.322C117.337 101.419 117.433 101.451 117.498 101.451C117.562 101.451 117.659 101.451 117.755 101.387L130.088 90.6769C130.539 90.2898 131.118 90.0962 131.73 90.1285C132.342 90.1607 132.889 90.451 133.276 90.9349L141.229 100.516C141.326 100.645 141.551 100.677 141.68 100.548L153.691 90.6446C154.174 90.2575 154.785 90.064 155.397 90.1607C156.009 90.2252 156.556 90.5478 156.911 91.0317L164.156 100.645C164.22 100.741 164.317 100.774 164.381 100.774C164.445 100.774 164.542 100.774 164.606 100.709L177.164 90.4833V105.645C177.164 105.709 177.164 105.806 177.325 105.838C177.486 105.87 177.519 105.774 177.551 105.709L182.252 94.0962L187.758 101.999C187.823 102.096 187.919 102.128 187.984 102.128C188.048 102.128 188.145 102.128 188.241 102.032L199.576 90.8381C200.026 90.3865 200.67 90.1607 201.314 90.193C201.958 90.2252 202.538 90.5478 202.924 91.0639L210.298 100.645C210.363 100.741 210.459 100.774 210.524 100.774C210.588 100.774 210.652 100.774 210.749 100.709L223.79 90.6123C224.305 90.2252 224.949 90.064 225.561 90.193C226.205 90.322 226.752 90.6769 227.074 91.2252L233.675 102.258C233.74 102.354 233.836 102.387 233.869 102.419C233.933 102.419 234.03 102.419 234.126 102.354L234.191 102.29L234.255 102.258L253.8 92.4833C254.316 92.1285 254.992 91.9994 255.604 92.1607C256.248 92.322 256.795 92.7736 257.117 93.3865L257.181 93.5156L259.307 108.645C259.339 108.741 259.371 108.838 259.403 108.935L259.951 111.354L258.502 110.354L256.441 125.516C256.312 126.161 255.797 126.645 255.153 126.741C254.509 126.806 253.865 126.451 253.607 125.838L251.579 121.096L249.357 132.903C249.228 133.516 248.777 133.999 248.133 134.096C247.521 134.193 246.91 133.935 246.588 133.387C245.718 131.903 242.82 126.935 241.886 125.032C241.146 123.548 239.568 123.612 239.214 123.677H239.117C238.892 123.709 238.699 123.806 238.538 123.967L225.497 137.645C224.981 138.29 224.241 138.612 223.436 138.612ZM214.549 120.483C214.742 120.483 214.935 120.516 215.128 120.548C216.094 120.741 216.867 121.387 217.221 122.322L222.566 136.096C222.695 136.387 222.921 136.612 223.243 136.677C223.565 136.741 223.887 136.645 224.112 136.419L237.153 122.741C237.636 122.258 238.248 121.935 238.924 121.87C238.956 121.87 238.988 121.87 238.988 121.87C239.471 121.806 242.305 121.612 243.625 124.29C244.269 125.58 246.04 128.709 247.682 131.516L249.969 119.451C250.097 118.806 250.613 118.322 251.289 118.225C251.933 118.161 252.545 118.516 252.802 119.128L254.799 123.741L256.763 109.451C256.827 109.032 257.053 108.709 257.407 108.483L255.346 94.193C255.282 94.1285 255.249 94.1285 255.185 94.0962C255.121 94.0962 255.024 94.064 254.927 94.1607L254.863 94.2252L254.799 94.2575L235.253 104.032C234.77 104.387 234.158 104.516 233.547 104.387C232.935 104.258 232.387 103.87 232.065 103.322L225.464 92.2898C225.4 92.193 225.303 92.1607 225.239 92.1285C225.175 92.1285 225.078 92.1285 224.981 92.193L211.94 102.29C211.457 102.645 210.878 102.806 210.266 102.741C209.686 102.677 209.139 102.354 208.785 101.87L201.411 92.2898C201.347 92.193 201.25 92.1607 201.186 92.1607C201.121 92.1607 201.025 92.1607 200.928 92.2575L189.594 103.451C189.111 103.935 188.467 104.161 187.823 104.096C187.179 104.032 186.567 103.677 186.18 103.128L182.703 98.1285L179.354 106.516C178.968 107.483 178.002 107.999 176.971 107.806C175.941 107.612 175.232 106.741 175.232 105.709V94.6123L165.83 102.258C165.347 102.645 164.767 102.838 164.156 102.741C163.544 102.677 162.996 102.354 162.642 101.87L155.397 92.2575C155.333 92.1607 155.236 92.1285 155.204 92.1285C155.14 92.1285 155.043 92.1285 154.946 92.193L142.936 102.096C142.002 102.87 140.585 102.741 139.78 101.806L131.827 92.2252C131.762 92.1285 131.666 92.1285 131.601 92.0962C131.569 92.0962 131.473 92.0962 131.376 92.1607L119.043 102.903C118.56 103.322 117.916 103.516 117.272 103.419C116.628 103.322 116.049 102.967 115.695 102.419L109.029 92.322C108.965 92.2252 108.868 92.193 108.804 92.193C108.739 92.193 108.643 92.193 108.546 92.2575L96.5356 102.483C95.634 103.258 94.2816 103.193 93.4444 102.322L84.7826 93.193C84.6538 93.064 84.525 93.0962 84.4606 93.1285C84.3962 93.1607 84.2674 93.2252 84.2352 93.3865L82.1744 108.709C82.0456 109.645 81.3694 110.387 80.4356 110.612C79.5018 110.806 78.568 110.451 78.0528 109.645L76.958 107.999C76.8614 107.838 76.7326 107.838 76.636 107.87C76.5394 107.903 76.4106 107.967 76.3784 108.128L74.5752 120.354L81.5948 127.387C81.7558 127.548 82.0134 127.645 82.2388 127.645C82.4964 127.645 82.7218 127.548 82.8828 127.354L92.2852 117.709C92.8326 117.161 93.5732 116.838 94.346 116.838C95.151 116.838 95.8594 117.161 96.4068 117.741L108.289 130.354C108.482 130.548 108.739 130.645 108.997 130.645C109.255 130.645 109.512 130.516 109.673 130.322L120.557 117.128C121.136 116.419 121.974 116.064 122.875 116.096C123.777 116.128 124.582 116.58 125.097 117.322L134.21 130.257C134.371 130.483 134.596 130.612 134.886 130.645C135.176 130.677 135.433 130.58 135.626 130.387L147.508 118.935C148.088 118.354 148.893 118.096 149.698 118.128C150.503 118.161 151.243 118.58 151.759 119.225L163.608 134.677C163.769 134.87 163.995 134.999 164.284 135.032C164.542 135.064 164.8 134.967 164.993 134.774L180.674 120.032C181.254 119.483 182.059 119.193 182.864 119.258C183.669 119.322 184.409 119.741 184.892 120.387L196.71 136.225C196.935 136.516 197.225 136.58 197.386 136.58C197.547 136.58 197.869 136.58 198.127 136.29L212.391 121.29C213.035 120.806 213.776 120.483 214.549 120.483Z" fill="#DFDFDF"/>
<g opacity="0.75">
<path d="M276.212 266.675C268.033 270.449 246.62 280.933 231.711 293.385C232.516 288.191 234.963 270.869 238.892 228.482C241.114 204.482 241.725 179.965 241.758 160.32C241.758 143.998 241.371 131.03 241.114 124.578C241.081 123.417 240.083 122.675 239.085 122.772C239.407 122.74 241.725 122.514 242.788 124.675C243.657 126.385 246.201 130.804 247.457 132.965C247.715 133.385 248.326 133.288 248.423 132.804L250.935 119.578C251.031 119.062 251.74 118.998 251.933 119.482L254.541 125.546C254.734 126.03 255.443 125.933 255.539 125.417L257.697 109.578C257.761 109.159 258.244 109.062 258.502 109.256C258.598 109.32 258.695 109.449 258.727 109.611C259.951 116.998 264.137 138.578 268.033 179.707C271.993 221.675 277.081 251.611 278.884 261.578C279.238 263.675 278.144 265.772 276.212 266.675Z" fill="#DFDFDF"/>
</g>
<path d="M230.359 295.806L230.745 293.258C231.615 287.774 234.03 270.484 237.926 228.419C239.793 208.194 240.759 185.29 240.792 160.355C240.792 143.968 240.405 130.968 240.148 124.677C240.148 124.355 239.987 124.161 239.858 124.032C239.665 123.871 239.407 123.774 239.149 123.774L238.956 121.839C239.278 121.806 242.273 121.484 243.657 124.258C244.301 125.548 246.072 128.677 247.715 131.484L250.001 119.419C250.13 118.774 250.645 118.29 251.321 118.194C251.965 118.129 252.577 118.484 252.834 119.097L254.831 123.71L256.795 109.419C256.892 108.903 257.214 108.484 257.664 108.29C258.147 108.097 258.695 108.161 259.113 108.452C259.435 108.677 259.661 109.032 259.725 109.419C259.854 110.258 260.047 111.258 260.24 112.452C261.85 121.613 265.586 143.032 269.031 179.581C272.959 221.065 277.918 250.613 279.882 261.355C280.365 263.903 279.013 266.452 276.662 267.548C268.258 271.419 247.135 281.774 232.387 294.129L230.359 295.806ZM242.112 125.516C242.369 132.129 242.724 144.71 242.724 160.355C242.691 185.355 241.758 208.29 239.858 228.581C236.412 265.71 234.126 283.581 233.031 291.064C247.811 279.29 267.679 269.548 275.793 265.806C277.339 265.097 278.208 263.387 277.918 261.71C275.954 250.903 270.963 221.323 267.067 179.742C263.621 143.258 259.886 121.903 258.308 112.742C258.308 112.677 258.276 112.581 258.276 112.516L256.505 125.548C256.376 126.194 255.861 126.677 255.217 126.774C254.573 126.839 253.929 126.484 253.672 125.871L251.643 121.129L249.421 132.935C249.292 133.548 248.842 134.032 248.198 134.129C247.586 134.226 246.974 133.968 246.652 133.419C245.815 132.065 243.207 127.613 242.112 125.516Z" fill="#DFDFDF"/>
<g opacity="0.5">
<path d="M241.757 160.354C241.757 179.999 241.113 204.516 238.892 228.516C234.963 270.903 232.516 288.225 231.711 293.419C231.55 294.451 230.616 295.128 229.586 294.999C214.001 292.935 101.913 278.548 46.7543 284.29C45.4985 284.419 44.4681 283.322 44.6935 282.064C46.8831 269.709 56.4787 214.128 59.5377 177.096C62.1781 145.257 64.9795 125.257 66.1387 117.516C66.3641 115.967 68.2639 115.354 69.3587 116.451L80.9507 128.064C81.6913 128.806 82.9149 128.806 83.6555 128.064L93.0579 118.419C93.7985 117.645 95.0543 117.645 95.7949 118.451L107.677 131.064C108.449 131.903 109.802 131.838 110.51 130.967L121.394 117.741C122.199 116.774 123.68 116.838 124.388 117.87L133.501 130.806C134.177 131.741 135.53 131.87 136.367 131.064L148.249 119.612C149.054 118.838 150.374 118.935 151.082 119.806L162.932 135.257C163.608 136.161 164.928 136.257 165.733 135.483L181.415 120.741C182.252 119.967 183.54 120.096 184.248 120.999L196.066 136.838C196.774 137.774 198.159 137.87 198.964 136.999L213.228 121.999C214.194 120.999 215.869 121.322 216.384 122.612L221.729 136.387C222.244 137.677 223.919 137.999 224.885 136.999L237.926 123.322C238.28 122.967 238.698 122.774 239.117 122.741H239.149C240.147 122.677 241.146 123.387 241.178 124.548C241.371 131.064 241.757 143.999 241.757 160.354Z" fill="#DFDFDF"/>
</g>
<path d="M229.811 295.966C229.683 295.966 229.554 295.966 229.457 295.933C216.609 294.224 102.299 279.449 46.851 285.224C45.9494 285.32 45.08 284.998 44.4682 284.32C43.8564 283.643 43.5988 282.772 43.7598 281.869C45.6918 270.901 55.5128 214.191 58.5718 176.998C61.2122 144.804 64.078 124.546 65.205 117.353C65.366 116.288 66.1066 115.417 67.137 115.062C68.1674 114.74 69.2944 114.998 70.035 115.74L81.627 127.353C81.788 127.514 82.0456 127.611 82.271 127.611C82.5286 127.611 82.754 127.514 82.915 127.32L92.3174 117.675C92.8648 117.127 93.6054 116.804 94.3782 116.804C95.1832 116.804 95.8916 117.127 96.439 117.707L108.321 130.32C108.514 130.514 108.739 130.611 109.029 130.611C109.287 130.611 109.544 130.482 109.705 130.288L120.589 117.095C121.169 116.385 122.006 116.03 122.907 116.062C123.809 116.095 124.614 116.546 125.129 117.288L134.242 130.224C134.403 130.449 134.628 130.578 134.918 130.611C135.208 130.643 135.465 130.546 135.659 130.353L147.54 118.901C148.12 118.32 148.925 118.062 149.73 118.095C150.535 118.159 151.276 118.546 151.791 119.191L163.64 134.643C163.801 134.837 164.027 134.966 164.317 134.998C164.574 135.03 164.832 134.933 165.025 134.74L180.706 119.998C181.286 119.449 182.091 119.159 182.896 119.224C183.701 119.288 184.442 119.708 184.925 120.353L196.742 136.191C196.967 136.482 197.257 136.546 197.418 136.546C197.579 136.546 197.901 136.546 198.159 136.256L212.423 121.256C213.1 120.546 214.098 120.224 215.064 120.417C216.03 120.611 216.803 121.256 217.157 122.191L222.502 135.966C222.631 136.256 222.856 136.482 223.178 136.546C223.5 136.611 223.822 136.514 224.048 136.288L237.089 122.611C237.572 122.127 238.183 121.804 238.86 121.74C238.924 121.74 238.956 121.74 238.988 121.74C239.761 121.707 240.534 121.966 241.081 122.482C241.661 122.998 241.983 123.707 242.015 124.482C242.273 130.804 242.659 143.837 242.659 160.256C242.627 185.256 241.693 208.191 239.793 228.482C235.897 270.611 233.45 287.966 232.581 293.449C232.42 294.933 231.196 295.966 229.811 295.966ZM77.602 281.966C136.721 281.966 218.896 292.611 229.683 294.03C230.166 294.095 230.649 293.74 230.713 293.256C231.582 287.772 233.997 270.482 237.894 228.417C239.761 208.191 240.727 185.288 240.759 160.353C240.759 143.966 240.373 130.966 240.115 124.675C240.115 124.353 239.954 124.159 239.826 124.03C239.632 123.869 239.375 123.772 239.149 123.772H239.117C238.892 123.804 238.699 123.901 238.538 124.062L225.497 137.74C224.82 138.449 223.822 138.772 222.856 138.578C221.89 138.385 221.085 137.74 220.731 136.804L215.418 122.998C215.257 122.578 214.871 122.449 214.742 122.417C214.581 122.385 214.194 122.353 213.872 122.675L199.608 137.675C199.028 138.288 198.223 138.611 197.354 138.546C196.484 138.482 195.744 138.062 195.229 137.417L183.411 121.578C183.25 121.353 183.025 121.224 182.735 121.224C182.445 121.224 182.22 121.288 182.027 121.482L166.345 136.224C165.766 136.772 164.961 137.062 164.156 136.998C163.351 136.933 162.61 136.514 162.127 135.901L150.277 120.449C150.116 120.256 149.891 120.127 149.601 120.095C149.344 120.062 149.086 120.159 148.893 120.353L137.011 131.804C136.399 132.385 135.594 132.675 134.757 132.578C133.92 132.514 133.179 132.062 132.696 131.385L123.584 118.449C123.423 118.224 123.165 118.062 122.875 118.062C122.585 118.062 122.296 118.191 122.135 118.385L111.251 131.578C110.736 132.224 109.963 132.578 109.126 132.611C108.321 132.643 107.516 132.32 106.936 131.707L95.0544 119.095C94.8934 118.901 94.6358 118.804 94.3782 118.804C94.1206 118.804 93.8952 118.901 93.702 119.095L84.3318 128.707C83.7844 129.256 83.076 129.578 82.3032 129.578C81.5304 129.578 80.822 129.288 80.2746 128.74L68.6826 117.127C68.425 116.869 68.0708 116.804 67.7488 116.901C67.3946 117.03 67.1692 117.288 67.1048 117.643C66.01 124.837 63.1442 145.03 60.5038 177.159C57.4126 214.482 47.5916 271.224 45.6596 282.224C45.5952 282.514 45.6918 282.804 45.885 283.03C46.0782 283.256 46.368 283.353 46.6578 283.32C55.6416 282.353 66.2032 281.966 77.602 281.966Z" fill="#DFDFDF"/>
<path d="M167.246 175.368C164.345 175.629 161.963 178.272 161.935 181.326C161.909 184.312 164.13 187.002 167.113 187.324C170.402 187.691 173.392 185.02 173.617 181.808C173.902 178.25 170.715 175.064 167.246 175.368Z" fill="#DDDDDD"/>
<path d="M136.312 174.55C132.995 174.381 130.224 177.455 130.552 180.664C130.824 183.277 133.082 185.496 135.891 185.547C138.699 185.597 141.07 183.48 141.453 180.834C141.941 177.719 139.492 174.715 136.312 174.55Z" fill="#DDDDDD"/>
<path d="M134.854 212.967C135.143 212.322 135.465 211.741 135.852 211.128C136.013 210.838 136.206 210.548 136.399 210.29C136.496 210.16 136.592 210.031 136.689 209.902C136.786 209.741 136.979 209.58 137.043 209.419C136.947 209.709 136.85 209.677 136.947 209.515C136.979 209.451 137.043 209.386 137.108 209.322C137.236 209.193 137.333 209.031 137.462 208.902C137.687 208.644 137.945 208.354 138.17 208.096C138.653 207.58 139.136 207.096 139.684 206.644C139.812 206.548 139.941 206.451 140.038 206.322C140.102 206.257 140.167 206.225 140.231 206.16C140.263 206.128 140.585 205.902 140.328 206.096C140.07 206.29 140.521 205.967 140.553 205.935C140.714 205.806 140.875 205.709 141.036 205.58C141.616 205.193 142.195 204.806 142.807 204.483C143.097 204.322 143.354 204.193 143.644 204.064C143.805 203.999 143.966 203.902 144.127 203.838C144.192 203.806 144.288 203.773 144.353 203.741C144.642 203.612 144.417 203.741 144.288 203.773C144.61 203.709 144.964 203.515 145.286 203.386C145.608 203.257 145.963 203.16 146.285 203.064C146.929 202.87 147.573 202.741 148.249 202.612C148.345 202.612 148.925 202.515 148.571 202.548C148.217 202.58 148.764 202.515 148.861 202.515C149.247 202.483 149.601 202.451 149.988 202.451C150.632 202.419 151.308 202.451 151.952 202.515C152.113 202.515 152.274 202.548 152.403 202.58C152.467 202.58 152.853 202.644 152.499 202.58C152.177 202.548 152.435 202.58 152.531 202.58C152.886 202.644 153.208 202.709 153.562 202.773C154.206 202.935 154.882 203.096 155.526 203.322C155.848 203.419 156.138 203.548 156.46 203.677C156.685 203.773 156.106 203.515 156.331 203.612C156.395 203.644 156.46 203.677 156.556 203.709C156.717 203.773 156.911 203.87 157.072 203.967C157.683 204.257 158.263 204.58 158.843 204.967C159.1 205.128 159.358 205.29 159.615 205.483C159.744 205.58 159.905 205.677 160.034 205.806C160.227 205.967 159.712 205.548 159.905 205.709C159.97 205.773 160.066 205.838 160.131 205.902C160.742 206.386 161.29 206.902 161.805 207.483C162.063 207.741 162.288 208.031 162.513 208.29C162.578 208.354 162.642 208.451 162.707 208.515C162.932 208.773 162.513 208.257 162.642 208.451C162.771 208.612 162.868 208.773 162.964 208.902C163.383 209.515 163.769 210.16 164.091 210.838C164.188 210.999 164.252 211.193 164.349 211.354C164.381 211.419 164.413 211.483 164.445 211.58L164.349 211.322C164.381 211.386 164.413 211.451 164.445 211.548C164.574 211.902 164.703 212.257 164.832 212.644C165.122 213.612 166.184 214.322 167.215 213.999C168.245 213.677 168.889 212.644 168.567 211.612C166.732 205.644 161.612 201.096 155.687 199.386C149.698 197.677 143.193 199.193 138.299 202.967C135.498 205.128 133.147 207.87 131.634 211.064C131.215 211.967 131.344 213.193 132.31 213.709C133.05 214.128 134.371 213.935 134.854 212.967Z" fill="#DFDFDF"/>
<path d="M58.3786 266.161C57.8634 266.161 57.4126 265.741 57.4126 265.193C57.4126 264.644 57.8312 264.225 58.3786 264.225L163.125 262.773C163.673 262.773 164.091 263.193 164.091 263.741C164.091 264.29 163.673 264.709 163.125 264.709L58.3786 266.161Z" fill="#DFDFDF"/>
<path d="M125.999 272.225H114.6C114.052 272.225 113.634 271.805 113.634 271.257C113.634 270.708 114.052 270.289 114.6 270.289H125.999C126.546 270.289 126.965 270.708 126.965 271.257C126.965 271.805 126.514 272.225 125.999 272.225Z" fill="#DFDFDF"/>
<path d="M178.903 238.707C178.42 238.707 177.969 238.319 177.937 237.803C177.905 237.255 178.291 236.803 178.839 236.771L225.561 233.158C226.108 233.126 226.559 233.513 226.591 234.061C226.624 234.61 226.237 235.061 225.69 235.094L178.968 238.707C178.968 238.707 178.935 238.707 178.903 238.707Z" fill="#DFDFDF"/>
<path d="M243.013 285.386C242.852 285.386 242.659 285.321 242.498 285.224C242.047 284.934 241.919 284.321 242.208 283.902L258.115 258.902L253.672 122.418C253.672 121.87 254.058 121.45 254.605 121.418C255.121 121.418 255.571 121.805 255.604 122.353L260.047 259.45L259.886 259.708L243.818 284.966C243.657 285.224 243.335 285.386 243.013 285.386Z" fill="#DFDFDF"/>
<path d="M275.117 267.611C274.988 267.611 274.859 267.579 274.698 267.514L258.63 260.03C258.147 259.804 257.922 259.224 258.147 258.74C258.373 258.256 258.952 258.03 259.435 258.256L275.503 265.74C275.986 265.966 276.212 266.546 275.986 267.03C275.825 267.385 275.503 267.611 275.117 267.611Z" fill="#DFDFDF"/>
<g opacity="0.25">
<path d="M232.742 56.1307C232.742 56.1307 233.128 60.9371 228.717 66.2274C224.305 71.5178 213.905 69.0661 213.905 69.0661C213.905 69.0661 212.552 74.3887 207.883 77.8726C203.214 81.3242 189.497 78.9694 189.497 78.9694L182.51 96.1952L178.452 106.131C177.969 107.324 176.198 106.969 176.198 105.679V73.679C173.687 73.9049 170.113 73.7113 166.86 71.7758C160.968 68.3242 163.447 64.7113 163.447 64.7113C163.447 64.7113 159.165 62.2597 157.136 56.292C155.075 50.292 158.81 48.292 158.81 48.292C158.81 48.292 155.107 45.1952 154.592 39.1629C154.077 33.1307 161.386 25.8081 161.386 25.8081C161.386 25.8081 161.644 18.4855 164.478 15.1629C167.311 11.8081 178.968 12.3242 178.968 12.3242C178.968 12.3242 177.937 6.80808 183.443 3.32421C188.95 -0.159657 199.221 7.19518 199.221 7.19518C199.221 7.19518 200.123 3.42099 209.364 1.2597C218.509 -0.837077 224.917 7.74357 224.917 7.74357C224.917 7.74357 229.135 5.42099 233.901 10.9694C238.666 16.5178 235.06 33.2274 235.06 33.2274C235.06 33.2274 238.441 34.7758 239.954 42.8726C241.5 50.9371 232.742 56.1307 232.742 56.1307Z" fill="#DFDFDF"/>
</g>
<path d="M177.39 107.839C177.261 107.839 177.1 107.839 176.971 107.806C175.941 107.613 175.232 106.742 175.232 105.71V74.7419C172.721 74.8387 169.436 74.4838 166.345 72.6774C163.898 71.258 162.449 69.5806 162.063 67.7096C161.837 66.6451 161.998 65.7419 162.224 65.0967C160.839 64.0645 157.844 61.4516 156.202 56.6451C154.624 52.0322 156.202 49.4516 157.361 48.258C156.138 46.9032 153.98 43.9032 153.594 39.2903C153.111 33.4838 159.036 26.8709 160.388 25.4516C160.485 23.8387 161.032 17.7096 163.673 14.5806C166.281 11.4838 174.685 11.3226 177.841 11.3871C177.808 9.41933 178.388 5.38707 182.864 2.58062C187.887 -0.580674 196.034 4.09675 198.771 5.87094C199.737 4.41933 202.345 1.99997 209.042 0.387068C217.414 -1.61293 223.5 4.61287 225.207 6.58062C226.785 6.09675 230.584 5.61287 234.609 10.3226C239.117 15.5484 236.734 29.4838 236.123 32.7419C237.314 33.6451 239.665 36.1935 240.888 42.6451C242.337 50.258 235.607 55.3548 233.708 56.6451C233.675 58.1613 233.192 62.3548 229.425 66.8387C225.4 71.6451 217.253 70.6451 214.549 70.1613C213.937 71.9032 212.23 75.8064 208.431 78.6129C204.084 81.8387 193.103 80.4516 190.077 80L179.354 106.484C179.032 107.323 178.259 107.839 177.39 107.839ZM177.197 72.6451V105.71C177.197 105.774 177.197 105.871 177.358 105.903C177.519 105.935 177.551 105.839 177.583 105.774L188.885 77.8709L189.658 78C193.361 78.6451 203.762 79.7096 207.304 77.0645C211.651 73.8709 212.939 68.8709 212.971 68.8064L213.196 67.8709L214.13 68.0967C214.227 68.129 223.983 70.3548 227.976 65.5806C232.065 60.6774 231.808 56.1935 231.808 56.1613L231.776 55.5484L232.291 55.2258C232.355 55.1935 240.438 50.258 239.053 42.9355C237.668 35.5806 234.706 34 234.674 34L233.965 33.6774L234.158 32.9355C235.124 28.4193 236.863 15.7419 233.225 11.5161C229.103 6.70965 225.593 8.45158 225.432 8.5161L224.692 8.9032L224.209 8.25804C224.144 8.19352 218.058 0.193519 209.558 2.19352C201.218 4.16126 200.155 7.41933 200.155 7.45158L199.833 8.83868L198.674 7.96771C195.969 6.03223 188.048 1.54836 183.991 4.129C179.129 7.19352 179.901 11.9355 179.934 12.129L180.159 13.3226L178.968 13.258C175.844 13.129 167.343 13.2903 165.283 15.7419C162.707 18.7742 162.417 25.7419 162.417 25.8064V26.1935L162.159 26.4516C162.095 26.5161 155.172 33.5161 155.655 39.0322C156.138 44.5484 159.519 47.4516 159.551 47.4838L160.646 48.3871L159.39 49.0645C159.261 49.129 156.428 50.8387 158.166 55.9032C160.066 61.4838 164.027 63.7742 164.059 63.8064L164.961 64.3225L164.349 65.1935C164.349 65.2258 163.801 66.0322 164.091 67.1935C164.381 68.4516 165.572 69.7419 167.472 70.8709C170.563 72.6774 173.944 72.8387 176.263 72.6129L177.197 72.6451Z" fill="#DFDFDF"/>
<g opacity="0.5">
<path d="M245.718 38.7747C248.795 38.7747 251.289 35.7996 251.289 32.1295C251.289 28.4595 248.795 25.4844 245.718 25.4844C242.642 25.4844 240.148 28.4595 240.148 32.1295C240.148 35.7996 242.642 38.7747 245.718 38.7747Z" fill="#DFDFDF"/>
</g>
<g opacity="0.5">
<path d="M218.799 79.6139C220.08 79.6139 221.118 78.5741 221.118 77.2913C221.118 76.0086 220.08 74.9688 218.799 74.9688C217.519 74.9688 216.481 76.0086 216.481 77.2913C216.481 78.5741 217.519 79.6139 218.799 79.6139Z" fill="#DFDFDF"/>
</g>
<g opacity="0.5">
<path d="M148.056 55.162C151.346 55.162 154.013 52.4902 154.013 49.1943C154.013 45.8984 151.346 43.2266 148.056 43.2266C144.766 43.2266 142.099 45.8984 142.099 49.1943C142.099 52.4902 144.766 55.162 148.056 55.162Z" fill="#DFDFDF"/>
</g>
<g opacity="0.5">
<path d="M192.814 68.2592C192.009 68.2592 191.139 68.2269 190.302 68.1624C187.823 68.0334 185.247 67.7431 183.347 66.0979C182.928 65.7431 182.896 65.1302 183.25 64.7431C183.605 64.3237 184.216 64.2915 184.603 64.6463C186.052 65.9044 188.177 66.0979 190.399 66.2269C193.039 66.3882 195.583 66.4205 197.644 65.356C198.127 65.0979 198.706 65.2915 198.932 65.7753C199.189 66.2592 198.996 66.8398 198.513 67.0656C196.774 68.0334 194.81 68.2592 192.814 68.2592Z" fill="#DFDFDF"/>
<path d="M207.111 69.226C205.082 69.226 203.182 68.9357 201.443 68.3228C197.096 66.8389 193.78 63.2582 193.071 59.2582C192.975 58.7421 193.329 58.226 193.844 58.1292C194.359 58.0324 194.875 58.3873 194.971 58.9034C195.583 62.226 198.384 65.226 202.087 66.4841C205.275 67.5808 209.01 67.5486 213.261 66.3873C213.776 66.2582 214.291 66.5486 214.452 67.0647C214.613 67.5808 214.291 68.097 213.776 68.2582C211.393 68.9034 209.204 69.226 207.111 69.226Z" fill="#DFDFDF"/>
<path d="M161 26.5824C160.807 26.5824 160.614 26.5179 160.421 26.3888C160.002 26.0663 159.905 25.4534 160.227 25.034C161.998 22.6146 164.703 21.4534 166.635 20.9372C169.018 20.2598 171.497 20.1308 173.88 20.0017C174.428 19.9695 174.878 20.3888 174.911 20.905C174.943 21.4534 174.524 21.905 174.009 21.9372C171.723 22.0663 169.372 22.1953 167.183 22.8082C165.508 23.2276 163.222 24.1953 161.773 26.163C161.58 26.4211 161.29 26.5824 161 26.5824Z" fill="#DFDFDF"/>
<path d="M171.304 27.5495C171.24 27.5495 171.143 27.5495 171.047 27.5172C170.531 27.3882 170.209 26.8398 170.37 26.3237C171.336 22.614 174.17 19.3882 177.712 17.9689C180.191 16.9689 182.896 16.8076 185.311 16.6463C185.859 16.614 186.309 17.0334 186.342 17.5495C186.374 18.0979 185.955 18.5495 185.44 18.5818C183.089 18.7108 180.642 18.8721 178.453 19.7431C175.458 20.9689 173.075 23.6785 172.27 26.8076C172.109 27.2592 171.723 27.5495 171.304 27.5495Z" fill="#DFDFDF"/>
<path d="M207.529 33.1927C207.465 33.1927 207.433 33.1927 207.368 33.1605C206.853 33.0637 206.499 32.5798 206.595 32.0314C206.821 30.7089 206.209 29.1927 205.018 28.1927C204.631 27.8702 204.245 27.6443 203.858 27.5153C203.408 27.354 202.86 27.3218 202.377 27.3218C201.057 27.2895 200.027 27.4185 199.157 27.7411C198.127 28.096 197.354 28.7411 196.903 29.5153C196.646 29.9669 196.066 30.1605 195.583 29.9024C195.1 29.6443 194.939 29.0637 195.197 28.5798C195.841 27.3863 197 26.4508 198.481 25.9347C199.576 25.5476 200.799 25.354 202.377 25.3863C202.989 25.3863 203.73 25.4508 204.438 25.6766C205.05 25.8702 205.662 26.225 206.241 26.7089C207.948 28.1605 208.817 30.3863 208.495 32.354C208.399 32.8702 207.98 33.1927 207.529 33.1927Z" fill="#DFDFDF"/>
<path d="M199.962 45.2275C199.866 45.2275 199.769 45.2275 199.672 45.1952C199.157 45.034 198.867 44.5178 199.028 44.0017C199.801 41.4211 200.896 38.9372 202.313 36.6469C203.15 35.2598 204.374 33.5501 206.177 32.3888C208.366 30.9694 211.007 30.7436 212.778 30.6791C216.062 30.5823 220.635 31.0662 223.79 34.0985C224.177 34.4533 224.177 35.0985 223.822 35.4533C223.436 35.8404 222.856 35.8404 222.47 35.4856C219.83 32.9372 215.772 32.5178 212.874 32.6146C210.395 32.6791 208.624 33.1307 207.239 34.034C206.08 34.7759 205.082 35.9049 203.987 37.6791C202.667 39.8404 201.637 42.1307 200.928 44.5501C200.735 44.9372 200.349 45.2275 199.962 45.2275Z" fill="#DFDFDF"/>
<path d="M221.665 40.4545C221.568 40.4545 221.472 40.4545 221.407 40.4223C220.892 40.261 220.602 39.7448 220.763 39.2287C221.729 35.9061 223.887 33.1642 226.624 31.7771C229.747 30.1965 233.579 30.4868 236.123 32.519C236.541 32.8416 236.606 33.4545 236.284 33.8739C235.962 34.2932 235.35 34.3577 234.931 34.0352C232.999 32.4868 229.94 32.2932 227.525 33.519C225.239 34.6803 223.468 36.9384 222.631 39.7771C222.438 40.1965 222.051 40.4545 221.665 40.4545Z" fill="#DFDFDF"/>
</g>
</g>
<defs>
<clipPath id="clip0_155_1695">
<rect width="322" height="303" fill="white"/>
</clipPath>
</defs>
</svg>
