<svg xmlns="http://www.w3.org/2000/svg" xmlns:xlink="http://www.w3.org/1999/xlink" viewBox="21 24 210 200" width="500px" height="500px" fill-rule="nonzero"><g fill="none" fill-rule="nonzero" stroke="none" stroke-width="1" stroke-linecap="butt" stroke-linejoin="miter" stroke-miterlimit="10" stroke-dasharray="" stroke-dashoffset="0" font-family="none" font-weight="none" font-size="none" text-anchor="none" style="mix-blend-mode: normal"><g transform="scale(2.5,2.6)"><path d="M87.215,56.71c1.135,-2.155 1.785,-4.605 1.785,-7.21c0,-6.621 -4.159,-12.257 -10.001,-14.478c0,-0.007 0.001,-0.014 0.001,-0.022c0,-11.598 -9.402,-21 -21,-21c-9.784,0 -17.981,6.701 -20.313,15.757c-1.476,-0.485 -3.049,-0.757 -4.687,-0.757c-7.692,0 -14.023,5.793 -14.89,13.252c-5.204,1.101 -9.11,5.717 -9.11,11.248c0,6.351 5.149,11.5 11.5,11.5c0.177,0 0.352,-0.012 0.526,-0.022c-0.004,0.175 -0.026,0.346 -0.026,0.522c0,11.322 9.178,20.5 20.5,20.5c6.437,0 12.175,-2.972 15.934,-7.614c2.178,2.225 5.206,3.614 8.566,3.614c4.65,0 8.674,-2.65 10.666,-6.518c1.052,0.335 2.171,0.518 3.334,0.518c6.075,0 11,-4.925 11,-11c0,-3.311 -1.47,-6.273 -3.785,-8.29z" fill="#e3e3e2"></path><path d="M33.405,80h-9.905c-0.276,0 -0.5,-0.224 -0.5,-0.5c0,-0.276 0.224,-0.5 0.5,-0.5h9.905c0.276,0 0.5,0.224 0.5,0.5c0,0.276 -0.223,0.5 -0.5,0.5z" fill="#d1d1d1"></path><path d="M36.5,80h-1c-0.276,0 -0.5,-0.224 -0.5,-0.5c0,-0.276 0.224,-0.5 0.5,-0.5h1c0.276,0 0.5,0.224 0.5,0.5c0,0.276 -0.223,0.5 -0.5,0.5z" fill="#d1d1d1"></path><path d="M41.491,82h-8.991c-0.276,0 -0.5,-0.224 -0.5,-0.5c0,-0.276 0.224,-0.5 0.5,-0.5h8.991c0.276,0 0.5,0.224 0.5,0.5c0,0.276 -0.224,0.5 -0.5,0.5z" fill="#d1d1d1"></path><path d="M30.5,82h-1c-0.276,0 -0.5,-0.224 -0.5,-0.5c0,-0.276 0.224,-0.5 0.5,-0.5h1c0.276,0 0.5,0.224 0.5,0.5c0,0.276 -0.223,0.5 -0.5,0.5z" fill="#d1d1d1"></path><path d="M27.5,82h-2c-0.276,0 -0.5,-0.224 -0.5,-0.5c0,-0.276 0.224,-0.5 0.5,-0.5h2c0.276,0 0.5,0.224 0.5,0.5c0,0.276 -0.223,0.5 -0.5,0.5z" fill="#d1d1d1"></path><path d="M33.5,84h-2c-0.276,0 -0.5,-0.224 -0.5,-0.5c0,-0.276 0.224,-0.5 0.5,-0.5h2c0.276,0 0.5,0.224 0.5,0.5c0,0.276 -0.224,0.5 -0.5,0.5z" fill="#d1d1d1"></path><path d="M36.5,75c-0.177,0 -0.823,0 -1,0c-0.276,0 -0.5,0.224 -0.5,0.5c0,0.276 0.224,0.5 0.5,0.5c0.177,0 0.823,0 1,0c0.276,0 0.5,-0.224 0.5,-0.5c0,-0.276 -0.224,-0.5 -0.5,-0.5z" fill="#d1d1d1"></path><path d="M36.5,77c-0.177,0 -4.823,0 -5,0c-0.276,0 -0.5,0.224 -0.5,0.5c0,0.276 0.224,0.5 0.5,0.5c0.177,0 4.823,0 5,0c0.276,0 0.5,-0.224 0.5,-0.5c0,-0.276 -0.224,-0.5 -0.5,-0.5z" fill="#d1d1d1"></path><path d="M41.5,79c-0.177,0 -2.823,0 -3,0c-0.276,0 -0.5,0.224 -0.5,0.5c0,0.276 0.224,0.5 0.5,0.5c0.177,0 2.823,0 3,0c0.276,0 0.5,-0.224 0.5,-0.5c0,-0.276 -0.224,-0.5 -0.5,-0.5z" fill="#d1d1d1"></path><path d="M86.5,47h-10c-0.276,0 -0.5,-0.224 -0.5,-0.5c0,-0.276 0.224,-0.5 0.5,-0.5h10c0.276,0 0.5,0.224 0.5,0.5c0,0.276 -0.224,0.5 -0.5,0.5z" fill="#d1d1d1"></path><path d="M90.5,47h-2c-0.276,0 -0.5,-0.224 -0.5,-0.5c0,-0.276 0.224,-0.5 0.5,-0.5h2c0.276,0 0.5,0.224 0.5,0.5c0,0.276 -0.224,0.5 -0.5,0.5z" fill="#d1d1d1"></path><path d="M95.5,49h-10c-0.276,0 -0.5,-0.224 -0.5,-0.5c0,-0.276 0.224,-0.5 0.5,-0.5h10c0.276,0 0.5,0.224 0.5,0.5c0,0.276 -0.223,0.5 -0.5,0.5z" fill="#d1d1d1"></path><path d="M83.5,49h-1c-0.276,0 -0.5,-0.224 -0.5,-0.5c0,-0.276 0.224,-0.5 0.5,-0.5h1c0.276,0 0.5,0.224 0.5,0.5c0,0.276 -0.224,0.5 -0.5,0.5z" fill="#d1d1d1"></path><path d="M80.375,49h-1.875c-0.276,0 -0.5,-0.224 -0.5,-0.5c0,-0.276 0.224,-0.5 0.5,-0.5h1.875c0.276,0 0.5,0.224 0.5,0.5c0,0.276 -0.224,0.5 -0.5,0.5z" fill="#d1d1d1"></path><path d="M89.5,45h-5c-0.276,0 -0.5,-0.224 -0.5,-0.5c0,-0.276 0.224,-0.5 0.5,-0.5h5c0.276,0 0.5,0.224 0.5,0.5c0,0.276 -0.223,0.5 -0.5,0.5z" fill="#d1d1d1"></path><path d="M86.5,51h-2c-0.276,0 -0.5,-0.224 -0.5,-0.5c0,-0.276 0.224,-0.5 0.5,-0.5h2c0.276,0 0.5,0.224 0.5,0.5c0,0.276 -0.224,0.5 -0.5,0.5z" fill="#d1d1d1"></path><path d="M24.375,31h7v-0.5c0,0 5.567,0 7.5,0c1.933,0 3.5,-1.567 3.5,-3.5c0,-1.933 -1.567,-3.5 -3.5,-3.5c-0.187,0 -0.366,0.027 -0.545,0.055c-0.21,-1.168 -1.227,-2.055 -2.455,-2.055c-0.591,0 -1.128,0.214 -1.556,0.558c0.026,-0.184 0.056,-0.367 0.056,-0.558c0,-2.209 -1.791,-4 -4,-4c-1.923,0 -3.526,1.357 -3.91,3.165c-0.64,-0.71 -1.558,-1.165 -2.59,-1.165c-1.933,0 -3.5,1.567 -3.5,3.5c0,0.187 0.027,0.366 0.055,0.545c-1.72,0.221 -3.055,1.674 -3.055,3.455c0,1.933 1.567,3.5 3.5,3.5c1.933,0 3.5,0 3.5,0z" fill="#f3f3f3"></path><path d="M22.375,25.75c0,-0.947 -0.771,-1.718 -1.719,-1.718c-0.013,-0.002 -0.669,-0.002 -1.113,0.118c-0.133,0.037 -0.27,-0.042 -0.306,-0.176c-0.036,-0.133 0.043,-0.27 0.176,-0.306c0.507,-0.137 1.21,-0.127 1.244,-0.136c1.223,0 2.218,0.995 2.218,2.218c0,0.138 -0.112,0.25 -0.25,0.25c-0.138,0 -0.25,-0.112 -0.25,-0.25z" fill="#cacaca"></path><circle cx="29.375" cy="30.5" r="0.5" fill="#cacaca"></circle><path d="M16.875,27c0,-1.831 1.261,-3.41 3.004,-3.858c-0.003,-0.047 -0.004,-0.094 -0.004,-0.142c0,-2.206 1.794,-4 4,-4c0.845,0 1.667,0.276 2.347,0.774c0.687,-1.647 2.322,-2.774 4.153,-2.774c2.374,0 4.324,1.847 4.489,4.18c0.322,-0.119 0.662,-0.18 1.011,-0.18c1.289,0 2.412,0.82 2.826,2.006c0.058,-0.004 0.115,-0.006 0.174,-0.006c2.206,0 4,1.794 4,4c0,2.206 -1.794,4 -4,4h-7.5c-0.276,0 -0.5,-0.224 -0.5,-0.5c0,-0.276 0.224,-0.5 0.5,-0.5h7.5c1.654,0 3,-1.346 3,-3c0,-1.654 -1.346,-3 -3,-3c-0.16,0 -0.314,0.025 -0.468,0.049c-0.273,0.041 -0.521,-0.138 -0.569,-0.405c-0.171,-0.953 -0.997,-1.644 -1.963,-1.644c-0.449,0 -0.878,0.155 -1.243,0.448c-0.16,0.128 -0.377,0.112 -0.556,0.01c-0.179,-0.102 -0.271,-0.337 -0.242,-0.54c0.02,-0.138 0.041,-0.275 0.041,-0.418c0,-1.93 -1.57,-3.5 -3.5,-3.5c-1.641,0 -3.08,1.165 -3.422,2.769c-0.039,0.184 -0.178,0.33 -0.36,0.379c-0.179,0.05 -0.375,-0.009 -0.5,-0.148c-0.581,-0.645 -1.369,-1 -2.219,-1c-1.654,0 -3,1.346 -3,3c0,0.16 0.025,0.315 0.049,0.468c0.021,0.133 -0.013,0.269 -0.094,0.377c-0.081,0.108 -0.202,0.178 -0.336,0.196c-1.493,0.191 -2.618,1.463 -2.618,2.959c0,1.654 1.346,3 3,3h3.5c0.276,0 0.5,0.224 0.5,0.5c0,0.276 -0.224,0.5 -0.5,0.5h-3.5c-2.206,0 -4,-1.794 -4,-4z" fill="#cacaca"></path><path d="M25.875,30.5c0,0.276 0.224,0.5 0.5,0.5c0.159,0 0.841,0 1,0c0.276,0 0.5,-0.224 0.5,-0.5c0,-0.276 -0.224,-0.5 -0.5,-0.5c-0.159,0 -0.841,0 -1,0c-0.276,0 -0.5,0.224 -0.5,0.5z" fill="#cacaca"></path><path d="M76.75,29h-3v-0.5h-5.375c0,0 -7.015,0 -9.5,0c-2.485,0 -4.5,-2.015 -4.5,-4.5c0,-2.485 2.015,-4.5 4.5,-4.5c0.187,0 0.364,0.033 0.545,0.055c0.221,-1.72 1.674,-3.055 3.455,-3.055c1.087,0 2.045,0.505 2.687,1.282c-0.11,-0.412 -0.187,-0.836 -0.187,-1.282c0,-2.761 2.239,-5 5,-5c2.671,0 4.833,2.1 4.973,4.736c0.824,-1.05 2.089,-1.736 3.527,-1.736c2.485,0 4.5,2.015 4.5,4.5c0,0.187 -0.033,0.364 -0.055,0.545c2.273,0.226 4.055,2.122 4.055,4.455c0,2.485 -2.015,4.5 -4.5,4.5c-2.485,0 -6.125,0 -6.125,0z" fill="#f3f3f3"></path><path d="M70.375,11c2.555,0 4.719,1.76 5.317,4.164c0.89,-0.748 2.007,-1.164 3.183,-1.164c2.757,0 5,2.243 5,5c0,0.041 -0.001,0.082 -0.003,0.123c2.314,0.464 4.003,2.48 4.003,4.877c0,2.757 -2.243,5 -5,5h-6.125c-0.276,0 -0.5,-0.224 -0.5,-0.5c0,-0.276 0.224,-0.5 0.5,-0.5h6.124c2.206,0 4,-1.794 4,-4c0,-2.052 -1.549,-3.753 -3.604,-3.958c-0.133,-0.013 -0.256,-0.08 -0.34,-0.185c-0.084,-0.105 -0.122,-0.239 -0.106,-0.373l0.019,-0.141c0.015,-0.113 0.032,-0.226 0.032,-0.343c0,-2.206 -1.794,-4 -4,-4c-1.221,0 -2.362,0.563 -3.134,1.545c-0.096,0.123 -0.242,0.192 -0.392,0.192c-0.051,0 -0.102,-0.008 -0.152,-0.024c-0.199,-0.063 -0.338,-0.242 -0.349,-0.45c-0.127,-2.391 -2.093,-4.263 -4.474,-4.263c-2.481,0 -4.5,2.019 -4.5,4.5c0,0.351 0.054,0.717 0.17,1.153c0.06,0.227 -0.045,0.466 -0.254,0.573c-0.072,0.038 -0.15,0.056 -0.228,0.056c-0.145,0 -0.288,-0.064 -0.386,-0.182c-0.578,-0.699 -1.416,-1.1 -2.301,-1.1c-1.496,0 -2.768,1.125 -2.959,2.618c-0.033,0.252 -0.249,0.437 -0.495,0.437c-0.021,0 -0.041,-0.001 -0.062,-0.004l-0.141,-0.019c-0.113,-0.015 -0.226,-0.032 -0.343,-0.032c-2.206,0 -4,1.794 -4,4c0,2.206 1.794,4 4,4h14.875c0.276,0 0.5,0.224 0.5,0.5c0,0.276 -0.224,0.5 -0.5,0.5h-14.875c-2.757,0 -5,-2.243 -5,-5c0,-2.757 2.243,-5 5,-5c0.048,0 0.095,0.002 0.142,0.005c0.447,-1.744 2.027,-3.005 3.858,-3.005c0.71,0 1.398,0.193 2,0.547c0,-0.016 0,-0.031 0,-0.047c0,-3.033 2.467,-5.5 5.5,-5.5z" fill="#cacaca"></path><path d="M68.875,18c0.256,0 0.517,0.04 0.817,0.125c0.133,0.038 0.21,0.176 0.172,0.309c-0.032,0.109 -0.13,0.182 -0.239,0.182c-0.023,0 -0.047,-0.003 -0.07,-0.01c-0.257,-0.073 -0.474,-0.107 -0.682,-0.107c-1.288,0 -2.377,1.013 -2.479,2.305c-0.007,0.095 -0.067,0.177 -0.155,0.212c-0.03,0.013 -0.061,0.019 -0.093,0.019c-0.059,0 -0.118,-0.022 -0.165,-0.063c-0.346,-0.305 -0.784,-0.473 -1.231,-0.473c-1.034,0 -1.875,0.841 -1.875,1.875c0,0.08 -0.038,0.162 -0.102,0.209c-0.046,0.034 -0.101,0.054 -0.156,0.054c-0.022,0 -0.045,-0.003 -0.067,-0.01c-0.268,-0.085 -0.509,-0.127 -0.738,-0.127c-1.268,0 -2.33,0.997 -2.419,2.268c-0.009,0.131 -0.119,0.232 -0.249,0.232c-0.006,0 -0.012,0 -0.018,0c-0.137,-0.01 -0.241,-0.13 -0.232,-0.268c0.107,-1.532 1.389,-2.732 2.918,-2.732c0.189,0 0.382,0.022 0.585,0.068c0.155,-1.171 1.151,-2.068 2.353,-2.068c0.426,0 0.845,0.119 1.212,0.341c0.304,-1.342 1.51,-2.341 2.913,-2.341z" fill="#cacaca"></path><path d="M82.758,19.5c0.139,0 0.275,0.016 0.409,0.034c0.137,0.018 0.233,0.144 0.214,0.281c-0.017,0.125 -0.125,0.217 -0.246,0.217c-0.012,0 -0.023,-0.001 -0.035,-0.003c-0.112,-0.015 -0.225,-0.029 -0.342,-0.029c-1.104,0 -2.088,0.748 -2.393,1.818c-0.031,0.11 -0.131,0.182 -0.24,0.182c-0.022,0 -0.045,-0.003 -0.069,-0.009c-0.133,-0.038 -0.21,-0.176 -0.172,-0.309c0.366,-1.285 1.548,-2.182 2.874,-2.182z" fill="#cacaca"></path><g><circle cx="36.5" cy="65.5" r="5.8" fill="#f6f6f6"></circle><path d="M36.5,60.4c2.812,0 5.1,2.288 5.1,5.1c0,2.812 -2.288,5.1 -5.1,5.1c-2.812,0 -5.1,-2.288 -5.1,-5.1c0,-2.812 2.288,-5.1 5.1,-5.1M36.5,59c-3.59,0 -6.5,2.91 -6.5,6.5c0,3.59 2.91,6.5 6.5,6.5c3.59,0 6.5,-2.91 6.5,-6.5c0,-3.59 -2.91,-6.5 -6.5,-6.5z" fill="#cacaca"></path></g><g><circle cx="70.5" cy="65.5" r="5.8" fill="#f6f6f6"></circle><path d="M70.5,60.4c2.812,0 5.1,2.288 5.1,5.1c0,2.812 -2.288,5.1 -5.1,5.1c-2.812,0 -5.1,-2.288 -5.1,-5.1c0,-2.812 2.288,-5.1 5.1,-5.1M70.5,59c-3.59,0 -6.5,2.91 -6.5,6.5c0,3.59 2.91,6.5 6.5,6.5c3.59,0 6.5,-2.91 6.5,-6.5c0,-3.59 -2.91,-6.5 -6.5,-6.5z" fill="#cacaca"></path></g><g><circle cx="70.5" cy="65.5" r="2.5" fill="#fdfdfd"></circle><path d="M70.5,68.5c-1.654,0 -3,-1.346 -3,-3c0,-1.654 1.346,-3 3,-3c1.654,0 3,1.346 3,3c0,1.654 -1.346,3 -3,3zM70.5,63.5c-1.103,0 -2,0.897 -2,2c0,1.103 0.897,2 2,2c1.103,0 2,-0.897 2,-2c0,-1.103 -0.897,-2 -2,-2z" fill="#cacaca"></path></g><g><circle cx="36.5" cy="65.5" r="2.5" fill="#fdfdfd"></circle><path d="M36.5,68.5c-1.654,0 -3,-1.346 -3,-3c0,-1.654 1.346,-3 3,-3c1.654,0 3,1.346 3,3c0,1.654 -1.346,3 -3,3zM36.5,63.5c-1.103,0 -2,0.897 -2,2c0,1.103 0.897,2 2,2c1.103,0 2,-0.897 2,-2c0,-1.103 -0.897,-2 -2,-2z" fill="#cacaca"></path></g><g><path d="M62.261,62.3c1.355,-3.388 4.575,-5.6 8.239,-5.6c3.65,0 6.86,2.196 8.189,5.6z" fill="#d1d1d1"></path><path d="M70.5,57.4c3.004,0 5.685,1.617 7.093,4.2h-14.186c1.408,-2.583 4.089,-4.2 7.093,-4.2M70.5,56c-4.042,0 -7.485,2.527 -8.856,6.085c-0.169,0.439 0.146,0.915 0.616,0.915h16.48c0.47,0 0.786,-0.476 0.617,-0.915c-1.372,-3.558 -4.815,-6.085 -8.857,-6.085z" fill="#cacaca"></path></g><g><path d="M29.177,60.641c-0.081,-0.021 -0.149,-0.073 -0.189,-0.146c-0.025,-0.044 -0.049,-0.114 -0.024,-0.196c2.252,-7.435 7.881,-8.56 11.036,-8.568l8.227,-0.025l-0.673,6.94c-0.076,0.779 0.183,1.559 0.708,2.138c0.524,0.577 1.273,0.909 2.054,0.909c1.983,-0.014 5.197,-0.043 9.65,-0.1l0.331,-0.005l0.206,-0.258c7.46,-9.311 3.462,-18.542 1.708,-21.665l2.508,-0.004c7.727,6.09 6.862,12.784 6.643,13.942l-10.63,11.665l-13.602,0.041z" fill="#d1d1d1"></path><path d="M64.474,40.362c6.868,5.527 6.451,11.485 6.231,12.922l-10.283,11.285l-13.203,0.039l-17.449,-4.536c2.204,-6.617 7.332,-7.634 10.232,-7.642l7.453,-0.022l-0.598,6.17c-0.095,0.976 0.229,1.951 0.887,2.676c0.657,0.724 1.594,1.139 2.597,1.139v0c1.964,-0.014 5.179,-0.043 9.634,-0.1l0.661,-0.008l0.413,-0.516c7.008,-8.747 4.247,-17.441 2.313,-21.404l1.112,-0.003M64.958,38.961l-4,0.006c0,0 7.894,10.821 -1.002,21.925c-4.451,0.057 -7.664,0.086 -9.626,0.1c-0.005,0 -0.01,0 -0.016,0c-1.226,0 -2.184,-1.057 -2.065,-2.28l0.748,-7.71c0,0 -3,0.009 -9,0.027c-4.128,0.012 -9.522,1.865 -11.704,9.066c-0.16,0.529 0.172,1.084 0.707,1.223l18.042,4.69l14,-0.042l10.964,-12.033c0,0.001 1.973,-7.999 -7.048,-14.972z" fill="#cacaca"></path></g><g><path d="M62.5,39.3c-1.544,0 -2.8,-1.256 -2.8,-2.8c0,-1.544 1.256,-2.8 2.8,-2.8h5.606l-1.633,5.595l-0.006,0.005z" fill="#d1d1d1"></path><path d="M67.144,34.4l-1.2,4.2h-3.444c-1.158,0 -2.1,-0.942 -2.1,-2.1c0,-1.158 0.942,-2.1 2.1,-2.1h4.644M68.106,33h-5.606c-1.933,0 -3.5,1.567 -3.5,3.5c0,1.933 1.567,3.5 3.5,3.5h3.967c0.316,0 0.593,-0.209 0.68,-0.513l1.608,-5.628c0.123,-0.43 -0.201,-0.859 -0.649,-0.859z" fill="#cacaca"></path></g><g fill="#cacaca"><path d="M70.5,66c-0.209,0 -0.404,-0.133 -0.475,-0.342l-1,-3c-0.087,-0.262 0.055,-0.545 0.316,-0.633c0.264,-0.088 0.545,0.055 0.633,0.316l1,3c0.087,0.262 -0.055,0.545 -0.316,0.633c-0.053,0.018 -0.105,0.026 -0.158,0.026z"></path></g><g fill="#cacaca"><path d="M36.5,66c-0.075,0 -0.151,-0.017 -0.223,-0.053c-0.247,-0.124 -0.347,-0.424 -0.224,-0.671l1,-2c0.124,-0.247 0.425,-0.349 0.671,-0.224c0.247,0.124 0.347,0.424 0.224,0.671l-1,2c-0.089,0.175 -0.265,0.277 -0.448,0.277z"></path></g><g fill="#cacaca"><path d="M31.5,59.75c-0.048,0 -0.096,-0.014 -0.139,-0.042c-0.115,-0.076 -0.146,-0.231 -0.069,-0.347c0.647,-0.971 1.631,-1.869 2.846,-2.597c0.116,-0.069 0.271,-0.032 0.343,0.086c0.071,0.119 0.033,0.272 -0.086,0.344c-1.151,0.689 -2.08,1.534 -2.687,2.444c-0.048,0.073 -0.127,0.112 -0.208,0.112z"></path></g><g fill="#cacaca"><path d="M35.595,56.545c-0.096,0 -0.188,-0.056 -0.229,-0.149c-0.055,-0.127 0.002,-0.274 0.129,-0.329c0.758,-0.332 1.543,-0.588 2.334,-0.759c0.136,-0.029 0.268,0.057 0.297,0.191c0.029,0.134 -0.056,0.268 -0.191,0.297c-0.759,0.164 -1.512,0.409 -2.24,0.728c-0.032,0.014 -0.066,0.021 -0.1,0.021z"></path></g><g fill="#cacaca"><path d="M45.5,61.75c-0.138,0 -0.25,-0.112 -0.25,-0.25c0,-0.048 -0.05,-4.817 -3.811,-5.758c-0.604,-0.15 -1.292,-0.202 -2.048,-0.154c-0.116,0.023 -0.257,-0.095 -0.266,-0.233c-0.009,-0.138 0.096,-0.256 0.233,-0.265c0.809,-0.052 1.548,0.004 2.201,0.168c4.142,1.035 4.189,6.19 4.189,6.242c0.002,0.138 -0.11,0.25 -0.248,0.25z"></path></g><g fill="#cacaca"><path d="M74.367,60.809c-0.062,0 -0.123,-0.022 -0.172,-0.068c-0.722,-0.681 -1.562,-1.144 -2.498,-1.373c-0.134,-0.033 -0.216,-0.169 -0.184,-0.303c0.033,-0.134 0.171,-0.214 0.303,-0.184c1.021,0.252 1.937,0.755 2.723,1.496c0.1,0.095 0.104,0.253 0.01,0.354c-0.049,0.051 -0.115,0.078 -0.182,0.078z"></path></g><g fill="#cacaca"><path d="M68.861,59.372c-0.107,0 -0.207,-0.07 -0.239,-0.179c-0.04,-0.132 0.035,-0.271 0.167,-0.311c0.027,-0.008 0.688,-0.196 1.66,-0.183c0.138,0.003 0.247,0.118 0.244,0.256c-0.003,0.138 -0.1,0.243 -0.256,0.244c-0.872,-0.022 -1.499,0.16 -1.505,0.161c-0.023,0.009 -0.047,0.012 -0.071,0.012z"></path></g><g fill="#cacaca"><path d="M62.5,40h-6c-0.276,0 -0.5,-0.224 -0.5,-0.5c0,-0.276 0.224,-0.5 0.5,-0.5h6c0.276,0 0.5,0.224 0.5,0.5c0,0.276 -0.224,0.5 -0.5,0.5z"></path></g><g fill="#cacaca"><path d="M47,52.5h-22c-0.552,0 -1,-0.447 -1,-1c0,-0.553 0.448,-1 1,-1h22c0.552,0 1,0.447 1,1c0,0.553 -0.448,1 -1,1z"></path></g><g><path d="M28.17,50.8l0.03,-10.13l11.63,0.03l-0.03,10.1z" fill="#d1d1d1"></path><path d="M39.1,41.4v8.7h-10.2v-8.7h10.2M39.83,40h-11.66c-0.37,0 -0.67,0.3 -0.67,0.67v10.16c0,0.37 0.3,0.67 0.67,0.67h11.66c0.37,0 0.67,-0.3 0.67,-0.67v-10.16c0,-0.37 -0.3,-0.67 -0.67,-0.67z" fill="#cacaca"></path></g><g><path d="M40.7,51.3v-1.247c0,-1.849 1.504,-3.353 3.353,-3.353h5.947c1.269,0 2.3,1.032 2.3,2.3c0,1.269 -1.031,2.3 -2.3,2.3z" fill="#d1d1d1"></path><path d="M50,47.4c0.882,0 1.6,0.718 1.6,1.6c0,0.882 -0.718,1.6 -1.6,1.6h-8.6v-0.547c0,-1.463 1.19,-2.653 2.653,-2.653h5.947M50,46h-5.947c-2.238,0 -4.053,1.815 -4.053,4.053v1.947h10c1.657,0 3,-1.343 3,-3c0,-1.657 -1.343,-3 -3,-3z" fill="#cacaca"></path></g></g></g></svg>