<svg width="331" height="318" viewBox="0 0 331 318" fill="none" xmlns="http://www.w3.org/2000/svg">
<path d="M128.813 14.7572C128.813 14.7572 180.919 -5.94772 205.999 25.129C231.08 56.2058 170.053 96.7998 233.056 127.807C277.545 149.704 254.787 208.936 207.688 201.33C154.088 192.679 190.547 162.488 72.1903 180.416C13.5876 189.311 -29.7187 64.9228 128.813 14.7572Z" fill="#EFEFEF"/>
<path d="M25.217 57.7985C25.217 57.7985 31.352 44.4161 40.1128 46.2034C48.8736 47.9907 41.3603 64.6084 33.5197 67.3201C25.6792 70.0317 22.3295 62.408 25.217 57.7985Z" fill="#EFEFEF"/>
<path d="M19.1843 84.8244C15.2783 83.7855 13.4256 79.3479 15.2334 75.7323C16.6608 72.8693 19.0739 70.1454 22.9553 70.9756C30.4727 72.5871 26.4849 80.2354 23.851 83.5565C22.714 84.9634 20.399 85.1434 19.1843 84.8244Z" fill="#EFEFEF"/>
<path d="M227.288 41.7689C227.288 41.7689 222.38 28.7095 228.781 24.0633C235.181 19.417 241.39 35.3312 238.462 42.0593C235.533 48.7873 228.564 46.411 227.288 41.7689Z" fill="#EFEFEF"/>
<path d="M217.423 16.6634C218.429 20.0949 222.396 21.6368 225.553 19.9558C228.036 18.6307 230.408 16.4343 229.586 13.0028C227.995 6.38929 220.973 6.74512 218.11 11.8249C217.328 13.2278 217.112 15.6 217.423 16.6634Z" fill="#EFEFEF"/>
<path d="M167.623 317.501C257.665 317.501 330.658 314.128 330.658 309.967C330.658 305.807 257.665 302.434 167.623 302.434C77.5807 302.434 4.58716 305.807 4.58716 309.967C4.58716 314.128 77.5807 317.501 167.623 317.501Z" fill="#EFEFEF"/>
<path d="M241.832 310.046C222.474 267.796 216.065 236.426 222.74 221.783C222.8 221.649 222.834 221.504 222.839 221.357C222.843 221.21 222.819 221.063 222.767 220.925C222.715 220.787 222.636 220.661 222.535 220.554C222.435 220.446 222.314 220.36 222.179 220.299C222.045 220.238 221.9 220.204 221.753 220.2C221.605 220.195 221.459 220.219 221.321 220.272C221.183 220.324 221.057 220.402 220.949 220.503C220.842 220.604 220.755 220.725 220.695 220.859C216.846 229.334 217.12 242.381 221.513 259.636C224.821 272.643 231.488 292.434 239.345 310.046H241.832Z" fill="#E9E9E9"/>
<path d="M218.887 243.925C218.887 243.925 210.13 247.164 205.038 231.544C205.038 231.544 219.852 230.387 218.887 243.925Z" fill="#EFEFEF"/>
<path d="M221.079 252.113C221.079 252.113 217.357 243.549 232.674 237.594C232.69 237.594 234.666 252.322 221.079 252.113Z" fill="#EFEFEF"/>
<path d="M219.77 228.038C219.77 228.038 213.406 221.204 225.856 210.488C225.856 210.488 232.633 223.711 219.77 228.038Z" fill="#EFEFEF"/>
<path d="M225.034 268.729C225.034 268.729 217.885 274.741 207.811 261.776C207.811 261.764 221.357 255.666 225.034 268.729Z" fill="#EFEFEF"/>
<path d="M228.547 276.749C228.547 276.749 223.398 268.937 237.439 260.426C237.439 260.426 241.938 274.585 228.547 276.749Z" fill="#EFEFEF"/>
<path d="M232.269 288.161C232.269 288.161 225.238 294.296 214.915 281.523C214.915 281.523 228.347 275.167 232.269 288.161Z" fill="#EFEFEF"/>
<path d="M235.149 296.991C235.149 296.991 244.478 297.367 244.494 280.938C244.494 280.938 230.048 284.414 235.149 296.991Z" fill="#EFEFEF"/>
<path d="M307.856 309.774C306.871 304.318 307.39 301.917 311.075 299.038C315.247 295.766 319.447 294.171 316.249 289.014C313.051 283.856 319.112 279.844 322.249 277.067C325.386 274.29 321.84 272.2 321.022 266.952C320.204 261.705 325.824 262.49 326.261 255.889C326.699 249.287 319.983 241.574 325.754 232.457C325.754 232.457 318.004 236.482 315.46 243.545C312.916 250.608 314.973 256.065 310.392 258.752C305.811 261.439 302.948 266.085 304.507 270.85C306.065 275.615 303.852 278.142 300.098 281.623C296.343 285.103 297.345 286.482 297.815 290.731C298.286 294.981 297.345 293.967 293.063 299.774C290.928 302.658 289.828 306.457 290.609 309.783L307.856 309.774Z" fill="#E9E9E9"/>
<path d="M300.4 309.78L318.691 254.185C318.712 254.122 318.72 254.055 318.716 253.988C318.711 253.921 318.693 253.856 318.663 253.797C318.633 253.737 318.591 253.684 318.541 253.64C318.49 253.597 318.431 253.564 318.368 253.543C318.24 253.503 318.101 253.515 317.982 253.576C317.862 253.637 317.772 253.743 317.73 253.87L299.325 309.784L300.4 309.78Z" fill="#DBDBDB"/>
<path d="M280.18 265.011C282.584 269.072 287.709 275.469 282.494 279.898C277.28 284.328 281.235 287.506 284.589 292.447C287.942 297.387 287.153 300.254 283.038 307.42C282.621 308.114 282.344 308.882 282.22 309.682L303.488 309.907C304.887 306.762 304.863 302.86 303.709 299.453C301.104 291.739 299.75 292.5 301.717 288.091C303.685 283.682 305.239 282.557 302.409 277.53C299.578 272.504 298.081 269.023 301.398 264.442C304.715 259.861 303.239 253.89 299.251 249.428C295.263 244.966 299.353 239.82 299.063 231.358C298.773 222.896 291.836 215.906 291.836 215.906C294.887 227.661 285.014 233.632 283.206 240.88C281.398 248.127 287.73 249.232 285.026 254.573C282.323 259.915 277.775 260.945 280.18 265.011Z" fill="#EFEFEF"/>
<path d="M293.509 309.798L293.063 241.666C293.061 241.516 293 241.372 292.894 241.265C292.788 241.158 292.645 241.097 292.494 241.094C292.342 241.095 292.197 241.156 292.089 241.264C291.982 241.372 291.922 241.518 291.922 241.67L292.388 309.785L293.509 309.798Z" fill="#E9E9E9"/>
<path d="M324.274 308.459C324.274 308.459 332.671 303.343 330.204 300.733C327.738 298.124 321.235 306.954 321.235 306.954C321.235 306.954 322.257 295.891 317.754 295.891C313.403 295.891 318.196 308.459 318.196 308.459H324.274Z" fill="#EFEFEF"/>
<path d="M253.091 204.664H329.362V210.39C329.362 210.675 329.248 210.949 329.047 211.151C328.845 211.352 328.571 211.466 328.286 211.466H254.163C253.878 211.466 253.604 211.352 253.402 211.151C253.201 210.949 253.087 210.675 253.087 210.39V204.664H253.091Z" fill="#EFEFEF"/>
<path d="M326.846 207.181H255.607C254.94 207.181 254.3 206.916 253.828 206.445C253.356 205.973 253.091 205.333 253.091 204.666V30.9841C253.091 30.317 253.356 29.6772 253.828 29.2055C254.3 28.7338 254.94 28.4688 255.607 28.4688H326.846C327.513 28.4688 328.153 28.7338 328.625 29.2055C329.097 29.6772 329.362 30.317 329.362 30.9841V204.666C329.362 205.333 329.097 205.973 328.625 206.445C328.153 206.916 327.513 207.181 326.846 207.181ZM258.134 202.151H324.331V33.4994H258.122L258.134 202.151Z" fill="#E9E9E9"/>
<path d="M326.846 120.337H255.607C255.268 120.351 254.93 120.296 254.613 120.176C254.297 120.056 254.007 119.873 253.763 119.638C253.519 119.403 253.324 119.122 253.191 118.81C253.058 118.498 252.99 118.163 252.99 117.824C252.99 117.485 253.058 117.15 253.191 116.838C253.324 116.526 253.519 116.245 253.763 116.01C254.007 115.775 254.297 115.592 254.613 115.472C254.93 115.352 255.268 115.297 255.607 115.311H326.846C327.185 115.297 327.523 115.352 327.84 115.472C328.157 115.592 328.446 115.775 328.69 116.01C328.935 116.245 329.129 116.526 329.262 116.838C329.395 117.15 329.463 117.485 329.463 117.824C329.463 118.163 329.395 118.498 329.262 118.81C329.129 119.122 328.935 119.403 328.69 119.638C328.446 119.873 328.157 120.056 327.84 120.176C327.523 120.296 327.185 120.351 326.846 120.337Z" fill="#E9E9E9"/>
<path d="M209.042 45.293H71.7449V293.675H209.042V45.293Z" fill="#EDEDED"/>
<path d="M196.999 62H83.999V277H196.999V62Z" fill="white"/>
<g style="mix-blend-mode:multiply">
<path d="M196.842 171.816H83.9045V176.303H196.842V171.816Z" fill="#EFEFEF"/>
</g>
<g style="mix-blend-mode:multiply">
<path d="M209.042 61.9727V65.5269L71.7449 75.1384V61.9727H209.042Z" fill="#EFEFEF"/>
</g>
<path d="M233.787 42.5053V61.9697H46.252V42.5053C68.8533 38.3949 76.0681 0.0429688 76.0681 0.0429688H203.962C203.962 0.0429688 211.177 38.399 233.787 42.5053Z" fill="white"/>
<path d="M233.787 42.5039H46.2561V61.9723H233.787V42.5039Z" fill="#EFEFEF"/>
<path d="M96.9189 0.0429688C96.9189 0.0429688 92.6735 38.399 70.0681 42.5053V61.9697H46.2561V42.5053C68.8615 38.4153 76.0722 0.0429688 76.0722 0.0429688H96.9189Z" fill="#E6E6E6"/>
<path d="M233.791 42.5053V61.9697H209.975V42.5053C187.369 38.4153 181.913 0.0429688 181.913 0.0429688H203.97C203.97 0.0429688 211.181 38.399 233.791 42.5053Z" fill="#E6E6E6"/>
<path d="M123.295 42.6362V61.9697H100.98L100.424 42.5053C114.62 31.6137 115.737 0.0429688 115.737 0.0429688H130.441C131.124 22.8652 123.295 42.6362 123.295 42.6362Z" fill="#E6E6E6"/>
<path d="M176.952 42.5053L176.388 61.9697H154.077V42.6362C154.077 42.6362 146.232 22.8652 146.936 0.0429688H161.66C161.66 0.0429688 162.76 31.6137 176.952 42.5053Z" fill="#E6E6E6"/>
<path d="M70.0681 42.5039H46.2561V61.9723H70.0681V42.5039Z" fill="#EFEFEF"/>
<path d="M233.791 42.5039V61.9682H209.975V42.5039H233.791Z" fill="#EFEFEF"/>
<path d="M123.349 42.5039C123.312 42.5898 123.295 42.6348 123.295 42.6348V61.9682H100.98L100.424 42.5039H123.349Z" fill="#EFEFEF"/>
<path d="M176.952 42.5039L176.388 61.9682H154.077V42.6348C154.077 42.6348 154.056 42.5898 154.023 42.5039H176.952Z" fill="#EFEFEF"/>
<path d="M60.383 286.707H220.637C221.541 286.707 222.435 286.885 223.27 287.231C224.105 287.576 224.863 288.083 225.502 288.722C226.141 289.361 226.647 290.119 226.993 290.954C227.339 291.788 227.517 292.683 227.517 293.586V302.433C227.517 302.641 227.434 302.841 227.287 302.988C227.139 303.136 226.94 303.218 226.731 303.218H54.2848C54.0765 303.218 53.8768 303.136 53.7295 302.988C53.5822 302.841 53.4995 302.641 53.4995 302.433V293.586C53.4995 292.683 53.6776 291.788 54.0236 290.953C54.3695 290.118 54.8766 289.359 55.5159 288.721C56.1551 288.082 56.914 287.575 57.7491 287.23C58.5842 286.884 59.4792 286.706 60.383 286.707Z" fill="#DDDDDD"/>
<path d="M49.896 296.875H231.165C232.042 296.874 232.911 297.047 233.722 297.382C234.533 297.718 235.27 298.21 235.89 298.83C236.511 299.45 237.003 300.186 237.339 300.997C237.675 301.808 237.848 302.677 237.848 303.554V311.264H43.217V303.554C43.217 301.783 43.9207 300.084 45.1733 298.831C46.4258 297.579 48.1246 296.875 49.896 296.875Z" fill="#E9E9E9"/>
<path d="M172.572 107.648H108.285C107.702 107.648 107.23 108.121 107.23 108.704V144.152C107.23 144.734 107.702 145.207 108.285 145.207H172.572C173.154 145.207 173.627 144.734 173.627 144.152V108.704C173.627 108.121 173.154 107.648 172.572 107.648Z" fill="#EDEDED"/>
<path d="M110.976 110.832H169.872C170.021 110.832 170.163 110.891 170.268 110.996C170.374 111.101 170.433 111.244 170.433 111.392V124.043H110.412V111.392C110.412 111.318 110.426 111.245 110.455 111.177C110.483 111.109 110.525 111.047 110.577 110.995C110.63 110.943 110.692 110.901 110.761 110.874C110.829 110.846 110.902 110.832 110.976 110.832Z" fill="#E6E6E6"/>
<path d="M110.412 124.047H170.441V142.129C170.441 142.277 170.382 142.42 170.277 142.525C170.172 142.63 170.029 142.689 169.88 142.689H110.984C110.836 142.689 110.693 142.63 110.588 142.525C110.483 142.42 110.424 142.277 110.424 142.129V124.047H110.412Z" fill="white"/>
<path d="M171.893 109.023C171.781 109.022 171.673 108.988 171.582 108.924L140.371 86.5971L109.16 108.924C109.044 108.994 108.906 109.017 108.773 108.989C108.641 108.961 108.524 108.885 108.445 108.774C108.366 108.664 108.332 108.529 108.348 108.394C108.365 108.26 108.431 108.137 108.534 108.049L140.06 85.4969C140.151 85.4328 140.26 85.3984 140.371 85.3984C140.482 85.3984 140.591 85.4328 140.682 85.4969L172.207 108.049C172.301 108.115 172.371 108.209 172.407 108.318C172.443 108.426 172.443 108.543 172.408 108.652C172.373 108.76 172.304 108.855 172.211 108.922C172.118 108.989 172.007 109.024 171.893 109.023Z" fill="#EDEDED"/>
<path d="M143.222 86.0193C143.222 86.5855 143.054 87.139 142.739 87.6098C142.425 88.0807 141.978 88.4476 141.454 88.6643C140.931 88.881 140.356 88.9377 139.8 88.8272C139.245 88.7168 138.735 88.4441 138.334 88.0437C137.934 87.6433 137.661 87.1332 137.551 86.5778C137.44 86.0224 137.497 85.4468 137.714 84.9236C137.93 84.4005 138.297 83.9533 138.768 83.6387C139.239 83.3242 139.793 83.1562 140.359 83.1562C141.118 83.1562 141.846 83.4579 142.383 83.9948C142.92 84.5317 143.222 85.2599 143.222 86.0193Z" fill="white"/>
<path d="M40.9882 260.693C40.7469 260.693 40.5153 260.598 40.3432 260.429C40.171 260.26 40.0722 260.03 40.0679 259.789C39.892 250.194 47.5812 246.039 47.9084 245.883C48.1254 245.769 48.3787 245.746 48.6126 245.819C48.8466 245.892 49.042 246.055 49.1559 246.272C49.2698 246.489 49.2928 246.742 49.22 246.976C49.1471 247.21 48.9843 247.405 48.7673 247.519C47.4379 248.303 46.2491 249.304 45.2499 250.48C42.9974 253.043 41.8029 256.366 41.9084 259.777C41.9111 259.898 41.8898 260.018 41.8458 260.131C41.8017 260.244 41.7358 260.347 41.6517 260.434C41.5677 260.521 41.4672 260.59 41.3561 260.638C41.245 260.686 41.1255 260.712 41.0045 260.714L40.9882 260.693Z" fill="#EFEFEF"/>
<path d="M38.0147 236.871C38.0147 236.871 27.307 216.678 65.7162 202.515C66.1645 202.348 66.6497 202.305 67.1203 202.391C67.5908 202.477 68.0293 202.69 68.3891 203.005C68.7489 203.32 69.0166 203.727 69.1638 204.182C69.3111 204.637 69.3324 205.124 69.2255 205.59C66.8042 216.11 58.8532 240.691 38.0147 236.871Z" fill="#ECECEC"/>
<path d="M27.4748 258.87H27.3439C27.2241 258.853 27.1088 258.813 27.0046 258.751C26.9005 258.689 26.8095 258.608 26.7369 258.511C26.6644 258.414 26.6116 258.304 26.5817 258.186C26.5518 258.069 26.5454 257.947 26.5627 257.827C29.2253 239.455 42.9227 230.911 44.4646 230.015C44.6752 229.889 44.9273 229.851 45.1657 229.91C45.4041 229.969 45.6094 230.12 45.7366 230.33C45.7989 230.434 45.8402 230.548 45.8581 230.667C45.876 230.787 45.8701 230.908 45.8409 231.025C45.8116 231.143 45.7595 231.253 45.6876 231.349C45.6157 231.446 45.5253 231.528 45.4217 231.59H45.4013C42.5119 233.402 39.9058 235.631 37.6671 238.203C32.6592 243.761 29.4274 250.689 28.3869 258.097C28.3518 258.314 28.2407 258.51 28.0735 258.652C27.9063 258.794 27.694 258.871 27.4748 258.87Z" fill="#ECECEC"/>
<path d="M33.119 258.87H33.0741C32.8303 258.859 32.601 258.751 32.4363 258.571C32.2715 258.391 32.1847 258.153 32.1947 257.909C32.5669 250.044 27.5771 242.874 27.528 242.805C27.387 242.605 27.331 242.358 27.3725 242.117C27.4139 241.876 27.5493 241.661 27.7489 241.52C27.9485 241.379 28.1959 241.323 28.4367 241.365C28.6776 241.406 28.8921 241.542 29.0331 241.741C29.254 242.052 34.4401 249.512 34.0393 257.995C34.0277 258.231 33.9257 258.454 33.7544 258.617C33.583 258.78 33.3555 258.871 33.119 258.87Z" fill="#ECECEC"/>
<path d="M35.7692 260.218H35.7446C35.6234 260.215 35.5039 260.188 35.393 260.139C35.2821 260.09 35.182 260.02 35.0983 259.932C35.0147 259.844 34.9493 259.741 34.9058 259.628C34.8623 259.515 34.8416 259.394 34.8448 259.273L35.6301 229.371C35.6507 229.136 35.76 228.919 35.9356 228.762C36.1113 228.605 36.3402 228.521 36.5755 228.528C36.8108 228.534 37.0348 228.63 37.2019 228.796C37.369 228.961 37.4666 229.185 37.4747 229.42L36.6894 259.322C36.683 259.562 36.5832 259.789 36.4113 259.957C36.2395 260.124 36.009 260.218 35.7692 260.218Z" fill="#EFEFEF"/>
<path d="M29.352 243.306C29.352 243.306 7.58098 250.23 0.50937 209.907C0.424946 209.436 0.46955 208.951 0.638446 208.504C0.807343 208.056 1.09424 207.663 1.46869 207.365C1.84315 207.067 2.29121 206.876 2.76534 206.813C3.23948 206.749 3.722 206.815 4.16174 207.003C14.0759 211.269 36.8367 223.486 29.352 243.306Z" fill="#ECECEC"/>
<path d="M43.4665 251.071C43.4665 251.071 63.0494 262.863 79.2745 225.28C79.4685 224.84 79.5395 224.357 79.4799 223.88C79.4204 223.404 79.2326 222.953 78.9365 222.575C78.6404 222.197 78.2472 221.906 77.7988 221.734C77.3505 221.562 76.8639 221.515 76.391 221.599C65.7652 223.451 40.7876 230.053 43.4665 251.071Z" fill="#EFEFEF"/>
<path d="M39.8919 239.713C39.5548 240.406 39.0175 240.981 38.3494 241.365C37.6814 241.749 36.9135 241.924 36.1451 241.867C35.3767 241.81 34.6431 241.523 34.0394 241.044C33.4357 240.565 32.9897 239.916 32.759 239.181C28.1127 224.347 20.3295 192.911 36.44 189.283C54.5096 185.254 48.4523 221.97 39.8919 239.713Z" fill="#EFEFEF"/>
<path d="M36.162 241.727C36.0959 241.724 36.031 241.709 35.971 241.681C35.9109 241.653 35.857 241.614 35.8121 241.565C35.7673 241.517 35.7325 241.46 35.7097 241.398C35.687 241.335 35.6766 241.27 35.6794 241.203L37.3808 199.171C37.3863 199.037 37.4445 198.911 37.5426 198.821C37.6408 198.73 37.7709 198.682 37.9043 198.688C38.0378 198.693 38.1636 198.752 38.2541 198.85C38.3446 198.948 38.3924 199.078 38.387 199.211L36.661 241.244C36.6567 241.374 36.6023 241.497 36.5092 241.587C36.4161 241.677 36.2916 241.727 36.162 241.727Z" fill="#ECECEC"/>
<path d="M44.0065 251.133C43.9028 251.132 43.8018 251.1 43.7171 251.041C43.6324 250.981 43.5682 250.897 43.5333 250.799C43.4984 250.701 43.4945 250.595 43.5221 250.496C43.5496 250.396 43.6074 250.307 43.6874 250.241L66.9636 231.194C67.0144 231.151 67.0732 231.12 67.1364 231.1C67.1996 231.081 67.2661 231.074 67.332 231.081C67.3978 231.087 67.4617 231.106 67.5199 231.138C67.5782 231.169 67.6296 231.212 67.6712 231.263C67.7557 231.366 67.7959 231.499 67.7828 231.632C67.7698 231.764 67.7046 231.886 67.6017 231.971L44.3214 251.018C44.2335 251.093 44.1217 251.133 44.0065 251.133Z" fill="#ECECEC"/>
<path d="M60.8002 256.895L59.4995 262.845L59.1274 264.559L59.0783 264.784L58.338 268.179L58.1826 268.89L57.9617 269.893L57.7572 270.833L52.1866 296.281L51.8103 297.995L51.0169 301.615L50.6447 303.328L48.8942 311.32H25.1313L23.3808 303.328L23.0045 301.615L22.2151 297.995L21.8388 296.281L16.2641 270.833L16.0556 269.893L15.8388 268.89L15.6834 268.179L14.9431 264.784L14.894 264.559L14.5177 262.845L13.2212 256.895H60.8002Z" fill="#E6E6E6"/>
<path d="M59.4994 262.848L59.1272 264.561H14.8939L14.5176 262.848H59.4994Z" fill="#EFEFEF"/>
<path d="M58.338 268.18L58.1825 268.891L57.9617 269.893H16.0555L15.8388 268.891L15.6833 268.18H58.338Z" fill="#EFEFEF"/>
<path d="M52.1864 296.281L51.8101 297.995H22.2149L21.8386 296.281H52.1864Z" fill="#EFEFEF"/>
<path d="M51.0168 301.613L50.6446 303.327H23.3807L23.0044 301.613H51.0168Z" fill="#EFEFEF"/>
</svg>
