<svg xmlns="http://www.w3.org/2000/svg" xmlns:xlink="http://www.w3.org/1999/xlink" viewBox="0,0,256,256" width="256px" height="256px" fill-rule="nonzero"><g fill="none" fill-rule="nonzero" stroke="none" stroke-width="1" stroke-linecap="butt" stroke-linejoin="miter" stroke-miterlimit="10" stroke-dasharray="" stroke-dashoffset="0" font-family="none" font-weight="none" font-size="none" text-anchor="none" style="mix-blend-mode: normal"><g transform="scale(0.49231,0.49231)"><path d="M207.559,170c-2.761,0 -5,-2.239 -5,-5v-5c0,-12.816 -4.843,-25.004 -13.636,-34.317c-9.55,-10.113 -22.465,-15.683 -36.364,-15.683c-13.345,0 -25.901,5.202 -35.356,14.647c-9.442,9.443 -14.644,21.999 -14.644,35.353v5c0,2.761 -2.238,5 -5,5c-2.761,0 -5,-2.239 -5,-5v-5c0,-16.025 6.241,-31.093 17.574,-42.426c11.346,-11.333 26.412,-17.574 42.426,-17.574c16.679,0 32.175,6.683 43.636,18.817c10.553,11.178 16.364,25.803 16.364,41.183v5c0,2.761 -2.238,5 -5,5z" fill="#e6e6e6"></path><path d="M337.559,165v0v-0.001c-14.955,0 -158.971,0.001 -210,0.001c0,18.125 -0.001,296.83 -0.001,314.998h0.001v0.002c9.854,0 187.625,-0.002 210,-0.002c0,-18.125 0,-296.831 0,-314.998z" fill="#dedddc"></path><path d="M487.189,215.36c-3.02,-33 -32.221,-57.31 -65.221,-54.29c-33,3.01 -57.299,32.21 -54.289,65.21c2.539,27.73 23.57,49.331 49.799,53.72h0.08v0.01c4.961,0.83 10.1,1.04 15.34,0.561c33,-3.021 57.301,-32.211 54.291,-65.211z" fill="#e6e6e6"></path><path d="M440.02,258.75c-3.77,-3.14 -4.291,-8.74 -1.15,-12.51c3.141,-3.78 8.75,-4.29 12.52,-1.15c3.781,3.14 4.291,8.75 1.15,12.52c-3.142,3.77 -8.751,4.29 -12.52,1.14z" fill="#bebebe"></path><path d="M458.26,196.12c0,2 -0.68,4.02 -2.061,5.68l-40.9,49.14c-3.141,3.77 -8.75,4.28 -12.52,1.14c-3.77,-3.14 -4.279,-8.75 -1.141,-12.52l40.9,-49.13c3.141,-3.78 8.75,-4.29 12.52,-1.15c2.112,1.76 3.202,4.29 3.202,6.84z" fill="#bebebe"></path><path d="M417.818,182.87c3.771,3.14 4.291,8.75 1.15,12.52c-3.15,3.77 -8.75,4.28 -12.52,1.14c-3.779,-3.14 -4.291,-8.74 -1.15,-12.52c3.141,-3.77 8.751,-4.28 12.52,-1.14z" fill="#bebebe"></path><path d="M462.559,345c8.291,0 15,6.72 15,15c0,8.28 -6.709,15 -15,15c-8.279,0 -15,-6.72 -15,-15c0,-8.28 6.72,-15 15,-15z" fill="#d1ccc9"></path><path d="M360.059,50c12.43,0 22.5,10.07 22.5,22.5c0,12.43 -10.07,22.5 -22.5,22.5c-12.42,0 -22.5,-10.07 -22.5,-22.5c0,-12.43 10.08,-22.5 22.5,-22.5z" fill="#d1ccc9"></path><path d="M62.559,75c16.57,0 30,13.43 30,30c0,16.57 -13.43,30 -30,30c-16.56,0 -30,-13.43 -30,-30c0,-16.57 13.441,-30 30,-30z" fill="#d1ccc9"></path><path d="M98.559,165h-50v315h80v-25v-290z" fill="#cfcfcf"></path><path d="M128.559,480h-80l40,-40z" fill="#cccbcb"></path><path d="M417.559,455v25h-165v-200h85h79.92c0.031,0.01 0.061,0.01 0.08,0.01z" fill="#cfcfcf"></path><path d="M450.059,430c4.15,0 7.5,3.36 7.5,7.5c0,4.14 -3.35,7.5 -7.5,7.5c-4.139,0 -7.5,-3.36 -7.5,-7.5c0,-4.14 3.361,-7.5 7.5,-7.5z" fill="#dfdfdf"></path><path d="M445.059,105c4.15,0 7.5,3.36 7.5,7.5c0,4.14 -3.35,7.5 -7.5,7.5c-4.139,0 -7.5,-3.36 -7.5,-7.5c0,-4.14 3.361,-7.5 7.5,-7.5z" fill="#dfdfdf"></path><path d="M310.059,40c4.15,0 7.5,3.36 7.5,7.5c0,4.14 -3.35,7.5 -7.5,7.5c-4.139,0 -7.5,-3.36 -7.5,-7.5c0,-4.14 3.361,-7.5 7.5,-7.5z" fill="#dfdfdf"></path><path d="M200.059,60c4.15,0 7.5,3.36 7.5,7.5c0,4.14 -3.35,7.5 -7.5,7.5c-4.14,0 -7.5,-3.36 -7.5,-7.5c0,-4.14 3.36,-7.5 7.5,-7.5z" fill="#dfdfdf"></path><path d="M80.059,40c4.15,0 7.5,3.36 7.5,7.5c0,4.14 -3.35,7.5 -7.5,7.5c-4.14,0 -7.5,-3.36 -7.5,-7.5c0,-4.14 3.36,-7.5 7.5,-7.5z" fill="#dfdfdf"></path><path d="M287.559,210c-2.76,0 -5,-2.239 -5,-5v-45c0,-13.363 -5.199,-25.919 -14.643,-35.353c-9.447,-9.446 -22.002,-14.647 -35.357,-14.647c-13.898,0 -26.813,5.57 -36.364,15.683c-8.793,9.313 -13.636,21.5 -13.636,34.317v45c0,2.761 -2.238,5 -5,5c-2.761,0 -5,-2.239 -5,-5v-45c0,-15.38 5.812,-30.006 16.364,-41.183c11.461,-12.134 26.957,-18.817 43.636,-18.817c16.025,0 31.093,6.241 42.425,17.574c11.332,11.322 17.574,26.389 17.574,42.426v45c0.001,2.761 -2.238,5 -4.999,5z" fill="#e6e6e6"></path><path d="M88.559,455c-2.761,0 -5,-2.238 -5,-5v-155c0,-2.762 2.239,-5 5,-5c2.762,0 5,2.238 5,5v155c0,2.762 -2.238,5 -5,5z" fill="#cccbcb"></path><path d="M187.559,210h-20c-2.761,0 -5,-2.239 -5,-5c0,-2.761 2.239,-5 5,-5h20c2.762,0 5,2.239 5,5c0,2.761 -2.238,5 -5,5z" fill="#c5bbb4"></path><path d="M297.559,210h-20c-2.76,0 -5,-2.239 -5,-5c0,-2.761 2.24,-5 5,-5h20c2.762,0 5,2.239 5,5c0,2.761 -2.239,5 -5,5z" fill="#c5bbb4"></path><path d="M335.059,370c-10.016,0 -19.432,-3.9 -26.516,-10.984c-7.082,-7.084 -10.984,-16.501 -10.984,-26.516v-27.5c0,-2.762 2.24,-5 5,-5c2.762,0 5,2.238 5,5v27.5c0,7.344 2.861,14.25 8.057,19.445c5.193,5.194 12.1,8.055 19.443,8.055c15.164,0 27.5,-12.337 27.5,-27.5v-27.5c0,-2.762 2.24,-5 5,-5c2.762,0 5,2.238 5,5v27.5c0,20.678 -16.823,37.5 -37.5,37.5z" fill="#e3e3e3"></path><path d="M372.559,310h-10c-2.76,0 -5,-2.238 -5,-5c0,-2.762 2.24,-5 5,-5h10c2.762,0 5,2.238 5,5c0,2.762 -2.239,5 -5,5z" fill="#c5bbb4"></path><path d="M307.559,310h-10c-2.76,0 -5,-2.238 -5,-5c0,-2.762 2.24,-5 5,-5h10c2.762,0 5,2.238 5,5c0,2.762 -2.239,5 -5,5z" fill="#c5bbb4"></path><path d="M197.559,460h-70c-2.761,0 -5,-2.238 -5,-5c0,-2.762 2.239,-5 5,-5h70c2.762,0 5,2.238 5,5c0,2.762 -2.238,5 -5,5z" fill="#cfcfcf"></path></g></g></svg>