<svg width="33" height="28" viewBox="0 0 33 28" fill="none" xmlns="http://www.w3.org/2000/svg">
<path d="M32.2683 5.84786V5.84474L32.2652 5.8229C31.7148 4.25582 30.7272 2.87878 29.4188 1.85437C28.1105 0.829964 26.5361 0.200959 24.8816 0.0416188C23.227 -0.117721 21.5613 0.199259 20.0813 0.955133C18.6012 1.71101 17.3684 2.87421 16.5286 4.30742C15.6888 2.87421 14.4561 1.71101 12.976 0.955133C11.4959 0.199259 9.83028 -0.117721 8.17571 0.0416188C6.52115 0.200959 4.94676 0.829964 3.63842 1.85437C2.33009 2.87878 1.34244 4.25582 0.792076 5.8229L0.788954 5.84474V5.84786C-2.86855 16.9154 15.1598 26.8812 15.9291 27.3004C16.1114 27.4002 16.3159 27.4523 16.5236 27.452H16.5268C16.7345 27.4523 16.939 27.4002 17.1213 27.3004C17.8906 26.8812 35.9183 16.9154 32.2683 5.84786Z" fill="#FF7020"/>
</svg>
