<svg width="58" height="58" viewBox="0 0 58 58" fill="none" xmlns="http://www.w3.org/2000/svg">
<rect width="58" height="58" rx="12" fill="#FF7020" fill-opacity="0.15"/>
<path d="M32.1204 27.1556C34.3376 29.1414 34.3071 32.3252 32.1337 34.2806C32.1297 34.2846 32.1248 34.2889 32.1204 34.2929L29.6266 36.5241C27.4272 38.4921 23.8487 38.4918 21.6496 36.5241C19.4501 34.5565 19.4501 31.3544 21.6496 29.3868L23.0266 28.1548C23.3917 27.8281 24.0206 28.0452 24.0394 28.5069C24.0635 29.0954 24.1814 29.6865 24.399 30.2574C24.4727 30.4507 24.4201 30.6646 24.2587 30.809L23.773 31.2435C22.733 32.1741 22.7004 33.6893 23.7301 34.6289C24.7701 35.5778 26.4794 35.5835 27.5274 34.6458L30.0211 32.4149C31.0673 31.4789 31.0629 29.966 30.0211 29.0339C29.8838 28.9112 29.7454 28.8159 29.6374 28.7493C29.5609 28.7024 29.4978 28.6401 29.453 28.5674C29.4083 28.4947 29.3831 28.4137 29.3796 28.3308C29.3649 27.9799 29.5038 27.6184 29.8137 27.3411L30.595 26.642C30.7999 26.4587 31.1213 26.4362 31.3588 26.5846C31.6309 26.7546 31.8857 26.9456 32.1204 27.1556ZM37.3504 22.4759C35.1513 20.5082 31.5728 20.5079 29.3734 22.4759L26.8796 24.7071C26.8752 24.7111 26.8703 24.7154 26.8663 24.7194C24.6929 26.6748 24.6624 29.8586 26.8796 31.8444C27.1143 32.0544 27.3691 32.2454 27.6411 32.4154C27.8787 32.5637 28.2002 32.5412 28.405 32.3579L29.1863 31.6588C29.4962 31.3816 29.6351 31.02 29.6204 30.6692C29.6169 30.5863 29.5917 30.5052 29.5469 30.4326C29.5022 30.3599 29.4391 30.2976 29.3626 30.2506C29.2545 30.184 29.1162 30.0888 28.9789 29.9661C27.9371 29.034 27.9327 27.5211 28.9789 26.585L31.4726 24.3541C32.5205 23.4165 34.2298 23.4221 35.2698 24.3711C36.2996 25.3107 36.267 26.8259 35.227 27.7564L34.7413 28.191C34.5799 28.3354 34.5272 28.5492 34.6009 28.7425C34.8185 29.3134 34.9365 29.9046 34.9605 30.493C34.9794 30.9548 35.6082 31.1719 35.9734 30.8452L37.3504 29.6132C39.5499 27.6456 39.5499 24.4435 37.3504 22.4759Z" fill="#FF7020"/>
</svg>
