<svg width="86" height="86" viewBox="0 0 86 86" fill="none" xmlns="http://www.w3.org/2000/svg">
<rect x="1.5" y="1.5" width="83" height="83" rx="41.5" fill="#336AEA"/>
<rect x="1.5" y="1.5" width="83" height="83" rx="41.5" stroke="white" stroke-width="3"/>
<path d="M32.9083 25.481V41H30.1573V28.1585C30.0873 28.2285 29.9018 28.323 29.6008 28.442C29.3068 28.554 28.9498 28.6625 28.5298 28.7675C28.1168 28.8655 27.6863 28.9355 27.2383 28.9775V26.7305C27.6863 26.6745 28.1168 26.5765 28.5298 26.4365C28.9498 26.2965 29.3103 26.1425 29.6113 25.9745C29.9123 25.7995 30.1153 25.635 30.2203 25.481H32.9083ZM36.6033 41V24.5885H39.2283V34.2065L38.6298 33.9125L43.2393 29.849H46.6728L41.2128 34.7105L41.8323 33.5765L46.6203 41H43.7013L40.0263 35.0465L40.6983 35.162L38.9133 36.758L39.2283 35.5295V41H36.6033ZM57.4612 36.3485H54.2692V38.9H52.5157V36.3485H49.3237V34.616H52.5157V32.054H54.2692V34.616H57.4612V36.3485Z" fill="white"/>
<path d="M24.952 51.08V59H24.04V54.02L24.148 51.932H24.136L21.532 59H20.716L18.112 51.932H18.1L18.208 54.02V59H17.296V51.08H18.772L20.512 55.892L21.112 57.872H21.136L21.748 55.904L23.476 51.08H24.952ZM29.7724 59.12C29.2044 59.12 28.6964 58.996 28.2484 58.748C27.8084 58.5 27.4644 58.144 27.2164 57.68C26.9684 57.208 26.8444 56.648 26.8444 56C26.8444 55.352 26.9684 54.796 27.2164 54.332C27.4644 53.86 27.8044 53.5 28.2364 53.252C28.6684 53.004 29.1604 52.88 29.7124 52.88C30.2724 52.88 30.7484 53 31.1404 53.24C31.5404 53.48 31.8444 53.808 32.0524 54.224C32.2604 54.632 32.3644 55.092 32.3644 55.604C32.3644 55.74 32.3604 55.864 32.3524 55.976C32.3444 56.088 32.3324 56.188 32.3164 56.276H27.4684V55.424H31.8964L31.4044 55.52C31.4044 54.944 31.2444 54.5 30.9244 54.188C30.6124 53.876 30.2004 53.72 29.6884 53.72C29.2964 53.72 28.9564 53.812 28.6684 53.996C28.3884 54.172 28.1684 54.432 28.0084 54.776C27.8564 55.112 27.7804 55.52 27.7804 56C27.7804 56.472 27.8604 56.88 28.0204 57.224C28.1804 57.568 28.4044 57.832 28.6924 58.016C28.9884 58.192 29.3404 58.28 29.7484 58.28C30.1884 58.28 30.5444 58.196 30.8164 58.028C31.0964 57.86 31.3204 57.632 31.4884 57.344L32.2444 57.788C32.0924 58.06 31.8964 58.296 31.6564 58.496C31.4244 58.696 31.1484 58.852 30.8284 58.964C30.5164 59.068 30.1644 59.12 29.7724 59.12ZM34.1902 59V53H35.0302L35.0902 53.936C35.3062 53.568 35.5862 53.3 35.9302 53.132C36.2822 52.964 36.6422 52.88 37.0102 52.88C37.4342 52.88 37.8342 52.976 38.2102 53.168C38.5862 53.36 38.8742 53.656 39.0742 54.056C39.2022 53.784 39.3822 53.564 39.6142 53.396C39.8462 53.22 40.0982 53.092 40.3702 53.012C40.6502 52.924 40.9142 52.88 41.1622 52.88C41.5462 52.88 41.9102 52.96 42.2542 53.12C42.6062 53.28 42.8942 53.528 43.1182 53.864C43.3422 54.2 43.4542 54.632 43.4542 55.16V59H42.4942V55.256C42.4942 54.712 42.3582 54.32 42.0862 54.08C41.8142 53.84 41.4782 53.72 41.0782 53.72C40.7662 53.72 40.4742 53.796 40.2022 53.948C39.9302 54.1 39.7102 54.324 39.5422 54.62C39.3822 54.916 39.3022 55.28 39.3022 55.712V59H38.3422V55.256C38.3422 54.712 38.2062 54.32 37.9342 54.08C37.6622 53.84 37.3262 53.72 36.9262 53.72C36.6622 53.72 36.3902 53.792 36.1102 53.936C35.8382 54.072 35.6102 54.292 35.4262 54.596C35.2422 54.9 35.1502 55.3 35.1502 55.796V59H34.1902ZM48.5677 59.12C48.2317 59.12 47.9197 59.06 47.6317 58.94C47.3437 58.82 47.0957 58.652 46.8877 58.436C46.6797 58.22 46.5237 57.976 46.4197 57.704L46.5517 57.536L46.4677 59H45.6277V50.24H46.5877V54.356L46.4677 54.176C46.6277 53.8 46.8957 53.492 47.2717 53.252C47.6557 53.004 48.0917 52.88 48.5797 52.88C49.0757 52.88 49.5317 53.004 49.9477 53.252C50.3637 53.5 50.6957 53.856 50.9437 54.32C51.1917 54.784 51.3157 55.344 51.3157 56C51.3157 56.648 51.1877 57.208 50.9317 57.68C50.6837 58.144 50.3517 58.5 49.9357 58.748C49.5197 58.996 49.0637 59.12 48.5677 59.12ZM48.4717 58.28C49.0637 58.28 49.5237 58.072 49.8517 57.656C50.1877 57.24 50.3557 56.688 50.3557 56C50.3557 55.312 50.1917 54.76 49.8637 54.344C49.5357 53.928 49.0757 53.72 48.4837 53.72C48.1077 53.72 47.7757 53.816 47.4877 54.008C47.2077 54.2 46.9877 54.468 46.8277 54.812C46.6677 55.156 46.5877 55.56 46.5877 56.024C46.5877 56.48 46.6637 56.88 46.8157 57.224C46.9757 57.56 47.1957 57.82 47.4757 58.004C47.7637 58.188 48.0957 58.28 48.4717 58.28ZM53.1512 59V53H53.9312L54.0632 53.984C54.2312 53.616 54.4752 53.34 54.7952 53.156C55.1232 52.972 55.5192 52.88 55.9832 52.88C56.0872 52.88 56.1992 52.888 56.3192 52.904C56.4472 52.92 56.5552 52.952 56.6432 53L56.4752 53.876C56.3872 53.844 56.2912 53.82 56.1872 53.804C56.0832 53.788 55.9352 53.78 55.7432 53.78C55.4952 53.78 55.2432 53.852 54.9872 53.996C54.7392 54.14 54.5312 54.36 54.3632 54.656C54.1952 54.944 54.1112 55.312 54.1112 55.76V59H53.1512ZM60.3701 59.12C59.8021 59.12 59.2941 58.996 58.8461 58.748C58.4061 58.5 58.0621 58.144 57.8141 57.68C57.5661 57.208 57.4421 56.648 57.4421 56C57.4421 55.352 57.5661 54.796 57.8141 54.332C58.0621 53.86 58.4021 53.5 58.8341 53.252C59.2661 53.004 59.7581 52.88 60.3101 52.88C60.8701 52.88 61.3461 53 61.7381 53.24C62.1381 53.48 62.4421 53.808 62.6501 54.224C62.8581 54.632 62.9621 55.092 62.9621 55.604C62.9621 55.74 62.9581 55.864 62.9501 55.976C62.9421 56.088 62.9301 56.188 62.9141 56.276H58.0661V55.424H62.4941L62.0021 55.52C62.0021 54.944 61.8421 54.5 61.5221 54.188C61.2101 53.876 60.7981 53.72 60.2861 53.72C59.8941 53.72 59.5541 53.812 59.2661 53.996C58.9861 54.172 58.7661 54.432 58.6061 54.776C58.4541 55.112 58.3781 55.52 58.3781 56C58.3781 56.472 58.4581 56.88 58.6181 57.224C58.7781 57.568 59.0021 57.832 59.2901 58.016C59.5861 58.192 59.9381 58.28 60.3461 58.28C60.7861 58.28 61.1421 58.196 61.4141 58.028C61.6941 57.86 61.9181 57.632 62.0861 57.344L62.8421 57.788C62.6901 58.06 62.4941 58.296 62.2541 58.496C62.0221 58.696 61.7461 58.852 61.4261 58.964C61.1141 59.068 60.7621 59.12 60.3701 59.12ZM66.9479 59.12C66.3639 59.12 65.8239 58.996 65.3279 58.748C64.8399 58.5 64.4639 58.148 64.1999 57.692L65.0159 57.104C65.1919 57.472 65.4479 57.76 65.7839 57.968C66.1279 58.176 66.5399 58.28 67.0199 58.28C67.4439 58.28 67.7759 58.2 68.0159 58.04C68.2559 57.872 68.3759 57.656 68.3759 57.392C68.3759 57.224 68.3199 57.072 68.2079 56.936C68.1039 56.792 67.8999 56.688 67.5959 56.624L66.1559 56.324C65.5719 56.204 65.1519 56.004 64.8959 55.724C64.6479 55.444 64.5239 55.096 64.5239 54.68C64.5239 54.352 64.6159 54.052 64.7999 53.78C64.9919 53.508 65.2599 53.292 65.6039 53.132C65.9559 52.964 66.3679 52.88 66.8399 52.88C67.4319 52.88 67.9319 52.996 68.3399 53.228C68.7479 53.46 69.0519 53.788 69.2519 54.212L68.4479 54.74C68.3119 54.388 68.0919 54.132 67.7879 53.972C67.4839 53.804 67.1679 53.72 66.8399 53.72C66.5519 53.72 66.3039 53.76 66.0959 53.84C65.8959 53.92 65.7399 54.032 65.6279 54.176C65.5239 54.312 65.4719 54.468 65.4719 54.644C65.4719 54.82 65.5319 54.984 65.6519 55.136C65.7719 55.28 65.9959 55.384 66.3239 55.448L67.8239 55.76C68.3839 55.872 68.7759 56.056 68.9999 56.312C69.2239 56.568 69.3359 56.88 69.3359 57.248C69.3359 57.624 69.2359 57.956 69.0359 58.244C68.8359 58.524 68.5559 58.74 68.1959 58.892C67.8359 59.044 67.4199 59.12 66.9479 59.12Z" fill="white"/>
</svg>
