<svg width="106" height="24" viewBox="0 0 106 24" fill="none" xmlns="http://www.w3.org/2000/svg">
<path id="Subtract" fill-rule="evenodd" clip-rule="evenodd" d="M101.96 24C104.169 24 105.96 22.2091 105.96 20V4C105.96 1.79086 104.169 0 101.96 0H11.6667C10.5763 0 9.53315 0.445133 8.77871 1.23238L1.11205 9.23238C-0.370687 10.7796 -0.370679 13.2204 1.11205 14.7676L8.77871 22.7676C9.53315 23.5549 10.5763 24 11.6667 24H101.96ZM11.9597 9C10.3029 9 8.95974 10.3431 8.95974 12C8.95974 13.6569 10.3029 15 11.9597 15C13.6166 15 14.9597 13.6569 14.9597 12C14.9597 10.3431 13.6166 9 11.9597 9Z" fill="#757575"/>
</svg>
