<svg width="409" height="409" viewBox="0 0 409 409" fill="none" xmlns="http://www.w3.org/2000/svg">
<path d="M165.813 53.7572C165.813 53.7572 217.919 33.0523 242.999 64.129C268.08 95.2058 207.053 135.8 270.056 166.807C314.545 188.704 291.787 247.936 244.688 240.33C191.088 231.679 227.547 201.488 109.19 219.416C50.5876 228.311 7.28135 103.923 165.813 53.7572Z" fill="#EFEFEF"/>
<path d="M62.217 96.7985C62.217 96.7985 68.352 83.4161 77.1128 85.2034C85.8736 86.9907 78.3603 103.608 70.5197 106.32C62.6792 109.032 59.3295 101.408 62.217 96.7985Z" fill="#EFEFEF"/>
<path d="M56.1843 123.824C52.2783 122.786 50.4256 118.348 52.2334 114.732C53.6608 111.869 56.0739 109.145 59.9553 109.976C67.4727 111.587 63.4849 119.235 60.851 122.556C59.714 123.963 57.399 124.143 56.1843 123.824Z" fill="#EFEFEF"/>
<path d="M264.288 80.7689C264.288 80.7689 259.38 67.7095 265.781 63.0633C272.181 58.417 278.39 74.3312 275.462 81.0593C272.533 87.7873 265.564 85.411 264.288 80.7689Z" fill="#EFEFEF"/>
<path d="M254.423 55.6634C255.429 59.0949 259.396 60.6368 262.553 58.9558C265.036 57.6307 267.408 55.4343 266.586 52.0028C264.995 45.3893 257.973 45.7451 255.11 50.8249C254.328 52.2278 254.112 54.6 254.423 55.6634Z" fill="#EFEFEF"/>
<path d="M204.623 356.501C294.665 356.501 367.658 353.128 367.658 348.967C367.658 344.807 294.665 341.434 204.623 341.434C114.581 341.434 41.5872 344.807 41.5872 348.967C41.5872 353.128 114.581 356.501 204.623 356.501Z" fill="#EFEFEF"/>
<path d="M278.832 349.046C259.474 306.796 253.065 275.426 259.74 260.783C259.8 260.649 259.834 260.504 259.839 260.357C259.843 260.21 259.819 260.063 259.767 259.925C259.715 259.787 259.636 259.661 259.535 259.554C259.435 259.446 259.314 259.36 259.179 259.299C259.045 259.238 258.9 259.204 258.753 259.2C258.605 259.195 258.459 259.219 258.321 259.272C258.183 259.324 258.057 259.402 257.949 259.503C257.842 259.604 257.755 259.725 257.695 259.859C253.846 268.334 254.12 281.381 258.513 298.636C261.821 311.643 268.488 331.434 276.345 349.046H278.832Z" fill="#E9E9E9"/>
<path d="M255.887 282.925C255.887 282.925 247.13 286.164 242.038 270.544C242.038 270.544 256.852 269.387 255.887 282.925Z" fill="#EFEFEF"/>
<path d="M258.079 291.113C258.079 291.113 254.357 282.549 269.674 276.594C269.69 276.594 271.666 291.322 258.079 291.113Z" fill="#EFEFEF"/>
<path d="M256.77 267.038C256.77 267.038 250.406 260.204 262.856 249.488C262.856 249.488 269.633 262.711 256.77 267.038Z" fill="#EFEFEF"/>
<path d="M262.034 307.729C262.034 307.729 254.885 313.741 244.811 300.776C244.811 300.764 258.357 294.666 262.034 307.729Z" fill="#EFEFEF"/>
<path d="M265.547 315.749C265.547 315.749 260.398 307.937 274.439 299.426C274.439 299.426 278.938 313.585 265.547 315.749Z" fill="#EFEFEF"/>
<path d="M269.269 327.161C269.269 327.161 262.238 333.296 251.915 320.523C251.915 320.523 265.347 314.167 269.269 327.161Z" fill="#EFEFEF"/>
<path d="M272.149 335.991C272.149 335.991 281.478 336.367 281.494 319.938C281.494 319.938 267.048 323.414 272.149 335.991Z" fill="#EFEFEF"/>
<path d="M344.856 348.774C343.871 343.318 344.39 340.917 348.075 338.038C352.247 334.766 356.447 333.171 353.249 328.014C350.051 322.856 356.112 318.844 359.249 316.067C362.386 313.29 358.84 311.2 358.022 305.952C357.204 300.705 362.824 301.49 363.261 294.889C363.699 288.287 356.983 280.574 362.754 271.457C362.754 271.457 355.004 275.482 352.46 282.545C349.916 289.608 351.973 295.065 347.392 297.752C342.811 300.439 339.948 305.085 341.507 309.85C343.065 314.615 340.852 317.142 337.098 320.623C333.343 324.103 334.345 325.482 334.815 329.731C335.286 333.981 334.345 332.967 330.063 338.774C327.928 341.658 326.828 345.457 327.609 348.783L344.856 348.774Z" fill="#E9E9E9"/>
<path d="M337.4 348.78L355.691 293.185C355.712 293.122 355.72 293.055 355.716 292.988C355.711 292.921 355.693 292.856 355.663 292.797C355.633 292.737 355.591 292.684 355.541 292.64C355.49 292.597 355.431 292.564 355.368 292.543C355.24 292.503 355.101 292.515 354.982 292.576C354.862 292.637 354.772 292.743 354.73 292.87L336.325 348.784L337.4 348.78Z" fill="#DBDBDB"/>
<path d="M317.18 304.011C319.584 308.072 324.709 314.469 319.494 318.898C314.28 323.328 318.235 326.506 321.589 331.447C324.942 336.387 324.153 339.254 320.038 346.42C319.621 347.114 319.344 347.882 319.22 348.682L340.488 348.907C341.887 345.762 341.863 341.86 340.709 338.453C338.104 330.739 336.75 331.5 338.717 327.091C340.685 322.682 342.239 321.557 339.409 316.53C336.578 311.504 335.081 308.023 338.398 303.442C341.715 298.861 340.239 292.89 336.251 288.428C332.263 283.966 336.353 278.82 336.063 270.358C335.773 261.896 328.836 254.906 328.836 254.906C331.887 266.661 322.014 272.632 320.206 279.88C318.398 287.127 324.73 288.232 322.026 293.573C319.323 298.915 314.775 299.945 317.18 304.011Z" fill="#EFEFEF"/>
<path d="M330.509 348.798L330.063 280.666C330.061 280.516 330 280.372 329.894 280.265C329.788 280.158 329.645 280.097 329.494 280.094C329.342 280.095 329.197 280.156 329.089 280.264C328.982 280.372 328.922 280.518 328.922 280.67L329.388 348.785L330.509 348.798Z" fill="#E9E9E9"/>
<path d="M361.274 347.459C361.274 347.459 369.671 342.343 367.204 339.733C364.738 337.124 358.235 345.954 358.235 345.954C358.235 345.954 359.257 334.891 354.754 334.891C350.403 334.891 355.196 347.459 355.196 347.459H361.274Z" fill="#EFEFEF"/>
<path d="M290.091 243.664H366.362V249.39C366.362 249.675 366.248 249.949 366.047 250.151C365.845 250.352 365.571 250.466 365.286 250.466H291.163C290.878 250.466 290.604 250.352 290.402 250.151C290.201 249.949 290.087 249.675 290.087 249.39V243.664H290.091Z" fill="#EFEFEF"/>
<path d="M363.846 246.181H292.607C291.94 246.181 291.3 245.916 290.828 245.445C290.356 244.973 290.091 244.333 290.091 243.666V69.9841C290.091 69.317 290.356 68.6772 290.828 68.2055C291.3 67.7338 291.94 67.4688 292.607 67.4688H363.846C364.513 67.4688 365.153 67.7338 365.625 68.2055C366.097 68.6772 366.362 69.317 366.362 69.9841V243.666C366.362 244.333 366.097 244.973 365.625 245.445C365.153 245.916 364.513 246.181 363.846 246.181ZM295.134 241.151H361.331V72.4994H295.122L295.134 241.151Z" fill="#E9E9E9"/>
<path d="M363.846 159.337H292.607C292.268 159.351 291.93 159.296 291.613 159.176C291.297 159.056 291.007 158.873 290.763 158.638C290.519 158.403 290.324 158.122 290.191 157.81C290.058 157.498 289.99 157.163 289.99 156.824C289.99 156.485 290.058 156.15 290.191 155.838C290.324 155.526 290.519 155.245 290.763 155.01C291.007 154.775 291.297 154.592 291.613 154.472C291.93 154.352 292.268 154.297 292.607 154.311H363.846C364.185 154.297 364.523 154.352 364.84 154.472C365.157 154.592 365.446 154.775 365.69 155.01C365.935 155.245 366.129 155.526 366.262 155.838C366.395 156.15 366.463 156.485 366.463 156.824C366.463 157.163 366.395 157.498 366.262 157.81C366.129 158.122 365.935 158.403 365.69 158.638C365.446 158.873 365.157 159.056 364.84 159.176C364.523 159.296 364.185 159.351 363.846 159.337Z" fill="#E9E9E9"/>
<path d="M246.042 84.293H108.745V332.675H246.042V84.293Z" fill="#EDEDED"/>
<path d="M233.999 101H120.999V316H233.999V101Z" fill="white"/>
<g style="mix-blend-mode:multiply">
<path d="M233.842 210.816H120.905V215.303H233.842V210.816Z" fill="#EFEFEF"/>
</g>
<g style="mix-blend-mode:multiply">
<path d="M246.042 100.973V104.527L108.745 114.138V100.973H246.042Z" fill="#EFEFEF"/>
</g>
<path d="M270.787 81.5053V100.97H83.252V81.5053C105.853 77.3949 113.068 39.043 113.068 39.043H240.962C240.962 39.043 248.177 77.399 270.787 81.5053Z" fill="white"/>
<path d="M270.787 81.5039H83.2561V100.972H270.787V81.5039Z" fill="#EFEFEF"/>
<path d="M133.919 39.043C133.919 39.043 129.674 77.399 107.068 81.5053V100.97H83.2561V81.5053C105.862 77.4153 113.072 39.043 113.072 39.043H133.919Z" fill="#E6E6E6"/>
<path d="M270.791 81.5053V100.97H246.975V81.5053C224.369 77.4153 218.913 39.043 218.913 39.043H240.97C240.97 39.043 248.181 77.399 270.791 81.5053Z" fill="#E6E6E6"/>
<path d="M160.295 81.6362V100.97H137.98L137.424 81.5053C151.62 70.6137 152.737 39.043 152.737 39.043H167.441C168.124 61.8652 160.295 81.6362 160.295 81.6362Z" fill="#E6E6E6"/>
<path d="M213.952 81.5053L213.388 100.97H191.077V81.6362C191.077 81.6362 183.232 61.8652 183.936 39.043H198.66C198.66 39.043 199.76 70.6137 213.952 81.5053Z" fill="#E6E6E6"/>
<path d="M107.068 81.5039H83.2561V100.972H107.068V81.5039Z" fill="#EFEFEF"/>
<path d="M270.791 81.5039V100.968H246.975V81.5039H270.791Z" fill="#EFEFEF"/>
<path d="M160.349 81.5039C160.312 81.5898 160.295 81.6348 160.295 81.6348V100.968H137.98L137.424 81.5039H160.349Z" fill="#EFEFEF"/>
<path d="M213.952 81.5039L213.388 100.968H191.077V81.6348C191.077 81.6348 191.056 81.5898 191.023 81.5039H213.952Z" fill="#EFEFEF"/>
<path d="M97.383 325.707H257.637C258.541 325.707 259.435 325.885 260.27 326.231C261.105 326.576 261.863 327.083 262.502 327.722C263.141 328.361 263.647 329.119 263.993 329.954C264.339 330.788 264.517 331.683 264.517 332.586V341.433C264.517 341.641 264.434 341.841 264.287 341.988C264.139 342.136 263.94 342.218 263.731 342.218H91.2848C91.0765 342.218 90.8768 342.136 90.7295 341.988C90.5822 341.841 90.4995 341.641 90.4995 341.433V332.586C90.4995 331.683 90.6776 330.788 91.0236 329.953C91.3695 329.118 91.8766 328.359 92.5159 327.721C93.1551 327.082 93.914 326.575 94.7491 326.23C95.5842 325.884 96.4792 325.706 97.383 325.707Z" fill="#DDDDDD"/>
<path d="M86.896 335.875H268.165C269.042 335.874 269.911 336.047 270.722 336.382C271.533 336.718 272.27 337.21 272.89 337.83C273.511 338.45 274.003 339.186 274.339 339.997C274.675 340.808 274.848 341.677 274.848 342.554V350.264H80.217V342.554C80.217 340.783 80.9207 339.084 82.1733 337.831C83.4258 336.579 85.1246 335.875 86.896 335.875Z" fill="#E9E9E9"/>
<path d="M209.572 146.648H145.285C144.702 146.648 144.23 147.121 144.23 147.704V183.152C144.23 183.734 144.702 184.207 145.285 184.207H209.572C210.154 184.207 210.627 183.734 210.627 183.152V147.704C210.627 147.121 210.154 146.648 209.572 146.648Z" fill="#EDEDED"/>
<path d="M147.976 149.832H206.872C207.021 149.832 207.163 149.891 207.268 149.996C207.374 150.101 207.433 150.244 207.433 150.392V163.043H147.412V150.392C147.412 150.318 147.426 150.245 147.455 150.177C147.483 150.109 147.525 150.047 147.577 149.995C147.63 149.943 147.692 149.901 147.761 149.874C147.829 149.846 147.902 149.832 147.976 149.832Z" fill="#E6E6E6"/>
<path d="M147.412 163.047H207.441V181.129C207.441 181.277 207.382 181.42 207.277 181.525C207.172 181.63 207.029 181.689 206.88 181.689H147.984C147.836 181.689 147.693 181.63 147.588 181.525C147.483 181.42 147.424 181.277 147.424 181.129V163.047H147.412Z" fill="white"/>
<path d="M208.893 148.023C208.781 148.022 208.673 147.988 208.582 147.924L177.371 125.597L146.16 147.924C146.044 147.994 145.906 148.017 145.773 147.989C145.641 147.961 145.524 147.885 145.445 147.774C145.366 147.664 145.332 147.529 145.348 147.394C145.365 147.26 145.431 147.137 145.534 147.049L177.06 124.497C177.151 124.433 177.26 124.398 177.371 124.398C177.482 124.398 177.591 124.433 177.682 124.497L209.207 147.049C209.301 147.115 209.371 147.209 209.407 147.318C209.443 147.426 209.443 147.543 209.408 147.652C209.373 147.76 209.304 147.855 209.211 147.922C209.118 147.989 209.007 148.024 208.893 148.023Z" fill="#EDEDED"/>
<path d="M180.222 125.019C180.222 125.585 180.054 126.139 179.739 126.61C179.425 127.081 178.978 127.448 178.454 127.664C177.931 127.881 177.356 127.938 176.8 127.827C176.245 127.717 175.735 127.444 175.334 127.044C174.934 126.643 174.661 126.133 174.551 125.578C174.44 125.022 174.497 124.447 174.714 123.924C174.93 123.4 175.297 122.953 175.768 122.639C176.239 122.324 176.793 122.156 177.359 122.156C178.118 122.156 178.846 122.458 179.383 122.995C179.92 123.532 180.222 124.26 180.222 125.019Z" fill="white"/>
<path d="M77.9882 299.693C77.7469 299.693 77.5153 299.598 77.3432 299.429C77.171 299.26 77.0722 299.03 77.0679 298.789C76.892 289.194 84.5812 285.039 84.9084 284.883C85.1254 284.769 85.3787 284.746 85.6126 284.819C85.8466 284.892 86.042 285.055 86.1559 285.272C86.2698 285.489 86.2928 285.742 86.22 285.976C86.1471 286.21 85.9843 286.405 85.7673 286.519C84.4379 287.303 83.2491 288.304 82.2499 289.48C79.9974 292.043 78.8029 295.366 78.9084 298.777C78.9111 298.898 78.8898 299.018 78.8458 299.131C78.8017 299.244 78.7358 299.347 78.6517 299.434C78.5677 299.521 78.4672 299.59 78.3561 299.638C78.245 299.686 78.1255 299.712 78.0045 299.714L77.9882 299.693Z" fill="#EFEFEF"/>
<path d="M75.0147 275.871C75.0147 275.871 64.307 255.678 102.716 241.515C103.165 241.348 103.65 241.305 104.12 241.391C104.591 241.477 105.029 241.69 105.389 242.005C105.749 242.32 106.017 242.727 106.164 243.182C106.311 243.637 106.332 244.124 106.225 244.59C103.804 255.11 95.8532 279.691 75.0147 275.871Z" fill="#ECECEC"/>
<path d="M64.4748 297.87H64.3439C64.2241 297.853 64.1088 297.813 64.0046 297.751C63.9005 297.689 63.8095 297.608 63.7369 297.511C63.6644 297.414 63.6116 297.304 63.5817 297.186C63.5518 297.069 63.5454 296.947 63.5627 296.827C66.2253 278.455 79.9227 269.911 81.4646 269.015C81.6752 268.889 81.9273 268.851 82.1657 268.91C82.4041 268.969 82.6094 269.12 82.7366 269.33C82.7989 269.434 82.8402 269.548 82.8581 269.667C82.876 269.787 82.8701 269.908 82.8409 270.025C82.8116 270.143 82.7595 270.253 82.6876 270.349C82.6157 270.446 82.5253 270.528 82.4217 270.59H82.4013C79.5119 272.402 76.9058 274.631 74.6671 277.203C69.6592 282.761 66.4274 289.689 65.3869 297.097C65.3518 297.314 65.2407 297.51 65.0735 297.652C64.9063 297.794 64.694 297.871 64.4748 297.87Z" fill="#ECECEC"/>
<path d="M70.119 297.87H70.0741C69.8303 297.859 69.601 297.751 69.4363 297.571C69.2715 297.391 69.1847 297.153 69.1947 296.909C69.5669 289.044 64.5771 281.874 64.528 281.805C64.387 281.605 64.331 281.358 64.3725 281.117C64.4139 280.876 64.5493 280.661 64.7489 280.52C64.9485 280.379 65.1959 280.323 65.4367 280.365C65.6776 280.406 65.8921 280.542 66.0331 280.741C66.254 281.052 71.4401 288.512 71.0393 296.995C71.0277 297.231 70.9257 297.454 70.7544 297.617C70.583 297.78 70.3555 297.871 70.119 297.87Z" fill="#ECECEC"/>
<path d="M72.7692 299.218H72.7446C72.6234 299.215 72.5039 299.188 72.393 299.139C72.2821 299.09 72.182 299.02 72.0983 298.932C72.0147 298.844 71.9493 298.741 71.9058 298.628C71.8623 298.515 71.8416 298.394 71.8448 298.273L72.6301 268.371C72.6507 268.136 72.76 267.919 72.9356 267.762C73.1113 267.605 73.3402 267.521 73.5755 267.528C73.8108 267.534 74.0348 267.63 74.2019 267.796C74.369 267.961 74.4666 268.185 74.4747 268.42L73.6894 298.322C73.683 298.562 73.5832 298.789 73.4113 298.957C73.2395 299.124 73.009 299.218 72.7692 299.218Z" fill="#EFEFEF"/>
<path d="M66.352 282.306C66.352 282.306 44.581 289.23 37.5094 248.907C37.4249 248.436 37.4695 247.951 37.6384 247.504C37.8073 247.056 38.0942 246.663 38.4687 246.365C38.8432 246.067 39.2912 245.876 39.7653 245.813C40.2395 245.749 40.722 245.815 41.1617 246.003C51.0759 250.269 73.8367 262.486 66.352 282.306Z" fill="#ECECEC"/>
<path d="M80.4665 290.071C80.4665 290.071 100.049 301.863 116.274 264.28C116.468 263.84 116.539 263.357 116.48 262.88C116.42 262.404 116.233 261.953 115.936 261.575C115.64 261.197 115.247 260.906 114.799 260.734C114.351 260.562 113.864 260.515 113.391 260.599C102.765 262.451 77.7876 269.053 80.4665 290.071Z" fill="#EFEFEF"/>
<path d="M76.8919 278.713C76.5548 279.406 76.0175 279.981 75.3494 280.365C74.6814 280.749 73.9135 280.924 73.1451 280.867C72.3767 280.81 71.6431 280.523 71.0394 280.044C70.4357 279.565 69.9897 278.916 69.759 278.181C65.1127 263.347 57.3295 231.911 73.44 228.283C91.5096 224.254 85.4523 260.97 76.8919 278.713Z" fill="#EFEFEF"/>
<path d="M73.162 280.727C73.0959 280.724 73.031 280.709 72.971 280.681C72.9109 280.653 72.857 280.614 72.8121 280.565C72.7673 280.517 72.7325 280.46 72.7097 280.398C72.687 280.335 72.6766 280.27 72.6794 280.203L74.3808 238.171C74.3863 238.037 74.4445 237.911 74.5426 237.821C74.6408 237.73 74.7709 237.682 74.9043 237.688C75.0378 237.693 75.1636 237.752 75.2541 237.85C75.3446 237.948 75.3924 238.078 75.387 238.211L73.661 280.244C73.6567 280.374 73.6023 280.497 73.5092 280.587C73.4161 280.677 73.2916 280.727 73.162 280.727Z" fill="#ECECEC"/>
<path d="M81.0065 290.133C80.9028 290.132 80.8018 290.1 80.7171 290.041C80.6324 289.981 80.5682 289.897 80.5333 289.799C80.4984 289.701 80.4945 289.595 80.5221 289.496C80.5496 289.396 80.6074 289.307 80.6874 289.241L103.964 270.194C104.014 270.151 104.073 270.12 104.136 270.1C104.2 270.081 104.266 270.074 104.332 270.081C104.398 270.087 104.462 270.106 104.52 270.138C104.578 270.169 104.63 270.212 104.671 270.263C104.756 270.366 104.796 270.499 104.783 270.632C104.77 270.764 104.705 270.886 104.602 270.971L81.3214 290.018C81.2335 290.093 81.1217 290.133 81.0065 290.133Z" fill="#ECECEC"/>
<path d="M97.8002 295.895L96.4995 301.845L96.1274 303.559L96.0783 303.784L95.338 307.179L95.1826 307.89L94.9617 308.893L94.7572 309.833L89.1866 335.281L88.8103 336.995L88.0169 340.615L87.6447 342.328L85.8942 350.32H62.1313L60.3808 342.328L60.0045 340.615L59.2151 336.995L58.8388 335.281L53.2641 309.833L53.0556 308.893L52.8388 307.89L52.6834 307.179L51.9431 303.784L51.894 303.559L51.5177 301.845L50.2212 295.895H97.8002Z" fill="#E6E6E6"/>
<path d="M96.4994 301.848L96.1272 303.561H51.8939L51.5176 301.848H96.4994Z" fill="#EFEFEF"/>
<path d="M95.338 307.18L95.1825 307.891L94.9617 308.893H53.0555L52.8388 307.891L52.6833 307.18H95.338Z" fill="#EFEFEF"/>
<path d="M89.1864 335.281L88.8101 336.995H59.2149L58.8386 335.281H89.1864Z" fill="#EFEFEF"/>
<path d="M88.0168 340.613L87.6446 342.327H60.3807L60.0044 340.613H88.0168Z" fill="#EFEFEF"/>
</svg>
