<svg width="58" height="58" viewBox="0 0 58 58" fill="none" xmlns="http://www.w3.org/2000/svg">
<rect width="58" height="58" rx="12" fill="#3AB137" fill-opacity="0.15"/>
<path d="M36.7049 22.0516C34.6473 20.0828 31.9071 19 28.9951 19C22.9844 19 18.0933 23.6687 18.0933 29.4062C18.0933 31.2391 18.5942 33.0297 19.5469 34.6094L18 40L23.7799 38.5516C25.371 39.3813 27.1634 39.8172 28.9902 39.8172H28.9951C35.0009 39.8172 40 35.1484 40 29.4109C40 26.6313 38.7625 24.0203 36.7049 22.0516ZM28.9951 38.0641C27.3647 38.0641 25.7687 37.6469 24.379 36.8594L24.05 36.6719L20.6223 37.5297L21.5357 34.3375L21.3196 34.0094C20.4112 32.6313 19.9348 31.0422 19.9348 29.4062C19.9348 24.6391 24.0009 20.7578 29 20.7578C31.421 20.7578 33.6946 21.6578 35.4036 23.2937C37.1125 24.9297 38.1634 27.1 38.1585 29.4109C38.1585 34.1828 33.9893 38.0641 28.9951 38.0641ZM33.9647 31.5859C33.6946 31.4547 32.354 30.8266 32.1036 30.7422C31.8531 30.6531 31.6714 30.6109 31.4897 30.8734C31.308 31.1359 30.7875 31.7172 30.6254 31.8953C30.4683 32.0688 30.3062 32.0922 30.0362 31.9609C28.4353 31.1969 27.3844 30.5969 26.3286 28.8672C26.0487 28.4078 26.6085 28.4406 27.129 27.4469C27.2174 27.2734 27.1732 27.1234 27.1045 26.9922C27.0357 26.8609 26.4906 25.5813 26.2647 25.0609C26.0437 24.5547 25.8179 24.625 25.6509 24.6156C25.4938 24.6063 25.3121 24.6063 25.1304 24.6063C24.9487 24.6063 24.654 24.6719 24.4036 24.9297C24.1531 25.1922 23.4509 25.8203 23.4509 27.1C23.4509 28.3797 24.4281 29.6172 24.5607 29.7906C24.6982 29.9641 26.4808 32.5891 29.2161 33.7188C30.9446 34.4312 31.6223 34.4922 32.4866 34.3703C33.0121 34.2953 34.0973 33.7422 34.3232 33.1328C34.5491 32.5234 34.5491 32.0031 34.4804 31.8953C34.4165 31.7781 34.2348 31.7125 33.9647 31.5859Z" fill="#3AB137"/>
</svg>
